<svg xmlns="http://www.w3.org/2000/svg"><defs> <style>.billet-cls-1{fill:#1d1d1b}.billet-cls-2{fill:none;stroke:#1d1d1b;stroke-miterlimit:10;stroke-width:2px}</style> <style>.billet-cls-1{fill:#1d1d1b}.billet-cls-2{fill:none;stroke:#1d1d1b;stroke-miterlimit:10;stroke-width:2px}</style> <style> .cls-1{fill:none;stroke:#1d1d1b;stroke-miterlimit:10;stroke-width:2px} </style>  <style> .cls-1{fill:none;stroke:#1d1d1b;stroke-miterlimit:10;stroke-width:2px} </style>  <style> .cls-1,.cls-2{fill:none;stroke-miterlimit:10;stroke-width:2px}.cls-1{stroke:#1d1e1b}.cls-2{stroke:#1d1d1b} </style> <style>.cls-1{fill:#1d1d1b;}</style> <style> .cls-1{fill:none;stroke:#1d1d1b;stroke-miterlimit:10;stroke-width:2px}.cls-2{fill:#1d1d1b} </style>  <style> .cls-3{stroke:#1d1d1b;stroke-miterlimit:10;stroke-width:2px;fill:none} </style>  <style> .cls-1{fill:none;stroke:#1d1e1b;stroke-miterlimit:10;stroke-width:2px} </style>  <style> .cls-1{fill:none;stroke:#1d1d1b;stroke-miterlimit:10;stroke-width:2px} </style>  <style> .cls-1,.cls-3{fill:none;stroke:#1d1e1b;stroke-width:2px;stroke-miterlimit:10}.cls-3{stroke:#1d1d1b;fill:#fff;stroke-width:1.85px} </style> </defs><symbol viewBox="0 0 100 100" id="arrow_left"><title>arrow_left</title> <g> <path fill="none" stroke="#000000" stroke-width="5" stroke-linejoin="bevel" stroke-miterlimit="10" d="M73.5,0L14.5,50l59.1,50
		 M73.5,50H14.5"/> </g> </symbol><symbol viewBox="0 0 100 100" id="arrow_right"><title>arrow_right</title> <g> <path fill="none" stroke="#000000" stroke-width="5" stroke-linejoin="bevel" stroke-miterlimit="10" d="M26.5,100l59.1-50
		L26.5,0 M26.5,50h59.1"/> </g> </symbol><symbol viewBox="0 0 1000 1000" id="arrow_up"><title>arrow_up</title> <g> <path fill="none" stroke="#1D1D1B" stroke-width="30" stroke-miterlimit="10" d="M80,888.5L500,119l420,769.5 M500,888.5V119"/> </g> </symbol><symbol viewBox="0 0 39.1 70" id="billet_footer"><title>billet_footer</title><path class="billet-cls-1" fill="#1d1d1b" d="M3 13.93a1 1 0 1 1-1-1 1 1 0 0 1 1 1z"/><circle class="billet-cls-1" fill="#1d1d1b" cx="5.51" cy="13.93" r="1"/><circle class="billet-cls-1" fill="#1d1d1b" cx="9.02" cy="13.93" r="1"/><circle class="billet-cls-1" fill="#1d1d1b" cx="12.53" cy="13.93" r="1"/><path class="billet-cls-1" fill="#1d1d1b" d="M17 13.93a1 1 0 1 1-1-1 1 1 0 0 1 1 1z"/><circle class="billet-cls-1" fill="#1d1d1b" cx="19.55" cy="13.93" r="1"/><path class="billet-cls-1" fill="#1d1d1b" d="M24.06 13.93a1 1 0 1 1-1-1 1 1 0 0 1 1 1z"/><circle class="billet-cls-1" fill="#1d1d1b" cx="26.57" cy="13.93" r="1"/><circle class="billet-cls-1" fill="#1d1d1b" cx="30.08" cy="13.93" r="1"/><path class="billet-cls-1" fill="#1d1d1b" d="M34.59 13.93a1 1 0 1 1-1-1 1 1 0 0 1 1 1z"/><circle class="billet-cls-1" fill="#1d1d1b" cx="37.11" cy="13.93" r="1"/><path stroke-width="3px" stroke-miterlimit="10" stroke="#1d1d1b" fill="none" d="M29.07 69a10.11 10.11 0 0 0-19 0H1V1h9a10.11 10.11 0 0 0 9.52 6.71A10.1 10.1 0 0 0 29.07 1h9v68h-9zM25.12 45.2a7.57 7.57 0 1 1 0-13M11.55 40.68h10.48M11.55 36.72h10.48"/><path stroke-width="3px" stroke-miterlimit="10" stroke="#1d1d1b" fill="none" d="M5.51 18.93H33.6v38.33H5.51z"/></symbol><symbol viewBox="0 0 39.1 70" id="billet"><title>billet</title><path class="billet-cls-1" fill="#1d1d1b" d="M3 13.93a1 1 0 1 1-1-1 1 1 0 0 1 1 1z"/><circle class="billet-cls-1" fill="#1d1d1b" cx="5.51" cy="13.93" r="1"/><circle class="billet-cls-1" fill="#1d1d1b" cx="9.02" cy="13.93" r="1"/><circle class="billet-cls-1" fill="#1d1d1b" cx="12.53" cy="13.93" r="1"/><path class="billet-cls-1" fill="#1d1d1b" d="M17 13.93a1 1 0 1 1-1-1 1 1 0 0 1 1 1z"/><circle class="billet-cls-1" fill="#1d1d1b" cx="19.55" cy="13.93" r="1"/><path class="billet-cls-1" fill="#1d1d1b" d="M24.06 13.93a1 1 0 1 1-1-1 1 1 0 0 1 1 1z"/><circle class="billet-cls-1" fill="#1d1d1b" cx="26.57" cy="13.93" r="1"/><circle class="billet-cls-1" fill="#1d1d1b" cx="30.08" cy="13.93" r="1"/><path class="billet-cls-1" fill="#1d1d1b" d="M34.59 13.93a1 1 0 1 1-1-1 1 1 0 0 1 1 1z"/><circle class="billet-cls-1" fill="#1d1d1b" cx="37.11" cy="13.93" r="1"/><path class="billet-cls-2" stroke="#1d1d1b" fill="none" d="M29.07 69a10.11 10.11 0 0 0-19 0H1V1h9a10.11 10.11 0 0 0 9.52 6.71A10.1 10.1 0 0 0 29.07 1h9v68h-9zM25.12 45.2a7.57 7.57 0 1 1 0-13M11.55 40.68h10.48M11.55 36.72h10.48"/><path class="billet-cls-2" stroke="#1d1d1b" fill="none" d="M5.51 18.93H33.6v38.33H5.51z"/></symbol><symbol viewBox="0 225 1000 550" id="burger"><title>burger</title> <path fill="none" stroke="#1D1D1B" stroke-width="20" d="M0 300h1000M0 500h1000M0 700h1000"/> </symbol><symbol viewBox="0 0 71.97 70.01" id="chair"><title>chair</title>  <path fill="none" stroke="#1d1d1b" stroke-miterlimit="10" stroke-width="2px" d="M36 6.74A5.74 5.74 0 0 0 30.24 1H6.59v57.16h23.65A5.74 5.74 0 0 1 36 63.9"/> <path fill="none" stroke="#1d1d1b" stroke-miterlimit="10" stroke-width="2px" d="M6.59 6.11H1v57.3h28.39A6.59 6.59 0 0 1 36 70M65.38 6.11H71v57.3H42.58A6.6 6.6 0 0 0 36 70M10.05 6.11h20.43M10.05 10.67h20.43M10.05 15.23h20.43M10.05 19.8h20.43M10.05 24.36h20.43M10.05 28.92h10.22"/> <path fill="none" stroke="#1d1d1b" stroke-miterlimit="10" stroke-width="2px" d="M11.1 36.2h18.43v17.23H11.1zM41.48 48.87h20.44M41.48 53.44H51.7M42.54 6.11h18.43v35.77H42.54z"/> <path fill="none" stroke="#1d1d1b" stroke-miterlimit="10" stroke-width="2px" d="M36 69.87V6.74A5.75 5.75 0 0 1 41.73 1h23.65v57.16H41.73A5.75 5.75 0 0 0 36 63.9"/> </symbol><symbol viewBox="0 0 70.01 70.01" id="cinema"><title>cinema</title>  <path fill="none" stroke="#1d1d1b" stroke-miterlimit="10" stroke-width="2px" d="M31.61 22.55a3.38 3.38 0 0 1-4.42-5.12L35 10.67a3.38 3.38 0 0 1 4.42 5.12zM34 54.26a3.38 3.38 0 1 1-4.16 5.33l-8.15-6.36a3.38 3.38 0 0 1 4.15-5.33z"/> <circle fill="none" stroke="#1d1d1b" stroke-miterlimit="10" stroke-width="2px" cx="17.63" cy="23.23" r="3.65"/> <path fill="none" stroke="#1d1d1b" stroke-miterlimit="10" stroke-width="2px" d="M58.1 29.38a3.65 3.65 0 1 1-3.65-3.64 3.65 3.65 0 0 1 3.65 3.64z"/> <circle fill="none" stroke="#1d1d1b" stroke-miterlimit="10" stroke-width="2px" cx="35" cy="35" r="34" transform="rotate(-76.91 35.00266284 35.00479554)"/> <circle fill="none" stroke="#1d1d1b" stroke-miterlimit="10" stroke-width="2px" cx="35" cy="35" r="29.71"/> <path fill="none" stroke="#1d1d1b" stroke-miterlimit="10" stroke-width="2px" d="M51.41 10.22L32.55 35.78M46.07 24.25L30.32 45.36M47.83 39.68v-2.47M47.83 54.6v-2.55M54.05 45.9a6.22 6.22 0 1 1-6.22-6.22 6.22 6.22 0 0 1 6.22 6.22zM52.23 41.5l1.75-1.75M41.68 52.05l1.75-1.75M54.05 45.9h2.47M39.13 45.9h2.48M52.23 50.3l1.75 1.75M41.68 39.75l1.75 1.75M26.89 33.49c-1.05-2.46-2.8-4.08-3.91-3.6s-1.15 2.84-.1 5.3 1 4.84-.1 5.31-2.86-1.14-3.9-3.6-2.8-4.07-3.91-3.6-1.15 2.85-.1 5.31 1 4.84-.1 5.31-2.86-1.14-3.9-3.6"/> </symbol><symbol viewBox="0 0 100 100" id="close"><title>close</title> <g> <g> <rect x="-19" y="48.2" transform="matrix(0.7071 0.7071 -0.7071 0.7071 50.001 -20.7082)" width="137.9" height="3.5"/> </g> <g> <rect x="48.2" y="-19" transform="matrix(0.7071 0.7071 -0.7071 0.7071 49.999 -20.7131)" width="3.5" height="137.9"/> </g> </g> </symbol><symbol viewBox="0 0 1000 1000" id="dropdown"><title>dropdown</title> <polygon fill="#1D1D1B" points="500,1000 842.5,657.5 805.9,620.9 526.1,900.7 526.1,0 473.9,0 473.9,900.7 194.1,620.9 
	157.5,657.5 "/> </symbol><symbol viewBox="0 0 1000 1000" id="expositions"><title>expositions</title> <g> <path fill="none" stroke="#1D1D1B" stroke-width="20" stroke-miterlimit="10" d="M142.3,431.2l-55.8,15.5l-49-176.1l55.8-15.5
		L142.3,431.2z M962.5,216l-313.1,87.2l-33-18.9l-41.3-148.4l18.5-33.3l313.1-87.2L962.5,216z M427.2,337l-48.4,13.5l-31.9-18.4
		l-27.2-97.8l17.8-32.2l237.6-66.2l41.3,148.4l-67,18.7 M346.9,332.1l-215.5,60l-27.2-97.8l215.5-60L346.9,332.1z M488.4,694.1v59.1
		 M523.6,373v321h-70.5V373 M551.9,320.6c0,35.1-28.4,63.5-63.5,63.5S425,355.7,425,320.6c0-35,28.4-63.5,63.5-63.5
		S551.9,285.6,551.9,320.6z M719.9,987.8h-463V753.1h463V987.8z"/> </g> </symbol><symbol viewBox="0 0 69.88 69.96" id="jeune"><title>jeune</title>  <ellipse fill="none" stroke="#1d1d1b" stroke-miterlimit="10" stroke-width="2px" cx="34.94" cy="3.9" rx="11.71" ry="2.9"/> <path fill="none" stroke="#1d1d1b" stroke-miterlimit="10" stroke-width="2px" d="M39.16 36.08c7.67.47 13.36 2.18 13.36 4.22s-5.69 3.76-13.36 4.23M30.72 44.53c-7.72-.47-13.36-2.18-13.36-4.23s5.64-3.75 13.36-4.22"/> <path fill="none" stroke="#1d1d1b" stroke-miterlimit="10" stroke-width="2px" d="M30.72 57.34a17.57 17.57 0 0 1-1.08-33.82v-17M40.23 6.49v17a17.57 17.57 0 0 1-1.07 33.82"/> <path fill="none" stroke="#1d1d1b" stroke-miterlimit="10" stroke-width="2px" d="M30.72 33.07v31.74a4.22 4.22 0 0 0 8.44 0V33"/> <ellipse fill="none" stroke="#1d1d1b" stroke-miterlimit="10" stroke-width="2px" cx="34.94" cy="30.89" rx="7.9" ry="2.41"/> <path fill="none" stroke="#1d1d1b" stroke-miterlimit="10" stroke-width="2px" d="M4.68 22v31.71a4.22 4.22 0 0 0 8.44 0V21.87"/> <path fill="none" stroke="#1d1d1b" stroke-miterlimit="10" stroke-width="2px" d="M16.8 19.78c0 1.33-3.54 2.41-7.9 2.41S1 21.11 1 19.78s3.54-2.4 7.9-2.4 7.9 1.07 7.9 2.4z"/> <path fill="none" stroke="#1d1d1b" stroke-miterlimit="10" stroke-width="2px" d="M56.75 22v31.71a4.23 4.23 0 0 0 8.45 0V21.87"/> <path fill="none" stroke="#1d1d1b" stroke-miterlimit="10" stroke-width="2px" d="M68.88 19.78c0 1.33-3.54 2.41-7.9 2.41s-7.9-1.08-7.9-2.41 3.53-2.4 7.9-2.4 7.9 1.07 7.9 2.4zM13.12 45.72h5.1M51.66 45.72h5.09"/> </symbol><symbol viewBox="0 456.5 1000 87" id="logo_rb_cond"><title>Plan de travail 3</title>  <g> <path id="logo_rb_cond-_Trac&#xE9;_transparent_" d="M13,530.1h36.2v12H0v-84.2h13V530.1z"/> <path id="logo_rb_cond-_Trac&#xE9;_transparent_2" d="M114.8,542.1l-7.3-21.2H75l-7.3,21.2h-14l29.8-84.2h15.4l29.8,84.2H114.8z M79.1,509.1h24.3
		L91.2,474L79.1,509.1z"/> <path id="logo_rb_cond-_Trac&#xE9;_transparent_3" d="M224.6,542.1h-16.7L176.7,510v32.1h-12.5v-84.2h27.1c8.8,0,15.6,2.2,20.3,6.7
		c4.7,4.5,7.1,10.4,7.1,17.8c0,7.6-2.3,13.5-7,17.6c-4.7,4.1-11.4,6.2-20.1,6.2h-1.7L224.6,542.1z M191.3,469.7h-14.6v26.2h14.6
		c4.7,0,8.4-1.2,10.9-3.7s3.8-5.7,3.8-9.7c0-3.9-1.3-7.1-3.8-9.4C199.6,470.9,196,469.7,191.3,469.7L191.3,469.7z"/> <path id="logo_rb_cond-_Trac&#xE9;_transparent_4" d="M246.5,530.2H282v11.9h-48.6v-84.2h47.4v11.9h-34.4v23.6h31.4v11.8h-31.4V530.2z"/> <path id="logo_rb_cond-_Trac&#xE9;_transparent_5" d="M297,457.9h13v84.2h-13V457.9z"/> <path id="logo_rb_cond-_Trac&#xE9;_transparent_6" d="M378.6,457.9H391v84.2h-12.5l-38.7-61.3v61.3h-12.4v-84.2h12.5l38.7,61.3L378.6,457.9z"/> <path id="logo_rb_cond-_Trac&#xE9;_transparent_7" d="M421.4,530.2H457v11.9h-48.6v-84.2h47.4v11.9h-34.4v23.6h31.4v11.8h-31.4V530.2z"/> <path id="logo_rb_cond-_Trac&#xE9;_transparent_8" d="M539.8,498.3c4.7,1.5,8.3,4.2,10.8,8c2.6,3.8,3.8,8.3,3.8,13.4c0,6.7-2.3,12.1-7,16.2
		c-4.7,4.1-11.4,6.1-20.2,6.1H498v-84.2h30.2c7.5,0,13.5,1.9,17.8,5.8c4.3,3.9,6.5,9,6.5,15.3c0,4.7-1.2,8.7-3.6,12
		C546.5,494.5,543.4,496.9,539.8,498.3z M528.1,469.6h-17.3v23h17.4c4,0,7.1-1.1,9.3-3.2c2.2-2.1,3.3-4.9,3.3-8.4
		c0-3.4-1.1-6.1-3.3-8.2C535.3,470.6,532.2,469.6,528.1,469.6z M526.9,530.5c4.8,0,8.5-1.1,11-3.3c2.5-2.2,3.8-5.3,3.8-9.3
		c0-4.3-1.4-7.7-4.1-10s-6.8-3.5-12-3.5h-14.8v26.2H526.9z"/> <path id="logo_rb_cond-_Trac&#xE9;_transparent_9" d="M580.5,530.1h36.2v12h-49.2v-84.2h13V530.1z"/> <path id="logo_rb_cond-_Trac&#xE9;_transparent_10" d="M682.3,542.1l-7.3-21.2h-32.5l-7.3,21.2h-14l29.8-84.2h15.4l29.8,84.2H682.3z M646.6,509.1
		h24.3L658.8,474L646.6,509.1z"/> <path id="logo_rb_cond-_Trac&#xE9;_transparent_11" d="M756.8,457.9h12.4v84.2h-12.5l-38.7-61.3v61.3h-12.4v-84.2H718l38.7,61.3V457.9z"/> <path id="logo_rb_cond-_Trac&#xE9;_transparent_12" d="M844.5,483.3c-1.4-3.9-4-7.2-7.7-9.9c-3.7-2.6-8.4-4-14-4c-8.1,0-14.6,2.9-19.4,8.8
		c-4.8,5.9-7.2,13.1-7.2,21.7c0,8.5,2.4,15.7,7.2,21.7s11.2,9,19.3,9c5.9,0,10.8-1.4,14.6-4.1s6.6-6,8.2-9.6l12,5.7
		c-2.8,5.5-7.1,10.4-12.9,14.5c-5.8,4.1-13.1,6.2-21.9,6.2c-11.9,0-21.5-3.9-28.9-11.8c-7.4-7.9-11.1-18.3-11.1-31.4
		c0-13,3.7-23.5,11-31.4c7.3-8,16.8-12,28.4-12c9.1,0,16.5,2.1,22.4,6.2c5.9,4.1,9.9,9,12.1,14.7L844.5,483.3z"/> <path id="logo_rb_cond-_Trac&#xE9;_transparent_13" d="M920.8,457.9H934v84.2h-13.2v-36.7h-37.4v36.7h-13.2v-84.2h13.2v35.5h37.4V457.9z"/> <path id="logo_rb_cond-_Trac&#xE9;_transparent_14" d="M964.4,529.9h35.6v11.9h-48.6v-84.2h47.4v11.9h-34.4v23.6h31.4v11.8h-31.4V529.9z"/> </g> </symbol><symbol viewBox="741.1 459.4 258.9 81.1" id="logo_rb_cond2"><title>Plan de travail 3</title>  <path d="M772.3,474.7c-1.7,0-2.9,0.9-2.9,2.6c0,1.6,1.2,2.1,3.8,3.1c2.4,0.9,4.5,2.1,4.5,4.9c0,3.2-2.6,4.3-5.3,4.3
	c-3.5,0-5.5-2-5.9-4.5l2-0.6c0.4,2.1,1.8,3.3,4,3.3c1.5,0,3.1-0.6,3.1-2.5c0-1.9-1.8-2.7-3.7-3.4c-2.9-1.1-4.6-2.1-4.6-4.6
	c0-2.7,2.1-4.3,5-4.3c2.9,0,4.9,1.6,5.3,4.1l-1.8,0.6C775.4,475.7,774,474.7,772.3,474.7z"/> <path d="M788.8,474.9c-3.1,0-5.3,2.7-5.3,6.4c0,3.7,2.2,6.3,5.6,6.3c2.3,0,3.7-1.2,4.4-2.5l1.7,1c-0.9,1.7-2.9,3.5-6.2,3.5
	c-4.6,0-7.5-3.6-7.5-8.4c0-4.8,2.9-8.3,7.3-8.3c3.7,0,5.5,2.2,6.2,3.7l-1.6,0.9C792.7,476.3,791.3,474.9,788.8,474.9z"/> <path d="M829.2,478.9v10.4h-2.2v-10.2c0-2.6-1.3-4.3-3.8-4.3c-1.6,0-3.3,1.1-4.2,2.8v11.7h-2.1v-11.8l-0.8-4.2h2.1l0.4,2.4
	c0.9-1.4,2.6-2.7,5-2.7C827.1,472.9,829.2,475.4,829.2,478.9z"/> <path d="M847.8,481.9h-12c0.2,3.5,2.2,5.8,5.6,5.8c1.9,0,3.3-0.9,4.1-2.1l1.7,1.1c-1.1,1.8-3.4,2.9-5.9,2.9c-4.7,0-7.6-3.4-7.6-8.3
	c0-4.7,2.8-8.4,7.4-8.4C846.1,473,848.3,477.2,847.8,481.9z M841.1,474.8c-3.1,0-4.9,2.3-5.3,5.4h10
	C845.9,477.7,844.5,474.8,841.1,474.8L841.1,474.8z"/> <path d="M867.6,489.6c-4.2,0-7-3.6-7-8.3c0-4.9,2.7-8.4,7-8.4c2.2,0,4.1,1,5.2,2.9v-10.1h2.1V485l0.8,4.2h-2.1l-0.6-3.1
	C872.1,488.3,870.3,489.6,867.6,489.6z M872.9,481.9v-1.6c-0.3-3.5-2.4-5.4-5-5.4c-3.1,0-5.1,2.7-5.1,6.4c0,3.5,2,6.2,4.9,6.2
	C870.5,487.6,872.6,485.5,872.9,481.9z"/> <path d="M893.6,481.9h-12c0.2,3.5,2.2,5.8,5.6,5.8c1.9,0,3.3-0.9,4.1-2.1l1.7,1.1c-1.1,1.8-3.4,2.9-5.9,2.9c-4.7,0-7.6-3.4-7.6-8.3
	c0-4.7,2.8-8.4,7.4-8.4C891.9,473,894.1,477.2,893.6,481.9z M887,474.8c-3.1,0-4.9,2.3-5.3,5.4h10
	C891.7,477.7,890.3,474.8,887,474.8z"/> <path d="M902.8,474.7c-1.7,0-2.9,0.9-2.9,2.6c0,1.6,1.2,2.1,3.8,3.1c2.4,0.9,4.5,2.1,4.5,4.9c0,3.2-2.6,4.3-5.3,4.3
	c-3.5,0-5.5-2-5.9-4.5l2-0.6c0.4,2.1,1.8,3.3,4,3.3c1.5,0,3.1-0.6,3.1-2.5c0-1.9-1.8-2.7-3.7-3.4c-2.9-1.1-4.6-2.1-4.6-4.6
	c0-2.7,2.1-4.3,5-4.3c2.9,0,4.9,1.6,5.3,4.1l-1.8,0.6C905.9,475.7,904.5,474.7,902.8,474.7z"/> <path d="M928.6,489.6c-4.3,0-7-3.5-7-8.4c0-4.7,2.7-8.3,7-8.3c2.5,0,4.2,1.2,5.3,3v-2.7h2.1V485l0.8,4.2h-2.1l-0.6-3
	C932.9,488.4,931,489.6,928.6,489.6z M933.8,482.5v-2.2c-0.4-3.3-2.5-5.3-5.1-5.3c-2.9,0-4.9,2.8-4.9,6.2c0,3.8,2,6.4,5.1,6.4
	C931.3,487.6,933.4,485.8,933.8,482.5z"/> <path d="M943.9,489.3h-2.1v-11.8l-0.8-4.2h2.1l0.6,3l5.3-3.7v2.4l-5.1,3.5L943.9,489.3z"/> <path d="M956.5,489.3h-2.1v-14.2h-2.6v-1.8h2.6v-4.5l2.1-0.4v4.8h4.6v1.8h-4.6L956.5,489.3z"/> <path d="M968.9,474.7c-1.7,0-2.9,0.9-2.9,2.6c0,1.6,1.2,2.1,3.8,3.1c2.4,0.9,4.5,2.1,4.5,4.9c0,3.2-2.6,4.3-5.3,4.3
	c-3.5,0-5.5-2-5.9-4.5l2-0.6c0.4,2.1,1.8,3.3,4,3.3c1.5,0,3.1-0.6,3.1-2.5c0-1.9-1.8-2.7-3.7-3.4c-2.9-1.1-4.6-2.1-4.6-4.6
	c0-2.7,2.1-4.3,5-4.3c2.9,0,4.9,1.6,5.3,4.1l-1.8,0.6C972,475.7,970.6,474.7,968.9,474.7z"/> <path d="M780.7,523.4h-12c0.2,3.5,2.2,5.8,5.6,5.8c1.9,0,3.3-0.9,4.1-2.1l1.7,1.1c-1.1,1.8-3.4,2.9-5.9,2.9c-4.7,0-7.6-3.4-7.6-8.3
	c0-4.7,2.8-8.4,7.4-8.4C779,514.4,781.2,518.6,780.7,523.4z M774,516.3c-3.1,0-4.9,2.3-5.3,5.4h10
	C778.8,519.2,777.4,516.3,774,516.3z"/> <path d="M787.5,530.7h-2.1v-14.2h-2.6v-1.8h2.6v-4.5l2.1-0.4v4.8h4.5v1.8h-4.5L787.5,530.7z"/> <path d="M807.6,531c-4.2,0-7-3.6-7-8.3c0-4.9,2.7-8.4,7-8.4c2.2,0,4.1,1,5.2,2.9v-10.1h2.1v19.3l0.8,4.2h-2.1l-0.6-3.1
	C812.1,529.7,810.3,531,807.6,531z M812.9,523.4v-1.6c-0.3-3.5-2.4-5.4-5-5.4c-3.1,0-5.1,2.7-5.1,6.4c0,3.5,2,6.2,4.9,6.2
	C810.5,529.1,812.6,526.9,812.9,523.4z"/> <path d="M833,523.4h-12c0.2,3.5,2.2,5.8,5.6,5.8c1.9,0,3.3-0.9,4.1-2.1l1.7,1.1c-1.1,1.8-3.4,2.9-5.9,2.9c-4.7,0-7.6-3.4-7.6-8.3
	c0-4.7,2.8-8.4,7.4-8.4C831.3,514.4,833.5,518.6,833,523.4z M826.3,516.3c-3.1,0-4.9,2.3-5.3,5.4h10
	C831.1,519.2,829.7,516.3,826.3,516.3z"/> <path d="M841.6,516.1c-1.7,0-2.9,0.9-2.9,2.6c0,1.6,1.2,2.1,3.8,3.1c2.4,0.9,4.5,2.1,4.5,4.9c0,3.2-2.6,4.3-5.3,4.3
	c-3.5,0-5.5-2-5.9-4.5l2-0.6c0.4,2.1,1.8,3.3,4,3.3c1.5,0,3.1-0.6,3.1-2.5c0-1.9-1.8-2.7-3.7-3.4c-2.9-1.1-4.6-2.1-4.6-4.6
	c0-2.7,2.1-4.3,5-4.3c2.9,0,4.9,1.6,5.3,4.1L845,519C844.6,517.2,843.3,516.1,841.6,516.1z"/> <path d="M863.5,516.1c-1.7,0-2.9,0.9-2.9,2.6c0,1.6,1.2,2.1,3.8,3.1c2.4,0.9,4.5,2.1,4.5,4.9c0,3.2-2.6,4.3-5.3,4.3
	c-3.5,0-5.5-2-5.9-4.5l2-0.6c0.4,2.1,1.8,3.3,4,3.3c1.5,0,3.1-0.6,3.1-2.5c0-1.9-1.8-2.7-3.7-3.4c-2.9-1.1-4.6-2.1-4.6-4.6
	c0-2.7,2.1-4.3,5-4.3c2.9,0,4.9,1.6,5.3,4.1l-1.8,0.6C866.5,517.2,865.2,516.1,863.5,516.1z"/> <path d="M879.9,516.3c-3.1,0-5.3,2.7-5.3,6.4c0,3.7,2.2,6.3,5.6,6.3c2.3,0,3.7-1.2,4.4-2.5l1.7,1c-0.9,1.7-2.9,3.5-6.2,3.5
	c-4.6,0-7.5-3.6-7.5-8.4c0-4.8,2.9-8.3,7.3-8.3c3.7,0,5.5,2.2,6.2,3.7l-1.6,0.9C883.8,517.8,882.4,516.3,879.9,516.3z"/> <path d="M910.1,523.4h-12c0.2,3.5,2.2,5.8,5.6,5.8c1.9,0,3.3-0.9,4.1-2.1l1.7,1.1c-1.1,1.8-3.4,2.9-5.9,2.9c-4.7,0-7.6-3.4-7.6-8.3
	c0-4.7,2.8-8.4,7.4-8.4C908.3,514.4,910.5,518.6,910.1,523.4z M903.4,516.3c-3.1,0-4.9,2.3-5.3,5.4h10
	C908.1,519.2,906.8,516.3,903.4,516.3L903.4,516.3z"/> <path d="M926.4,520.3v10.4h-2.2v-10.2c0-2.6-1.3-4.3-3.8-4.3c-1.6,0-3.3,1.1-4.2,2.8v11.7h-2.1v-11.8l-0.8-4.2h2.1l0.4,2.4
	c0.9-1.4,2.6-2.7,5-2.7C924.2,514.4,926.4,516.8,926.4,520.3z"/> <path d="M937.6,516.3c-3.1,0-5.3,2.7-5.3,6.4c0,3.7,2.2,6.3,5.6,6.3c2.3,0,3.7-1.2,4.4-2.5l1.7,1c-0.9,1.7-2.9,3.5-6.2,3.5
	c-4.6,0-7.5-3.6-7.5-8.4c0-4.8,2.9-8.3,7.3-8.3c3.7,0,5.5,2.2,6.2,3.7l-1.6,0.9C941.5,517.8,940.1,516.3,937.6,516.3z"/> <path d="M960.4,523.4h-12c0.2,3.5,2.2,5.8,5.6,5.8c1.9,0,3.3-0.9,4.1-2.1l1.7,1.1c-1.1,1.8-3.4,2.9-5.9,2.9c-4.7,0-7.6-3.4-7.6-8.3
	c0-4.7,2.8-8.4,7.4-8.4C958.7,514.4,960.9,518.6,960.4,523.4z M953.7,516.3c-3.1,0-4.9,2.3-5.3,5.4h10
	C958.5,519.2,957.1,516.3,953.7,516.3L953.7,516.3z"/> <path d="M968.9,516.1c-1.7,0-2.9,0.9-2.9,2.6c0,1.6,1.2,2.1,3.8,3.1c2.4,0.9,4.5,2.1,4.5,4.9c0,3.2-2.6,4.3-5.3,4.3
	c-3.5,0-5.5-2-5.9-4.5l2-0.6c0.4,2.1,1.8,3.3,4,3.3c1.5,0,3.1-0.6,3.1-2.5c0-1.9-1.8-2.7-3.7-3.4c-2.9-1.1-4.6-2.1-4.6-4.6
	c0-2.7,2.1-4.3,5-4.3c2.9,0,4.9,1.6,5.3,4.1l-1.8,0.6C972,517.2,970.6,516.1,968.9,516.1z"/> <polygon points="805.5,471.1 807.9,471.1 803.6,465.8 801.1,465.8 "/> <path d="M805.5,473c-4.6,0-7.4,3.7-7.4,8.4c0,4.9,2.9,8.3,7.6,8.3c2.5,0,4.8-1.2,5.9-2.9l-1.7-1.1c-0.8,1.2-2.2,2.1-4.1,2.1
	c-3.4,0-5.4-2.3-5.6-5.8h12C812.7,477.2,810.5,473,805.5,473z M800.3,480.2c0.4-3.1,2.2-5.4,5.3-5.4c3.4,0,4.8,2.9,4.8,5.4H800.3z"/> <rect x="759.8" y="499.3" width="221.4" height="1.6"/> <path d="M748.4,530.2v-23.6c0-4.2-2.3-5.8-5-6.6c2.7-0.8,5-2.4,5-6.6v-23.6c0-6.1,2.7-8.7,9.2-8.7h2.2v-1.6h-2.2
	c-7.3,0-10.8,3.4-10.8,10.3v23.6c0,3.7-2,4.8-5.7,5.5v2.3c3.7,0.7,5.7,1.8,5.7,5.5v23.6c0,7,3.5,10.4,10.8,10.4h2.2v-1.6h-2.2
	C751.2,538.9,748.4,536.3,748.4,530.2z"/> <path d="M994.3,493.4v-23.6c0-7-3.5-10.3-10.8-10.3h-2.2v1.6h2.2c6.4,0,9.2,2.6,9.2,8.7v23.6c0,4.2,2.3,5.8,5,6.6
	c-2.7,0.8-5,2.4-5,6.6v23.6c0,6.1-2.7,8.7-9.2,8.7h-2.2v1.6h2.2c7.3,0,10.8-3.4,10.8-10.4v-23.6c0-3.7,2-4.8,5.7-5.5v-2.3
	C996.3,498.2,994.3,497.1,994.3,493.4z"/> <rect x="889.9" y="507.2" width="2.1" height="3.7"/> <rect x="889.9" y="514.7" width="2.1" height="16"/> </symbol><symbol viewBox="459 0 82 1000" id="logo_rb_v"><title>Plan de travail 3</title> <g>  <path id="logo_rb_v-_Trac&#xE9;_transparent_" d="M522.3,990.7v-26h8.6v35.3h-60.4v-9.3H522.3z"/> <path id="logo_rb_v-_Trac&#xE9;_transparent_2" d="M530.9,917.6l-15.2,5.3v23.3l15.2,5.3v10L470.5,940V929l60.4-21.4V917.6z M507.2,943.2v-17.4
		l-25.2,8.7L507.2,943.2z"/> <path id="logo_rb_v-_Trac&#xE9;_transparent_3" d="M530.9,838.7v12l-23.1,22.4h23v9h-60.4v-19.4c0-6.3,1.6-11.2,4.8-14.6
		c3.2-3.4,7.5-5.1,12.8-5.1c5.5,0,9.7,1.7,12.7,5.1c3,3.4,4.4,8.2,4.4,14.5v1.2L530.9,838.7z M478.9,862.7v10.5h18.8v-10.4
		c0-3.4-0.9-6-2.6-7.8s-4.1-2.7-7-2.7c-2.8,0-5.1,0.9-6.7,2.7C479.8,856.7,478.9,859.3,478.9,862.7L478.9,862.7z"/> <path id="logo_rb_v-_Trac&#xE9;_transparent_4" d="M522.4,823v-25.6h8.5v34.9h-60.4v-34h8.5V823h16.9v-22.5h8.5V823H522.4z"/> <path id="logo_rb_v-_Trac&#xE9;_transparent_5" d="M470.5,786.7v-9.3h60.4v9.3H470.5z"/> <path id="logo_rb_v-_Trac&#xE9;_transparent_6" d="M470.5,728.1v-8.9h60.4v9l-44,27.8h44v8.9h-60.4v-9l44-27.8L470.5,728.1z"/> <path id="logo_rb_v-_Trac&#xE9;_transparent_7" d="M522.4,697.3v-25.6h8.5v34.9h-60.4v-34h8.5v24.7h16.9v-22.5h8.5v22.5H522.4z"/> <path id="logo_rb_v-_Trac&#xE9;_transparent_8" d="M499.5,612.4c1.1-3.3,3-5.9,5.7-7.8c2.7-1.8,5.9-2.8,9.6-2.8c4.8,0,8.7,1.7,11.7,5
		c2.9,3.3,4.4,8.2,4.4,14.5v21h-60.4v-21.7c0-5.4,1.4-9.7,4.2-12.8s6.5-4.7,11-4.7c3.3,0,6.2,0.9,8.6,2.6
		C496.7,607.6,498.4,609.7,499.5,612.4z M478.8,620.8v12.4h16.5v-12.5c0-2.9-0.8-5.1-2.3-6.7c-1.5-1.6-3.5-2.4-6-2.4
		c-2.4,0-4.4,0.8-5.9,2.4C479.6,615.6,478.8,617.8,478.8,620.8z M522.6,621.6c0-3.5-0.8-6.1-2.4-7.9c-1.6-1.8-3.8-2.7-6.7-2.7
		c-3.1,0-5.5,1-7.2,3s-2.5,4.8-2.5,8.6v10.6h18.8V621.6z"/> <path id="logo_rb_v-_Trac&#xE9;_transparent_9" d="M522.3,583.1v-26h8.6v35.3h-60.4v-9.3H522.3z"/> <path id="logo_rb_v-_Trac&#xE9;_transparent_10" d="M530.9,510l-15.2,5.3v23.3l15.2,5.3v10l-60.4-21.4v-11.1l60.4-21.4V510z M507.2,535.6v-17.4
		l-25.2,8.7L507.2,535.6z"/> <path id="logo_rb_v-_Trac&#xE9;_transparent_11" d="M470.5,456.6v-8.9h60.4v9l-44,27.8h44v8.9h-60.4v-9l44-27.8H470.5z"/> <path id="logo_rb_v-_Trac&#xE9;_transparent_12" d="M488.7,393.5c-2.8,1-5.2,2.9-7.1,5.6c-1.9,2.7-2.8,6-2.8,10.1c0,5.8,2.1,10.4,6.3,13.9
		s9.4,5.2,15.6,5.2c6.1,0,11.3-1.7,15.6-5.1c4.3-3.4,6.4-8,6.4-13.9c0-4.3-1-7.8-3-10.5c-2-2.7-4.3-4.7-6.9-5.9l4.1-8.6
		c4,2,7.4,5.1,10.4,9.3c3,4.2,4.4,9.4,4.4,15.8c0,8.5-2.8,15.4-8.5,20.8c-5.6,5.3-13.2,8-22.5,8c-9.3,0-16.9-2.6-22.6-7.9
		c-5.7-5.3-8.6-12.1-8.6-20.4c0-6.5,1.5-11.9,4.4-16.1c3-4.2,6.5-7.1,10.6-8.7L488.7,393.5z"/> <path id="logo_rb_v-_Trac&#xE9;_transparent_13" d="M470.5,338.8v-9.5h60.4v9.5h-26.3v26.9h26.3v9.5h-60.4v-9.5h25.5v-26.9H470.5z"/> <path id="logo_rb_v-_Trac&#xE9;_transparent_14" d="M522.2,307.4v-25.6h8.5v34.9h-60.4v-34h8.5v24.7h16.9v-22.5h8.5v22.5H522.2z"/> <path d="M474.7,227.7c0,1.7,0.9,2.9,2.6,2.9c1.6,0,2.1-1.2,3.1-3.8c0.9-2.4,2.1-4.5,4.9-4.5c3.2,0,4.3,2.6,4.3,5.3
		c0,3.5-2,5.5-4.5,5.9l-0.6-2c2.1-0.4,3.3-1.8,3.3-4c0-1.5-0.6-3.1-2.5-3.1c-1.9,0-2.7,1.8-3.4,3.7c-1.1,2.9-2.1,4.6-4.6,4.6
		c-2.7,0-4.3-2.1-4.3-5c0-2.9,1.6-4.9,4.1-5.3l0.6,1.8C475.7,224.6,474.7,226,474.7,227.7z"/> <path d="M474.9,211.2c0,3.1,2.7,5.3,6.4,5.3c3.7,0,6.3-2.2,6.3-5.6c0-2.3-1.2-3.7-2.5-4.4l1-1.7c1.7,0.9,3.5,2.9,3.5,6.2
		c0,4.6-3.6,7.5-8.4,7.5c-4.8,0-8.3-2.9-8.3-7.3c0-3.7,2.2-5.5,3.7-6.2l0.9,1.6C476.3,207.3,474.9,208.7,474.9,211.2z"/> <path d="M478.9,170.8h10.4v2.2h-10.2c-2.6,0-4.3,1.3-4.3,3.8c0,1.6,1.1,3.3,2.8,4.2h11.7v2.1h-11.8l-4.2,0.8v-2.1l2.4-0.4
		c-1.4-0.9-2.7-2.6-2.7-5C472.9,172.9,475.4,170.8,478.9,170.8z"/> <path d="M481.9,152.2v12c3.5-0.2,5.8-2.2,5.8-5.6c0-1.9-0.9-3.3-2.1-4.1l1.1-1.7c1.8,1.1,2.9,3.4,2.9,5.9c0,4.7-3.4,7.6-8.3,7.6
		c-4.7,0-8.4-2.8-8.4-7.4C473,153.9,477.2,151.7,481.9,152.2z M474.8,158.9c0,3.1,2.3,4.9,5.4,5.3v-10
		C477.7,154.1,474.8,155.5,474.8,158.9L474.8,158.9z"/> <path d="M489.6,132.4c0,4.2-3.6,7-8.3,7c-4.9,0-8.4-2.7-8.4-7c0-2.2,1-4.1,2.9-5.2h-10.1V125H485l4.2-0.8v2.1l-3.1,0.6
		C488.3,127.9,489.6,129.7,489.6,132.4z M481.9,127.1h-1.6c-3.5,0.3-5.4,2.4-5.4,5c0,3.1,2.7,5.1,6.4,5.1c3.5,0,6.2-2,6.2-4.9
		C487.6,129.5,485.5,127.4,481.9,127.1z"/> <path d="M481.9,106.4v12c3.5-0.2,5.8-2.2,5.8-5.6c0-1.9-0.9-3.3-2.1-4.1l1.1-1.7c1.8,1.1,2.9,3.4,2.9,5.9c0,4.7-3.4,7.6-8.3,7.6
		c-4.7,0-8.4-2.8-8.4-7.4C473,108.1,477.2,105.9,481.9,106.4z M474.8,113c0,3.1,2.3,4.9,5.4,5.3v-10
		C477.7,108.3,474.8,109.7,474.8,113z"/> <path d="M474.7,97.2c0,1.7,0.9,2.9,2.6,2.9c1.6,0,2.1-1.2,3.1-3.8c0.9-2.4,2.1-4.5,4.9-4.5c3.2,0,4.3,2.6,4.3,5.3
		c0,3.5-2,5.5-4.5,5.9l-0.6-2c2.1-0.4,3.3-1.8,3.3-4c0-1.5-0.6-3.1-2.5-3.1c-1.9,0-2.7,1.8-3.4,3.7c-1.1,2.9-2.1,4.6-4.6,4.6
		c-2.7,0-4.3-2.1-4.3-5c0-2.9,1.6-4.9,4.1-5.3l0.6,1.8C475.7,94.1,474.7,95.5,474.7,97.2z"/> <path d="M489.6,71.4c0,4.3-3.5,7-8.4,7c-4.7,0-8.3-2.7-8.3-7c0-2.5,1.2-4.2,3-5.3h-2.7V64H485l4.2-0.8v2.1l-3,0.6
		C488.4,67.1,489.6,69,489.6,71.4z M482.5,66.2h-2.2c-3.3,0.4-5.3,2.5-5.3,5.1c0,2.9,2.8,4.9,6.2,4.9c3.8,0,6.4-2,6.4-5.1
		C487.6,68.7,485.8,66.6,482.5,66.2z"/> <path d="M489.3,56.1v2.1h-11.8l-4.2,0.8v-2.1l3-0.6l-3.7-5.3h2.4l3.5,5.1L489.3,56.1z"/> <path d="M489.3,43.5v2.1h-14.2v2.6h-1.8v-2.6h-4.5l-0.4-2.1h4.8V39h1.8v4.6L489.3,43.5z"/> <path d="M474.7,31.1c0,1.7,0.9,2.9,2.6,2.9c1.6,0,2.1-1.2,3.1-3.8c0.9-2.4,2.1-4.5,4.9-4.5c3.2,0,4.3,2.6,4.3,5.3
		c0,3.5-2,5.5-4.5,5.9l-0.6-2c2.1-0.4,3.3-1.8,3.3-4c0-1.5-0.6-3.1-2.5-3.1c-1.9,0-2.7,1.8-3.4,3.7c-1.1,2.9-2.1,4.6-4.6,4.6
		c-2.7,0-4.3-2.1-4.3-5c0-2.9,1.6-4.9,4.1-5.3l0.6,1.8C475.7,28,474.7,29.4,474.7,31.1z"/> <path d="M523.4,219.3v12c3.5-0.2,5.8-2.2,5.8-5.6c0-1.9-0.9-3.3-2.1-4.1l1.1-1.7c1.8,1.1,2.9,3.4,2.9,5.9c0,4.7-3.4,7.6-8.3,7.6
		c-4.7,0-8.4-2.8-8.4-7.4C514.4,221,518.6,218.8,523.4,219.3z M516.3,226c0,3.1,2.3,4.9,5.4,5.3v-10
		C519.2,221.2,516.3,222.6,516.3,226z"/> <path d="M530.7,212.5v2.1h-14.2v2.6h-1.8v-2.6h-4.5l-0.4-2.1h4.8V208h1.8v4.5L530.7,212.5z"/> <path d="M531,192.4c0,4.2-3.6,7-8.3,7c-4.9,0-8.4-2.7-8.4-7c0-2.2,1-4.1,2.9-5.2h-10.1v-2.1h19.3l4.2-0.8v2.1l-3.1,0.6
		C529.7,187.9,531,189.7,531,192.4z M523.4,187.1h-1.6c-3.5,0.3-5.4,2.4-5.4,5c0,3.1,2.7,5.1,6.4,5.1c3.5,0,6.2-2,6.2-4.9
		C529.1,189.5,526.9,187.4,523.4,187.1z"/> <path d="M523.4,167v12c3.5-0.2,5.8-2.2,5.8-5.6c0-1.9-0.9-3.3-2.1-4.1l1.1-1.7c1.8,1.1,2.9,3.4,2.9,5.9c0,4.7-3.4,7.6-8.3,7.6
		c-4.7,0-8.4-2.8-8.4-7.4C514.4,168.7,518.6,166.5,523.4,167z M516.3,173.7c0,3.1,2.3,4.9,5.4,5.3v-10
		C519.2,168.9,516.3,170.3,516.3,173.7z"/> <path d="M516.1,158.4c0,1.7,0.9,2.9,2.6,2.9c1.6,0,2.1-1.2,3.1-3.8c0.9-2.4,2.1-4.5,4.9-4.5c3.2,0,4.3,2.6,4.3,5.3
		c0,3.5-2,5.5-4.5,5.9l-0.6-2c2.1-0.4,3.3-1.8,3.3-4c0-1.5-0.6-3.1-2.5-3.1c-1.9,0-2.7,1.8-3.4,3.7c-1.1,2.9-2.1,4.6-4.6,4.6
		c-2.7,0-4.3-2.1-4.3-5c0-2.9,1.6-4.9,4.1-5.3l0.6,1.8C517.2,155.4,516.1,156.7,516.1,158.4z"/> <path d="M516.1,136.5c0,1.7,0.9,2.9,2.6,2.9c1.6,0,2.1-1.2,3.1-3.8c0.9-2.4,2.1-4.5,4.9-4.5c3.2,0,4.3,2.6,4.3,5.3
		c0,3.5-2,5.5-4.5,5.9l-0.6-2c2.1-0.4,3.3-1.8,3.3-4c0-1.5-0.6-3.1-2.5-3.1c-1.9,0-2.7,1.8-3.4,3.7c-1.1,2.9-2.1,4.6-4.6,4.6
		c-2.7,0-4.3-2.1-4.3-5c0-2.9,1.6-4.9,4.1-5.3l0.6,1.8C517.2,133.5,516.1,134.8,516.1,136.5z"/> <path d="M516.3,120.1c0,3.1,2.7,5.3,6.4,5.3c3.7,0,6.3-2.2,6.3-5.6c0-2.3-1.2-3.7-2.5-4.4l1-1.7c1.7,0.9,3.5,2.9,3.5,6.2
		c0,4.6-3.6,7.5-8.4,7.5c-4.8,0-8.3-2.9-8.3-7.3c0-3.7,2.2-5.5,3.7-6.2l0.9,1.6C517.8,116.2,516.3,117.6,516.3,120.1z"/> <path d="M523.4,89.9v12c3.5-0.2,5.8-2.2,5.8-5.6c0-1.9-0.9-3.3-2.1-4.1l1.1-1.7c1.8,1.1,2.9,3.4,2.9,5.9c0,4.7-3.4,7.6-8.3,7.6
		c-4.7,0-8.4-2.8-8.4-7.4C514.4,91.7,518.6,89.5,523.4,89.9z M516.3,96.6c0,3.1,2.3,4.9,5.4,5.3v-10
		C519.2,91.9,516.3,93.2,516.3,96.6L516.3,96.6z"/> <path d="M520.3,73.6h10.4v2.2h-10.2c-2.6,0-4.3,1.3-4.3,3.8c0,1.6,1.1,3.3,2.8,4.2h11.7v2.1h-11.8l-4.2,0.8v-2.1l2.4-0.4
		c-1.4-0.9-2.7-2.6-2.7-5C514.4,75.8,516.8,73.6,520.3,73.6z"/> <path d="M516.3,62.4c0,3.1,2.7,5.3,6.4,5.3c3.7,0,6.3-2.2,6.3-5.6c0-2.3-1.2-3.7-2.5-4.4l1-1.7c1.7,0.9,3.5,2.9,3.5,6.2
		c0,4.6-3.6,7.5-8.4,7.5c-4.8,0-8.3-2.9-8.3-7.3c0-3.7,2.2-5.5,3.7-6.2l0.9,1.6C517.8,58.5,516.3,59.9,516.3,62.4z"/> <path d="M523.4,39.6v12c3.5-0.2,5.8-2.2,5.8-5.6c0-1.9-0.9-3.3-2.1-4.1l1.1-1.7c1.8,1.1,2.9,3.4,2.9,5.9c0,4.7-3.4,7.6-8.3,7.6
		c-4.7,0-8.4-2.8-8.4-7.4C514.4,41.3,518.6,39.1,523.4,39.6z M516.3,46.3c0,3.1,2.3,4.9,5.4,5.3v-10
		C519.2,41.5,516.3,42.9,516.3,46.3L516.3,46.3z"/> <path d="M516.1,31.1c0,1.7,0.9,2.9,2.6,2.9c1.6,0,2.1-1.2,3.1-3.8c0.9-2.4,2.1-4.5,4.9-4.5c3.2,0,4.3,2.6,4.3,5.3
		c0,3.5-2,5.5-4.5,5.9l-0.6-2c2.1-0.4,3.3-1.8,3.3-4c0-1.5-0.6-3.1-2.5-3.1c-1.9,0-2.7,1.8-3.4,3.7c-1.1,2.9-2.1,4.6-4.6,4.6
		c-2.7,0-4.3-2.1-4.3-5c0-2.9,1.6-4.9,4.1-5.3l0.6,1.8C517.2,28,516.1,29.4,516.1,31.1z"/> <polygon points="471.1,194.5 471.1,192.1 465.8,196.4 465.8,198.9 	"/> <path d="M473,194.5c0,4.6,3.7,7.4,8.4,7.4c4.9,0,8.3-2.9,8.3-7.6c0-2.5-1.2-4.8-2.9-5.9l-1.1,1.7c1.2,0.8,2.1,2.2,2.1,4.1
		c0,3.4-2.3,5.4-5.8,5.6v-12C477.2,187.3,473,189.5,473,194.5z M480.2,199.7c-3.1-0.4-5.4-2.2-5.4-5.3c0-3.4,2.9-4.8,5.4-4.8V199.7z
		"/> <rect x="499.3" y="18.8" width="1.6" height="221.4"/> <path d="M530.2,251.6h-23.6c-4.2,0-5.8,2.3-6.6,5c-0.8-2.7-2.4-5-6.6-5h-23.6c-6.1,0-8.7-2.7-8.7-9.2v-2.2h-1.6v2.2
		c0,7.3,3.4,10.8,10.3,10.8h23.6c3.7,0,4.8,2,5.5,5.7h2.3c0.7-3.7,1.8-5.7,5.5-5.7h23.6c7,0,10.4-3.5,10.4-10.8v-2.2h-1.6v2.2
		C538.9,248.8,536.3,251.6,530.2,251.6z"/> <path d="M493.4,5.7h-23.6c-7,0-10.3,3.5-10.3,10.8v2.2h1.6v-2.2c0-6.4,2.6-9.2,8.7-9.2h23.6c4.2,0,5.8-2.3,6.6-5
		c0.8,2.7,2.4,5,6.6,5h23.6c6.1,0,8.7,2.7,8.7,9.2v2.2h1.6v-2.2c0-7.3-3.4-10.8-10.4-10.8h-23.6c-3.7,0-4.8-2-5.5-5.7l-2.3,0
		C498.2,3.7,497.1,5.7,493.4,5.7z"/> <rect x="507.2" y="107.9" width="3.7" height="2.1"/> <rect x="514.7" y="107.9" width="16" height="2.1"/> </g> </symbol><symbol viewBox="0 0 7982.78 647.79" id="logo_rb"><title>Plan de travail 3</title><path id="logo_rb-_Trac&#xE9;_transparent_" data-name="&lt;Trac&#xE9; transparent&gt;" class="cls-1" d="M74.45,501.63H281.93v68.94H0V88.05H74.45Z"/><path id="logo_rb-_Trac&#xE9;_transparent_2" data-name="&lt;Trac&#xE9; transparent&gt;" class="cls-1" d="M658,570.57,616,449.25H429.88l-42,121.32h-80L478.82,88.05h88.23L738,570.57ZM453.32,381.69H592.55L522.94,180.42Z"/><path id="logo_rb-_Trac&#xE9;_transparent_3" data-name="&lt;Trac&#xE9; transparent&gt;" class="cls-1" d="M1287.36,570.57h-95.81L1013,386.53v184H941.33V88.05h155.1q75.81,0,116.49,38.6t40.67,102q0,65.49-40.33,101T1097.8,365.15h-9.64Zm-190.93-415H1013V305.87h83.41q40.66,0,62.38-21t21.71-55.49q0-33.77-21.71-53.77T1096.43,155.61Z"/><path id="logo_rb-_Trac&#xE9;_transparent_4" data-name="&lt;Trac&#xE9; transparent&gt;" class="cls-1" d="M1412.82,502.32h204v68.25H1338.37V88.05H1610V156.3H1412.82V291.4h179.91V359H1412.82Z"/><path id="logo_rb-_Trac&#xE9;_transparent_5" data-name="&lt;Trac&#xE9; transparent&gt;" class="cls-1" d="M1702.6,88.05h74.45V570.57H1702.6Z"/><path id="logo_rb-_Trac&#xE9;_transparent_6" data-name="&lt;Trac&#xE9; transparent&gt;" class="cls-1" d="M2170.63,88.05h71V570.57h-71.68L1948,219V570.57h-71V88.05h71.68l222,351.55Z"/><path id="logo_rb-_Trac&#xE9;_transparent_7" data-name="&lt;Trac&#xE9; transparent&gt;" class="cls-1" d="M2416,502.32h204v68.25H2341.57V88.05h271.58V156.3H2416V291.4h179.9V359H2416Z"/><path id="logo_rb-_Trac&#xE9;_transparent_8" data-name="&lt;Trac&#xE9; transparent&gt;" class="cls-1" d="M3094.28,319.66q40,13.09,62,45.84t22.06,76.86q0,57.9-40,93t-115.8,35.16h-167.5V88.05h173q64.77,0,102,33.43t37.23,87.89q0,40-20.68,68.93T3094.28,319.66Zm-66.86-164.75h-99.26V286.58h100q34.44,0,53.42-18.27t18.95-47.92q0-28.93-18.95-47.21T3027.42,154.91Zm-6.89,349.48q41.35,0,63.06-18.95T3105.3,432q0-37.22-23.77-57.56t-68.6-20.34h-84.77V504.39Z"/><path id="logo_rb-_Trac&#xE9;_transparent_9" data-name="&lt;Trac&#xE9; transparent&gt;" class="cls-1" d="M3327.94,501.63h207.48v68.94H3253.5V88.05h74.44Z"/><path id="logo_rb-_Trac&#xE9;_transparent_10" data-name="&lt;Trac&#xE9; transparent&gt;" class="cls-1" d="M3911.54,570.57l-42-121.32H3683.38l-42.06,121.32h-80l171-482.52h88.22l171,482.52ZM3706.81,381.69h139.25l-69.62-201.27Z"/><path id="logo_rb-_Trac&#xE9;_transparent_11" data-name="&lt;Trac&#xE9; transparent&gt;" class="cls-1" d="M4338.21,88.05h71V570.57h-71.69L4115.57,219V570.57h-71V88.05h71.69L4338.21,439.6Z"/><path id="logo_rb-_Trac&#xE9;_transparent_12" data-name="&lt;Trac&#xE9; transparent&gt;" class="cls-1" d="M4841.4,233.49Q4829,199.72,4797,177t-80.31-22.75q-69.63,0-111,50.66t-41.36,124.43q0,73.07,41,124.42T4716,505.08q51,0,83.74-23.77t47.22-54.81l68.93,32.4q-24.15,47.57-74.1,83.06T4716,577.46q-102,0-165.79-67.56T4486.41,330q0-111.65,63.08-180.25t163-68.58q77.86,0,128.21,35.5t69.61,84.44Z"/><path id="logo_rb-_Trac&#xE9;_transparent_13" data-name="&lt;Trac&#xE9; transparent&gt;" class="cls-1" d="M5278.4,88.05h75.82V570.57H5278.4V360.33H5064V570.57h-75.82V88.05H5064V291.4H5278.4Z"/><path id="logo_rb-_Trac&#xE9;_transparent_14" data-name="&lt;Trac&#xE9; transparent&gt;" class="cls-1" d="M5528.61,500.9h204v68.24H5454.17V86.63h271.59v68.24H5528.61V290h179.92v67.55H5528.61Z"/><path class="cls-1" d="M6165.49,121.89c-13.3,0-23,7.44-23,20.74,0,12.52,9.45,16.37,30.7,24.55,19.17,7.17,36.05,16.62,36.05,39.4,0,25.31-21,34.27-42.19,34.27-27.63,0-43.76-16.13-47.34-36.32l15.62-4.87c2.8,16.37,14,26.6,31.72,26.6,12,0,25.07-4.61,25.07-19.68,0-15.35-14.6-21.49-29.43-27.39-23.27-8.94-37.08-17.12-37.08-36.83,0-21.73,16.88-34.52,39.63-34.52,23,0,39.4,13,42.22,32.47l-14.32,4.61C6190.05,130.08,6179,121.89,6165.49,121.89Z"/><path class="cls-1" d="M6297,123.43c-24.83,0-42.22,21.24-42.22,51.43,0,29.16,17.39,50.38,44.5,50.38,18.18,0,29.44-9.72,34.79-20l13.82,7.95c-7.17,13.54-23,27.62-49.63,27.62-36.56,0-60.1-28.65-60.1-66.77,0-38.37,23-66.24,58.57-66.24,29.43,0,44,17.39,49.38,29.91L6333,145.19C6327.88,135,6316.63,123.43,6297,123.43Z"/><path class="cls-1" d="M6619.68,155.42V238.3h-17.39V157.19c0-20.46-10.75-34.52-30.19-34.52-13,0-26.33,8.7-33.76,22.52V238.3h-17.13V144.16l-6.14-33.76H6532l3.58,18.93c6.89-11.53,21-21.49,39.63-21.49C6602.29,107.84,6619.68,127.52,6619.68,155.42Z"/><path class="cls-1" d="M6768,179.46h-95.67c1.53,27.63,17.64,46,44.75,46,15.11,0,26.6-7.17,33-16.38l13.3,8.43c-8.69,14.33-26.87,23.54-47.06,23.54-37.35,0-60.88-27.12-60.88-66,0-37.86,22-67,58.83-67C6753.93,108.08,6771.84,141.85,6768,179.46Zm-53.48-56.54c-24.55,0-39.12,18.17-41.95,43h80.08C6752.67,145.94,6741.66,122.92,6714.54,122.92Z"/><path class="cls-1" d="M6925.88,240.85c-33.76,0-55.52-28.65-55.52-66.26,0-38.88,21.76-66.75,56-66.75,17.9,0,32.74,7.91,41.68,23.53V50.54h17.15v154l6.14,33.77h-16.88l-4.61-25.07C6961.7,230.11,6947.1,240.85,6925.88,240.85Zm42.2-61.15V166.91c-2.29-28.13-19.44-43.21-39.64-43.21-25.07,0-40.93,21.49-40.93,51.4,0,27.63,15.86,49.89,39.4,49.89C6948.64,225,6965.79,207.84,6968.08,179.7Z"/><path class="cls-1" d="M7133.81,179.46h-95.67c1.53,27.63,17.63,46,44.75,46,15.1,0,26.6-7.17,33-16.38l13.3,8.43c-8.69,14.33-26.87,23.54-47.06,23.54-37.35,0-60.88-27.12-60.88-66,0-37.86,22-67,58.83-67C7119.72,108.08,7137.63,141.85,7133.81,179.46Zm-53.48-56.54c-24.56,0-39.12,18.17-41.95,43h80.08C7118.46,145.94,7107.45,122.92,7080.33,122.92Z"/><path class="cls-1" d="M7206.91,121.89c-13.3,0-23,7.44-23,20.74,0,12.52,9.48,16.37,30.69,24.55,19.2,7.17,36.09,16.62,36.09,39.4,0,25.31-21,34.27-42.22,34.27-27.63,0-43.73-16.13-47.31-36.32l15.59-4.87c2.82,16.37,14.08,26.6,31.72,26.6,12,0,25.06-4.61,25.06-19.68,0-15.35-14.56-21.49-29.4-27.39-23.29-8.94-37.1-17.12-37.1-36.83,0-21.73,16.88-34.52,39.66-34.52,23,0,39.39,13,42.19,32.47l-14.32,4.61C7231.47,130.08,7220.48,121.89,7206.91,121.89Z"/><path class="cls-1" d="M7412.89,240.85c-34.27,0-56-27.89-56-66.77,0-37.59,21.73-66.24,55.49-66.24,19.71,0,33.53,9.21,41.95,23.77V110.4h17.16v94.13l6.13,33.77h-16.88l-4.6-23.81C7447.44,231.64,7432.09,240.85,7412.89,240.85Zm41.44-56.54V166.4c-3.07-26.6-19.95-42.7-40.92-42.7-23.54,0-39.4,22.24-39.4,49.87,0,29.94,15.86,51.42,40.93,51.42C7434.65,225,7451.26,210.91,7454.33,184.31Z"/><path class="cls-1" d="M7535.14,238.3H7518V144.16l-6.14-33.76h16.88l4.6,24,42.22-29.67v19.44l-40.41,28.14Z"/><path class="cls-1" d="M7635.38,238.3H7619V125h-21V110.4h21V74.83l16.37-3.07V110.4h36.33V125h-36.33Z"/><path class="cls-1" d="M7734.85,121.89c-13.3,0-23,7.44-23,20.74,0,12.52,9.48,16.37,30.69,24.55,19.2,7.17,36.08,16.62,36.08,39.4,0,25.31-21,34.27-42.22,34.27-27.62,0-43.72-16.13-47.31-36.32l15.59-4.87c2.83,16.37,14.09,26.6,31.72,26.6,12,0,25.07-4.61,25.07-19.68,0-15.35-14.57-21.49-29.4-27.39-23.29-8.94-37.11-17.12-37.11-36.83,0-21.73,16.89-34.52,39.67-34.52,23,0,39.39,13,42.19,32.47l-14.33,4.61C7759.41,130.08,7748.42,121.89,7734.85,121.89Z"/><path class="cls-1" d="M6232.24,510.33h-95.67c1.54,27.62,17.67,46,44.78,46,15.08,0,26.61-7.16,33-16.37l13.3,8.43c-8.7,14.32-26.85,23.53-47.07,23.53-37.34,0-60.88-27.11-60.88-66,0-37.86,22-67,58.84-67C6218.19,439,6236.09,472.71,6232.24,510.33Zm-53.45-56.55c-24.55,0-39.15,18.18-41.95,43h80.06C6216.9,476.81,6205.91,453.78,6178.79,453.78Z"/><path class="cls-1" d="M6286.18,569.16H6269.8V455.83h-21V441.26h21V405.69l16.38-3.07v38.64h36.32v14.57h-36.32Z"/><path class="cls-1" d="M6447.19,571.72c-33.76,0-55.52-28.65-55.52-66.26,0-38.89,21.76-66.75,56-66.75,17.91,0,32.75,7.91,41.69,23.53V381.41h17.15v154l6.14,33.76h-16.89l-4.6-25.07C6483,561,6468.41,571.72,6447.19,571.72Zm42.2-61.15V497.78c-2.29-28.14-19.44-43.22-39.64-43.22-25.07,0-40.93,21.49-40.93,51.41,0,27.62,15.86,49.89,39.4,49.89C6470,555.86,6487.1,538.71,6489.39,510.57Z"/><path class="cls-1" d="M6650,510.33h-95.67c1.54,27.62,17.64,46,44.75,46,15.11,0,26.61-7.16,33-16.37l13.31,8.43c-8.7,14.32-26.88,23.53-47.07,23.53-37.35,0-60.88-27.11-60.88-66,0-37.86,22-67,58.83-67C6635.92,439,6653.82,472.71,6650,510.33Zm-53.48-56.55c-24.55,0-39.12,18.18-42,43h80.08C6634.65,476.81,6623.64,453.78,6596.52,453.78Z"/><path class="cls-1" d="M6718,452.76c-13.3,0-23,7.43-23,20.73,0,12.52,9.47,16.37,30.69,24.56,19.2,7.16,36.08,16.61,36.08,39.39,0,25.31-21,34.28-42.22,34.28-27.62,0-43.72-16.13-47.31-36.32l15.59-4.88c2.83,16.37,14.09,26.61,31.72,26.61,12,0,25.07-4.61,25.07-19.69,0-15.34-14.57-21.48-29.4-27.38-23.29-8.94-37.11-17.13-37.11-36.84,0-21.72,16.89-34.51,39.67-34.51,23,0,39.39,13,42.19,32.47l-14.33,4.6C6742.54,461,6731.56,452.76,6718,452.76Z"/><path class="cls-1" d="M6892.74,452.76c-13.3,0-23,7.43-23,20.73,0,12.52,9.47,16.37,30.69,24.56,19.2,7.16,36.08,16.61,36.08,39.39,0,25.31-21,34.28-42.22,34.28-27.62,0-43.73-16.13-47.31-36.32l15.59-4.88c2.83,16.37,14.09,26.61,31.72,26.61,12,0,25.07-4.61,25.07-19.69,0-15.34-14.57-21.48-29.4-27.38-23.29-8.94-37.11-17.13-37.11-36.84,0-21.72,16.89-34.51,39.67-34.51,23,0,39.39,13,42.19,32.47l-14.33,4.6C6917.29,461,6906.31,452.76,6892.74,452.76Z"/><path class="cls-1" d="M7024.19,454.3c-24.8,0-42.19,21.24-42.19,51.42,0,29.17,17.39,50.38,44.51,50.38,18.14,0,29.4-9.72,34.78-20l13.82,7.94c-7.16,13.55-23,27.63-49.63,27.63-36.59,0-60.12-28.65-60.12-66.78,0-38.37,23-66.23,58.59-66.23,29.4,0,44,17.39,49.35,29.91l-13,7.43C7055.16,465.82,7043.9,454.3,7024.19,454.3Z"/><path class="cls-1" d="M7264.86,510.33h-95.67c1.53,27.62,17.66,46,44.78,46,15.07,0,26.6-7.16,33-16.37l13.3,8.43c-8.7,14.32-26.84,23.53-47.07,23.53-37.34,0-60.88-27.11-60.88-66,0-37.86,22-67,58.84-67C7250.8,439,7268.71,472.71,7264.86,510.33Zm-53.45-56.55c-24.56,0-39.15,18.18-41.95,43h80.05C7249.51,476.81,7238.52,453.78,7211.41,453.78Z"/><path class="cls-1" d="M7395.28,486.28v82.88h-17.39v-81.1c0-20.46-10.74-34.52-30.18-34.52-13.06,0-26.36,8.7-33.77,22.51v93.11h-17.15V475l-6.14-33.77h16.88l3.58,18.93c6.92-11.52,21-21.48,39.67-21.48C7377.89,438.71,7395.28,458.39,7395.28,486.28Z"/><path class="cls-1" d="M7484.76,454.3c-24.8,0-42.19,21.24-42.19,51.42,0,29.17,17.39,50.38,44.51,50.38,18.14,0,29.4-9.72,34.78-20l13.82,7.94c-7.17,13.55-23,27.63-49.63,27.63-36.59,0-60.12-28.65-60.12-66.78,0-38.37,23-66.23,58.59-66.23,29.4,0,44,17.39,49.35,29.91l-13,7.43C7515.73,465.82,7504.47,454.3,7484.76,454.3Z"/><path class="cls-1" d="M7666.86,510.33h-95.67c1.54,27.62,17.67,46,44.78,46,15.08,0,26.6-7.16,33-16.37l13.31,8.43c-8.7,14.32-26.85,23.53-47.07,23.53-37.35,0-60.88-27.11-60.88-66,0-37.86,22-67,58.83-67C7652.81,439,7670.71,472.71,7666.86,510.33Zm-53.45-56.55c-24.55,0-39.15,18.18-41.95,43h80.05C7651.51,476.81,7640.53,453.78,7613.41,453.78Z"/><path class="cls-1" d="M7734.88,452.76c-13.31,0-23,7.43-23,20.73,0,12.52,9.46,16.37,30.7,24.56,19.17,7.16,36.05,16.61,36.05,39.39,0,25.31-21,34.28-42.19,34.28-27.63,0-43.75-16.13-47.34-36.32l15.62-4.88c2.8,16.37,14.06,26.61,31.72,26.61,12,0,25.07-4.61,25.07-19.69,0-15.34-14.6-21.48-29.43-27.38-23.27-8.94-37.08-17.13-37.08-36.84,0-21.72,16.88-34.51,39.64-34.51,23,0,39.39,13,42.22,32.47l-14.33,4.6C7759.43,461,7748.42,452.76,7734.88,452.76Z"/><polygon class="cls-1" points="6430.47 93.25 6449.4 93.25 6415.28 50.54 6395.4 50.54 6430.47 93.25"/><path class="cls-1" d="M6430.45,108.08c-36.84,0-58.84,29.16-58.84,67,0,38.88,23.54,66,60.88,66,20.2,0,38.37-9.21,47.07-23.54l-13.3-8.43c-6.41,9.21-17.91,16.38-33,16.38-27.12,0-43.22-18.42-44.76-46h95.67C6488,141.85,6470.08,108.08,6430.45,108.08Zm-41.71,57.81c2.82-24.8,17.39-43,41.95-43,27.11,0,38.12,23,38.12,43Z"/><rect class="cls-1" x="6065.46" y="318.06" width="1767.61" height="13.09"/><path class="cls-1" d="M5974.67,565.16V376.59c0-33.85-18.49-46.48-40-52.7,21.47-6.2,40-18.82,40-52.69V82.62c0-48.73,21.85-69.53,73.06-69.53h17.73V0h-17.73c-58,0-86.15,27-86.15,82.62V271.2c0,29.54-16.13,38.19-45.83,43.51v18.36c29.7,5.34,45.83,14,45.83,43.52V565.16c0,55.61,28.18,82.63,86.15,82.63h17.73V634.7h-17.73C5996.52,634.7,5974.67,613.9,5974.67,565.16Z"/><path class="cls-1" d="M7937,271.2V82.62C7937,27,7908.78,0,7850.81,0h-17.74V13.09h17.74c51.21,0,73.06,20.8,73.06,69.53V271.2c0,33.87,18.48,46.49,40,52.69-21.48,6.22-40,18.85-40,52.7V565.16c0,48.74-21.85,69.54-73.06,69.54h-17.74v13.09h17.74c58,0,86.15-27,86.15-82.63V376.59c0-29.54,16.12-38.18,45.82-43.52V314.71C7953.08,309.39,7937,300.75,7937,271.2Z"/><rect class="cls-1" x="7104.24" y="381.41" width="16.88" height="29.93"/><rect class="cls-1" x="7103.97" y="441.26" width="17.15" height="127.9"/></symbol><symbol viewBox="0 913 1000 87" id="logo_sb_cond"><title>Plan de travail 3</title>  <g> <g> <polygon points="0,998.5 0,914.4 13,914.4 13,986.5 49.1,986.5 49.1,998.5 		"/> </g> <g> <path d="M67.3,998.5H53.3l29.8-84.1h15.4l29.8,84.1h-13.9l-7.3-21.1H74.6L67.3,998.5z M78.7,965.6h24.3l-12.1-35.1L78.7,965.6z"/> </g> <g> <path d="M189.8,924.6c-6.8,0-13,3.5-13,10.7c0,7.4,5.6,10.3,18.9,15.4c10.8,4,24.1,10.7,24.1,26.1c0,17.2-14.4,23.1-28.8,23.1
			c-18,0-28.8-9.7-31.2-23.4l13.2-3.6c1.7,9.5,8,15.4,18.4,15.4c7.6,0,14-2.9,14-11.2c0-9.2-9.4-12.7-19.9-17.1
			c-13.6-5.5-22.2-11.3-22.2-23.9c0-14.6,12-22.7,26.7-22.7c15.5,0,26.4,8.4,28.5,21.6l-12,3.2C204.6,929.4,198.1,924.6,189.8,924.6
			"/> </g> <g> <path d="M235.5,998.5h-13.9l29.8-84.1h15.4l29.8,84.1h-13.9l-7.3-21.1h-32.4L235.5,998.5z M246.9,965.6h24.3L259,930.5
			L246.9,965.6z"/> </g> <g> <polygon points="303.1,998.5 303.1,914.4 316.1,914.4 316.1,986.5 350.1,986.5 350.1,998.5 		"/> </g> <g> <polygon points="356.9,998.5 356.9,914.4 369.9,914.4 369.9,986.5 403.9,986.5 403.9,998.5 		"/> </g> <g> <polygon points="410.5,998.5 410.5,914.4 457.9,914.4 457.9,926.3 423.5,926.3 423.5,949.8 454.9,949.8 454.9,961.6 423.5,961.6 
			423.5,986.6 459.1,986.6 459.1,998.5 		"/> </g> <g> <path d="M554.3,976.1c0,13-8.9,22.3-27.1,22.3H498v-84.1h30.1c15.4,0,24.3,8.8,24.3,21.1c0,9.8-5.9,16.6-12.7,19.2
			C549.1,957.9,554.3,966,554.3,976.1 M528.2,949c8.3,0,12.6-4.9,12.6-11.5c0-6.5-4.3-11.4-12.7-11.4h-17.3V949H528.2z M541.6,974.3
			c0-8.5-5.5-13.6-16.1-13.6h-14.8v26.2h16.1C536.6,986.9,541.6,982.3,541.6,974.3"/> </g> <g> <polygon points="567.5,998.5 567.5,914.4 580.4,914.4 580.4,986.5 616.6,986.5 616.6,998.5 		"/> </g> <g> <path d="M635.2,998.5h-13.9l29.8-84.1h15.4l29.8,84.1h-13.9l-7.3-21.1h-32.4L635.2,998.5z M646.6,965.6h24.3l-12.1-35.1
			L646.6,965.6z"/> </g> <g> <polygon points="756.6,998.5 717.9,937.2 717.9,998.5 705.5,998.5 705.5,914.4 718,914.4 756.7,975.7 756.7,914.4 769,914.4 
			769,998.5 		"/> </g> <g> <path d="M822.4,925.9c-16.7,0-26.5,14.1-26.5,30.5c0,16.1,9.5,30.6,26.4,30.6c13.2,0,20.2-8,22.8-13.7l12,5.6
			c-4.6,9-15.3,20.7-34.8,20.7c-23.5,0-40-16.7-40-43.1c0-26.1,16.3-43.4,39.4-43.4c19.7,0,30.6,11.2,34.5,20.9l-12,5.6
			C841.5,932.5,834.3,925.9,822.4,925.9"/> </g> <g> <polygon points="920.8,998.5 920.8,961.8 883.5,961.8 883.5,998.5 870.2,998.5 870.2,914.4 883.5,914.4 883.5,949.8 920.8,949.8 
			920.8,914.4 934,914.4 934,998.5 		"/> </g> <g> <polygon points="951.5,998.5 951.5,914.4 998.8,914.4 998.8,926.3 964.5,926.3 964.5,949.8 995.8,949.8 995.8,961.6 964.5,961.6 
			964.5,986.6 1000,986.6 1000,998.5 		"/> </g> </g> </symbol><symbol viewBox="1021 81 79 1000" id="logo_sb_v"><title>logo_sb_v</title> <g> <g> <polygon points="1087.9,1081 1029.6,1081 1029.6,1072 1079.5,1072 1079.5,1047 1087.9,1047 		"/> </g> <g> <path d="M1087.9,1034.4v9.6l-58.2-20.6v-10.7l58.2-20.6v9.6l-14.6,5.1v22.5L1087.9,1034.4z M1065.1,1026.5v-16.8l-24.3,8.4
			L1065.1,1026.5z"/> </g> <g> <g> <path d="M1036.7,949.5c0,4.7,2.4,9,7.4,9c5.2,0,7.2-3.9,10.6-13.1c2.7-7.5,7.4-16.7,18.1-16.7c11.9,0,16,10,16,20
				c0,12.5-6.7,20-16.2,21.6l-2.5-9.2c6.6-1.2,10.7-5.6,10.7-12.7c0-5.2-2-9.7-7.7-9.7c-6.4,0-8.8,6.5-11.8,13.8
				c-3.8,9.4-7.8,15.4-16.6,15.4c-10.1,0-15.7-8.3-15.7-18.5c0-10.7,5.8-18.3,15-19.7l2.2,8.3C1040,939.2,1036.7,943.7,1036.7,949.5
				"/> </g> <g> <path d="M1087.9,917.8v9.6l-58.2-20.6v-10.7l58.2-20.6v9.6l-14.6,5.1v22.5L1087.9,917.8z M1065.1,909.9v-16.8l-24.3,8.4
				L1065.1,909.9z"/> </g> <g> <polygon points="1087.9,871 1029.6,871 1029.6,862 1079.5,862 1079.5,838.4 1087.9,838.4 			"/> </g> <g> <polygon points="1087.9,833.7 1029.6,833.7 1029.6,824.7 1079.5,824.7 1079.5,801.2 1087.9,801.2 			"/> </g> <g> <polygon points="1087.9,796.6 1029.6,796.6 1029.6,763.8 1037.9,763.8 1037.9,787.6 1054.2,787.6 1054.2,765.9 1062.3,765.9 
				1062.3,787.6 1079.6,787.6 1079.6,762.9 1087.9,762.9 			"/> </g> <g> <path d="M1072.4,696.9c9,0,15.5,6.2,15.5,18.8V736h-58.2v-20.9c0-10.7,6.1-16.8,14.6-16.8c6.8,0,11.5,4.1,13.3,8.8
				C1059.7,700.6,1065.4,696.9,1072.4,696.9 M1053.6,715.1c0-5.7-3.4-8.7-8-8.7c-4.5,0-7.9,3-7.9,8.8v12h15.9V715.1z M1071.1,705.8
				c-5.9,0-9.4,3.8-9.4,11.2v10.2h18.1V716C1079.9,709.2,1076.6,705.8,1071.1,705.8"/> </g> <g> <polygon points="1087.9,687.8 1029.6,687.8 1029.6,678.9 1079.5,678.9 1079.5,653.8 1087.9,653.8 			"/> </g> <g> <path d="M1087.9,640.9v9.6l-58.2-20.6v-10.6l58.2-20.6v9.6l-14.6,5.1v22.5L1087.9,640.9z M1065.1,633v-16.8l-24.3,8.4L1065.1,633
				z"/> </g> <g> <polygon points="1087.9,556.8 1045.4,583.6 1087.9,583.6 1087.9,592.2 1029.6,592.2 1029.6,583.5 1072,556.8 1029.6,556.8 
				1029.6,548.2 1087.9,548.2 			"/> </g> <g> <path d="M1037.6,511.2c0,11.6,9.7,18.4,21.1,18.4c11.2,0,21.2-6.6,21.2-18.3c0-9.2-5.6-14-9.5-15.8l3.9-8.3
				c6.2,3.2,14.3,10.6,14.3,24.1c0,16.3-11.6,27.7-29.9,27.7c-18.1,0-30-11.3-30-27.3c0-13.6,7.7-21.2,14.5-23.9l3.9,8.3
				C1042.2,498,1037.6,503,1037.6,511.2"/> </g> <g> <polygon points="1087.9,443 1062.5,443 1062.5,468.9 1087.9,468.9 1087.9,478.1 1029.6,478.1 1029.6,468.9 1054.2,468.9 
				1054.2,443 1029.6,443 1029.6,433.9 1087.9,433.9 			"/> </g> <g> <polygon points="1087.9,421.8 1029.6,421.8 1029.6,389 1037.9,389 1037.9,412.8 1054.2,412.8 1054.2,391.1 1062.3,391.1 
				1062.3,412.8 1079.6,412.8 1079.6,388.2 1087.9,388.2 			"/> </g> <g> <rect x="1058.7" y="93.6" width="1.5" height="259.2"/> </g> <g> <rect x="1067.1" y="343.4" width="23" height="2.1"/> </g> <g> <path d="M1090.4,327.8c0,4.2-3.4,6.9-8.2,6.9c-4.6,0-8.1-2.7-8.1-6.8c0-2.4,1.1-4.1,2.9-5.1h-2.6v-2.1h11.5l4.1-0.8v2.1l-2.9,0.6
				C1089.3,323.6,1090.4,325.5,1090.4,327.8 M1083.5,322.7h-2.2c-3.3,0.4-5.2,2.4-5.2,5c0,2.9,2.7,4.8,6.1,4.8c3.7,0,6.3-1.9,6.3-5
				C1088.5,325.2,1086.8,323.1,1083.5,322.7"/> </g> <g> <path d="M1076,309.6c0,3,2.6,5.2,6.3,5.2c3.6,0,6.2-2.1,6.2-5.5c0-2.2-1.2-3.6-2.4-4.3l1-1.7c1.7,0.9,3.4,2.8,3.4,6.1
				c0,4.5-3.5,7.4-8.2,7.4c-4.7,0-8.1-2.8-8.1-7.2c0-3.6,2.1-5.4,3.7-6.1l0.9,1.6C1077.4,305.8,1076,307.2,1076,309.6"/> </g> <g> <polygon points="1090.1,296.8 1090.1,298.8 1076.2,298.8 1076.2,301.4 1074.4,301.4 1074.4,298.8 1070.1,298.8 1069.7,296.8 
				1074.4,296.8 1074.4,292.3 1076.2,292.3 1076.2,296.8 			"/> </g> <g> <path d="M1082.9,277.9v11.7c3.4-0.2,5.6-2.2,5.6-5.5c0-1.9-0.9-3.3-2-4l1-1.6c1.8,1.1,2.9,3.3,2.9,5.8c0,4.6-3.3,7.5-8.1,7.5
				c-4.6,0-8.2-2.7-8.2-7.2C1074.1,279.6,1078.3,277.4,1082.9,277.9 M1076,284.4c0,3,2.2,4.8,5.3,5.1v-9.8
				C1078.8,279.8,1076,281.1,1076,284.4"/> </g> <g> <path d="M1090.4,269.1c0,3.3-2.4,5.5-5.8,5.5h-10.2v-2.1h9.9c2.5,0,4.2-1.3,4.2-3.7c0-1.6-1.1-3.2-2.8-4.1h-11.4v-2.1h11.5
				l4.1-0.8v2.1l-2.3,0.4C1089.2,265.1,1090.4,266.8,1090.4,269.1"/> </g> <g> <polygon points="1090.1,255.2 1090.1,257.3 1078.6,257.3 1074.4,258.1 1074.4,256 1077.4,255.4 1073.7,250.2 1076.1,250.2 
				1079.6,255.2 			"/> </g> <g> <rect x="1081" y="237.5" width="1.9" height="9.8"/> </g> <g> <path d="M1076,226.1c0,3,2.6,5.2,6.3,5.2c3.6,0,6.2-2.1,6.2-5.5c0-2.2-1.2-3.6-2.4-4.3l1-1.7c1.7,0.9,3.4,2.8,3.4,6.1
				c0,4.5-3.5,7.4-8.2,7.4c-4.7,0-8.1-2.8-8.1-7.2c0-3.6,2.1-5.4,3.7-6.1l0.9,1.6C1077.4,222.3,1076,223.7,1076,226.1"/> </g> <g> <path d="M1079.9,204.2h10.2v2.1h-9.9c-2.5,0-4.2,1.3-4.2,3.7c0,1.6,1.1,3.3,2.8,4.2h11.4v2.1h-23v-2.1h9.2
				c-1.2-0.9-2.2-2.5-2.2-4.5C1074.1,206.3,1076.5,204.2,1079.9,204.2"/> </g> <g> <path d="M1082.9,186.6v11.7c3.4-0.2,5.6-2.2,5.6-5.5c0-1.9-0.9-3.3-2-4l1-1.6c1.8,1.1,2.9,3.3,2.9,5.8c0,4.6-3.3,7.5-8.1,7.5
				c-4.6,0-8.2-2.7-8.2-7.2C1074.1,188.4,1078.3,186.2,1082.9,186.6 M1076,193.2c0,3,2.2,4.8,5.3,5.1v-9.8
				C1078.8,188.5,1076,189.9,1076,193.2"/> </g> <g> <polygon points="1090.1,180.6 1090.1,182.7 1078.6,182.7 1074.4,183.5 1074.4,181.4 1077.4,180.8 1073.7,175.7 1076.1,175.7 
				1079.6,180.6 			"/> </g> <g> <path d="M1076,166.7c0,3,2.6,5.2,6.3,5.2c3.6,0,6.2-2.1,6.2-5.5c0-2.2-1.2-3.6-2.4-4.3l1-1.7c1.7,0.9,3.4,2.8,3.4,6.1
				c0,4.5-3.5,7.4-8.2,7.4c-4.7,0-8.1-2.8-8.1-7.2c0-3.6,2.1-5.4,3.7-6.1l0.9,1.6C1077.4,162.9,1076,164.3,1076,166.7"/> </g> <g> <path d="M1079.9,144.8h10.2v2.1h-9.9c-2.5,0-4.2,1.3-4.2,3.7c0,1.6,1.1,3.3,2.8,4.2h11.4v2.1h-23v-2.1h9.2
				c-1.2-0.9-2.2-2.5-2.2-4.5C1074.1,147,1076.5,144.8,1079.9,144.8"/> </g> <g> <path d="M1082.9,127.3V139c3.4-0.2,5.6-2.2,5.6-5.5c0-1.8-0.9-3.3-2-4l1-1.6c1.8,1.1,2.9,3.3,2.9,5.8c0,4.6-3.3,7.5-8.1,7.5
				c-4.6,0-8.2-2.7-8.2-7.2C1074.1,129,1078.3,126.8,1082.9,127.3 M1076,133.8c0,3,2.2,4.8,5.3,5.1v-9.8
				C1078.8,129.1,1076,130.5,1076,133.8"/> </g> <g> <path d="M1090.4,117.8c0,3.3-2.4,5.5-5.8,5.5h-10.2v-2.1h9.9c2.5,0,4.2-1.3,4.2-3.7c0-1.6-1.1-3.2-2.8-4.1h-11.4v-2.1h11.5
				l4.1-0.8v2.1l-2.3,0.4C1089.2,113.8,1090.4,115.5,1090.4,117.8"/> </g> <g> <polygon points="1090.1,104 1090.1,106.1 1078.6,106.1 1074.4,106.9 1074.4,104.8 1077.4,104.3 1073.7,99.1 1076.1,99.1 
				1079.6,104 			"/> </g> <g> <rect x="1027.1" y="304" width="22.7" height="2.1"/> </g> <g> <rect x="1027.1" y="343.4" width="22.7" height="2.1"/> </g> <g> <path d="M1050.1,292c0,4.1-3.4,6.8-8.1,6.8c-4.6,0-8-2.6-8-6.7c0-2.4,1.1-4.1,2.9-5.1h-2.6v-2.1h11.4l4.1-0.7v2l-2.9,0.6
				C1049,287.8,1050.1,289.7,1050.1,292 M1043.3,287h-2.2c-3.2,0.4-5.2,2.4-5.2,5c0,2.8,2.7,4.8,6,4.8c3.6,0,6.2-1.9,6.2-5
				C1048.2,289.4,1046.5,287.4,1043.3,287"/> </g> <g> <path d="M1042.1,264.2c4.5,0,8,2.6,8,6.7c0,2.6-1.3,4.3-3.3,5.3l3,0.6v2l-4.1-0.7h-18.6V276h9.8c-1.9-1.1-2.8-2.9-2.8-5
				C1034,266.8,1037.4,264.2,1042.1,264.2 M1042.2,266.3c-3.6,0-6.2,1.9-6.2,5c0,2.4,1.8,4.5,5.2,4.8h1.5c3.4-0.3,5.5-2.4,5.5-5
				C1048.2,268.2,1045.5,266.3,1042.2,266.3"/> </g> <g> <path d="M1042.1,260.1c-4.6,0-8-3-8-7.5c0-4.5,3.5-7.5,8-7.5c4.5,0,8,3,8,7.5C1050.1,257.2,1046.6,260.1,1042.1,260.1
				 M1042.1,247.3c-3.5,0-6.2,2.3-6.2,5.4c0,3.1,2.7,5.4,6.2,5.4c3.5,0,6.2-2.3,6.2-5.4C1048.3,249.6,1045.6,247.3,1042.1,247.3"/> </g> <g> <polygon points="1049.8,238.2 1049.8,240.2 1038.4,240.2 1034.3,241 1034.3,238.9 1037.2,238.4 1033.7,233.3 1036,233.3 
				1039.4,238.2 			"/> </g> <g> <path d="M1050.1,223c0,4.1-3.4,6.8-8.1,6.8c-4.6,0-8-2.6-8-6.7c0-2.4,1.1-4.1,2.9-5.1h-2.6v-2.1h11.4l4.1-0.7v2l-2.9,0.6
				C1049,218.9,1050.1,220.7,1050.1,223 M1043.3,218h-2.2c-3.2,0.4-5.2,2.4-5.2,5c0,2.8,2.7,4.8,6,4.8c3.6,0,6.2-1.9,6.2-5
				C1048.2,220.4,1046.5,218.4,1043.3,218"/> </g> <g> <polygon points="1050.1,206.4 1050.1,208.4 1036.2,208.4 1036.2,210.9 1034.4,210.9 1034.4,208.4 1030.1,208.4 1029.7,206.4 
				1034.4,206.4 1034.4,201.9 1036.2,201.9 1036.2,206.4 			"/> </g> <g> <path d="M1042.3,199.5c-4.6,0-8.2-3-8.2-7.6c0-4.5,3.5-7.6,8.2-7.6c4.6,0,8.2,3,8.2,7.6C1050.4,196.5,1046.9,199.5,1042.3,199.5
				 M1042.3,186.5c-3.6,0-6.3,2.3-6.3,5.5c0,3.1,2.7,5.5,6.3,5.5c3.5,0,6.3-2.3,6.3-5.5C1048.6,188.8,1045.8,186.5,1042.3,186.5"/> </g> <g> <polygon points="1050.1,168.4 1050.1,170.5 1038.6,170.5 1034.4,171.3 1034.4,169.2 1037.4,168.6 1033.7,163.4 1036.1,163.4 
				1039.6,168.4 			"/> </g> <g> <path d="M1042.9,146.5v11.7c3.4-0.2,5.6-2.2,5.6-5.5c0-1.9-0.9-3.3-2-4l1-1.6c1.8,1.1,2.9,3.3,2.9,5.8c0,4.6-3.3,7.5-8.1,7.5
				c-4.6,0-8.2-2.7-8.2-7.2C1034.2,148.2,1038.3,146,1042.9,146.5 M1036,153c0,3,2.2,4.8,5.3,5.1v-9.8
				C1038.8,148.3,1036,149.7,1036,153"/> </g> <g> <path d="M1042.9,324.1v11.7c3.4-0.2,5.6-2.2,5.6-5.5c0-1.8-0.9-3.3-2-4l1-1.6c1.8,1.1,2.9,3.3,2.9,5.8c0,4.6-3.3,7.5-8.1,7.5
				c-4.6,0-8.2-2.7-8.2-7.2C1034.2,325.8,1038.3,323.6,1042.9,324.1 M1036,330.7c0,3,2.2,4.8,5.3,5.1V326
				C1038.8,326,1036,327.3,1036,330.7"/> </g> <g> <path d="M1050.4,125c0,4.1-3.5,6.8-8.1,6.8c-4.8,0-8.2-2.7-8.2-6.9c0-2.2,1-4,2.9-5.1h-9.9v-2.1h18.9l4.1-0.8v2.1l-3.1,0.6
				C1049.1,120.6,1050.4,122.4,1050.4,125 M1042.9,119.8h-1.6c-3.5,0.3-5.3,2.4-5.3,4.9c0,3.1,2.6,5,6.3,5c3.4,0,6.1-1.9,6.1-4.8
				C1048.5,122.2,1046.4,120.1,1042.9,119.8"/> </g> <g> <path d="M1042.9,99.1v11.7c3.4-0.2,5.6-2.2,5.6-5.5c0-1.8-0.9-3.3-2-4l1-1.6c1.8,1.1,2.9,3.3,2.9,5.8c0,4.6-3.3,7.5-8.1,7.5
				c-4.6,0-8.2-2.7-8.2-7.2C1034.2,100.8,1038.3,98.6,1042.9,99.1 M1036,105.6c0,3,2.2,4.8,5.3,5.1V101
				C1038.8,101,1036,102.3,1036,105.6"/> </g> <g> <polygon points="1099.6,365.4 1021.4,365.4 1021.4,352.8 1022.4,352.8 1022.4,364.4 1098.6,364.4 1098.6,352.8 1099.6,352.8 			
				"/> </g> <g> <polygon points="1099.6,93.6 1098.6,93.6 1098.6,82 1022.4,82 1022.4,93.6 1021.4,93.6 1021.4,81 1099.6,81 			"/> </g> <g> <polygon points="1067.1,336 1072.2,338.7 1072.2,336.6 1067.1,333.8 			"/> </g> <g> <rect x="1027.4" y="177.4" width="3.6" height="2"/> </g> <g> <rect x="1034.7" y="177.4" width="15.5" height="2.1"/> </g> <g> <rect x="1027.1" y="304" width="22.7" height="2.1"/> </g> <g> <rect x="1027.1" y="343.4" width="22.7" height="2.1"/> </g> <g> <path d="M1050.1,292c0,4.1-3.4,6.8-8.1,6.8c-4.6,0-8-2.6-8-6.7c0-2.4,1.1-4.1,2.9-5.1h-2.6v-2.1h11.4l4.1-0.7v2l-2.9,0.6
				C1049,287.8,1050.1,289.7,1050.1,292 M1043.3,287h-2.2c-3.2,0.4-5.2,2.4-5.2,5c0,2.8,2.7,4.8,6,4.8c3.6,0,6.2-1.9,6.2-5
				C1048.2,289.4,1046.5,287.4,1043.3,287"/> </g> <g> <path d="M1042.1,264.2c4.5,0,8,2.6,8,6.7c0,2.6-1.3,4.3-3.3,5.3l3,0.6v2l-4.1-0.7h-18.6V276h9.8c-1.9-1.1-2.8-2.9-2.8-5
				C1034,266.8,1037.4,264.2,1042.1,264.2 M1042.2,266.3c-3.6,0-6.2,1.9-6.2,5c0,2.4,1.8,4.5,5.2,4.8h1.5c3.4-0.3,5.5-2.4,5.5-5
				C1048.2,268.2,1045.5,266.3,1042.2,266.3"/> </g> <g> <path d="M1042.1,260.1c-4.6,0-8-3-8-7.5c0-4.5,3.5-7.5,8-7.5c4.5,0,8,3,8,7.5C1050.1,257.2,1046.6,260.1,1042.1,260.1
				 M1042.1,247.3c-3.5,0-6.2,2.3-6.2,5.4c0,3.1,2.7,5.4,6.2,5.4c3.5,0,6.2-2.3,6.2-5.4C1048.3,249.6,1045.6,247.3,1042.1,247.3"/> </g> <g> <polygon points="1049.8,238.2 1049.8,240.2 1038.4,240.2 1034.3,241 1034.3,238.9 1037.2,238.4 1033.7,233.3 1036,233.3 
				1039.4,238.2 			"/> </g> <g> <path d="M1050.1,223c0,4.1-3.4,6.8-8.1,6.8c-4.6,0-8-2.6-8-6.7c0-2.4,1.1-4.1,2.9-5.1h-2.6v-2.1h11.4l4.1-0.7v2l-2.9,0.6
				C1049,218.9,1050.1,220.7,1050.1,223 M1043.3,218h-2.2c-3.2,0.4-5.2,2.4-5.2,5c0,2.8,2.7,4.8,6,4.8c3.6,0,6.2-1.9,6.2-5
				C1048.2,220.4,1046.5,218.4,1043.3,218"/> </g> <g> <polygon points="1050.1,206.4 1050.1,208.4 1036.2,208.4 1036.2,210.9 1034.4,210.9 1034.4,208.4 1030.1,208.4 1029.7,206.4 
				1034.4,206.4 1034.4,201.9 1036.2,201.9 1036.2,206.4 			"/> </g> <g> <path d="M1042.3,199.5c-4.6,0-8.2-3-8.2-7.6c0-4.5,3.5-7.6,8.2-7.6c4.6,0,8.2,3,8.2,7.6C1050.4,196.5,1046.9,199.5,1042.3,199.5
				 M1042.3,186.5c-3.6,0-6.3,2.3-6.3,5.5c0,3.1,2.7,5.5,6.3,5.5c3.5,0,6.3-2.3,6.3-5.5C1048.6,188.8,1045.8,186.5,1042.3,186.5"/> </g> <g> <polygon points="1050.1,168.4 1050.1,170.5 1038.6,170.5 1034.4,171.3 1034.4,169.2 1037.4,168.6 1033.7,163.4 1036.1,163.4 
				1039.6,168.4 			"/> </g> <g> <path d="M1042.9,146.5v11.7c3.4-0.2,5.6-2.2,5.6-5.5c0-1.9-0.9-3.3-2-4l1-1.6c1.8,1.1,2.9,3.3,2.9,5.8c0,4.6-3.3,7.5-8.1,7.5
				c-4.6,0-8.2-2.7-8.2-7.2C1034.2,148.2,1038.3,146,1042.9,146.5 M1036,153c0,3,2.2,4.8,5.3,5.1v-9.8
				C1038.8,148.3,1036,149.7,1036,153"/> </g> <g> <path d="M1042.9,324.1v11.7c3.4-0.2,5.6-2.2,5.6-5.5c0-1.8-0.9-3.3-2-4l1-1.6c1.8,1.1,2.9,3.3,2.9,5.8c0,4.6-3.3,7.5-8.1,7.5
				c-4.6,0-8.2-2.7-8.2-7.2C1034.2,325.8,1038.3,323.6,1042.9,324.1 M1036,330.7c0,3,2.2,4.8,5.3,5.1V326
				C1038.8,326,1036,327.3,1036,330.7"/> </g> <g> <path d="M1050.4,125c0,4.1-3.5,6.8-8.1,6.8c-4.8,0-8.2-2.7-8.2-6.9c0-2.2,1-4,2.9-5.1h-9.9v-2.1h18.9l4.1-0.8v2.1l-3.1,0.6
				C1049.1,120.6,1050.4,122.4,1050.4,125 M1042.9,119.8h-1.6c-3.5,0.3-5.3,2.4-5.3,4.9c0,3.1,2.6,5,6.3,5c3.4,0,6.1-1.9,6.1-4.8
				C1048.5,122.2,1046.4,120.1,1042.9,119.8"/> </g> <g> <path d="M1042.9,99.1v11.7c3.4-0.2,5.6-2.2,5.6-5.5c0-1.8-0.9-3.3-2-4l1-1.6c1.8,1.1,2.9,3.3,2.9,5.8c0,4.6-3.3,7.5-8.1,7.5
				c-4.6,0-8.2-2.7-8.2-7.2C1034.2,100.8,1038.3,98.6,1042.9,99.1 M1036,105.6c0,3,2.2,4.8,5.3,5.1V101
				C1038.8,101,1036,102.3,1036,105.6"/> </g> <g> <rect x="1027.4" y="177.4" width="3.6" height="2"/> </g> <g> <rect x="1034.7" y="177.4" width="15.5" height="2.1"/> </g> </g> </g> </symbol><symbol viewBox="0 0 1000 1000" id="maison"><title>maison</title> <path fill="none" stroke="#000" stroke-width="13" stroke-miterlimit="10" d="M500.1 588.2s120.4-217.9 162-364.5c3.7-13.7 5.4-27.9 5.3-42C672.1 89.3 601 10.7 508.8 6S337.9 72.4 333.2 164.7c-.3 5.6-.3 11.3 0 16.9.2 14.9 2.1 29.6 5.7 44 32.8 143.2 161.2 362.6 161.2 362.6z"/> <path fill="none" stroke="#000" stroke-width="13" stroke-miterlimit="10" d="M438.2 181.6c-.2-34.2 27.3-62.1 61.5-62.3s62.1 27.3 62.3 61.5-27.3 62.1-61.5 62.3h-.4c-34.1.1-61.8-27.4-61.9-61.5zM709.7 985.6H290.3V688.3l40.5-100.1h338.4l40.5 100.1zM291.1 688.3h417.8"/> <path fill="none" stroke="#000" stroke-width="13" stroke-miterlimit="10" d="M346.6 742.2h307.2v70.6H346.6zM449 986.8V869.7h102.4v117.1M346.6 812.7v-70.5M449 742.2v70.5M551.4 742.2v70.5M653.8 742.2v70.5"/> </symbol><symbol viewBox="0 0 49.02 69.99" id="rencontres"><title>rencontres</title>  <path fill="none" stroke="#1d1d1b" stroke-miterlimit="10" stroke-width="2px" d="M17.67 2.57C22.36.57 26.41.4 28 2.52c2.37 3.14-1.6 10.13-8.87 15.61S4.05 25.5 1.69 22.36c-1.55-2-.4-5.72 2.58-9.54"/> <path fill="none" stroke="#1d1d1b" stroke-miterlimit="10" stroke-width="2px" d="M6.11 18.1C2.94 14 4 7.88 8.44 4.43s10.64-2.92 13.82 1.18"/> <path fill="none" stroke="#1d1d1b" stroke-miterlimit="10" stroke-width="2px" d="M22.18 5.56c1.33 1.75-1.22 5.92-5.7 9.32S7.29 19.62 6 17.87"/> <path fill="#1d1d1b" d="M9.75 14.42a1 1 0 1 1-1.12-.85 1 1 0 0 1 1.12.85zM15.53 12.13a1 1 0 1 1-1.13-.85 1 1 0 0 1 1.13.85zM19.65 7.19a1 1 0 1 1-1.12-.86 1 1 0 0 1 1.12.86z"/> <path fill="none" stroke="#1d1d1b" stroke-miterlimit="10" stroke-width="2px" d="M16.7 19.82a19.53 19.53 0 0 1 7.36 12.92M19.93 17.5a30.5 30.5 0 0 1 15 22.39M23.36 14.45a44.08 44.08 0 0 1 21.79 55.19"/> <circle fill="none" stroke="#1d1d1b" stroke-miterlimit="10" stroke-width="2px" cx="20.04" cy="50.61" r="18.31"/> <circle fill="none" stroke="#1d1d1b" stroke-miterlimit="10" stroke-width="2px" cx="14.84" cy="45.24" r="2.79"/> <path fill="none" stroke="#1d1d1b" stroke-miterlimit="10" stroke-width="2px" d="M27.67 39.89a2.33 2.33 0 1 1-2.32-2.32 2.32 2.32 0 0 1 2.32 2.32zM16.76 61.32A2.33 2.33 0 1 1 14.44 59a2.32 2.32 0 0 1 2.32 2.32zM31.69 56.87a5.83 5.83 0 1 1-5.83-5.82 5.82 5.82 0 0 1 5.83 5.82zM2.33 55.27a4 4 0 0 1 3.62 7"/> <path fill="#1d1d1b" d="M17 37.66a1 1 0 1 1-1-1 1 1 0 0 1 1 1z"/> <circle fill="#1d1d1b" cx="28.63" cy="47.38" r="1"/> <circle fill="#1d1d1b" cx="20.04" cy="65.46" r="1"/> <circle fill="#1d1d1b" cx="8.38" cy="51.55" r="1"/> </symbol><symbol viewBox="0 0 72.85 69.51" id="savants"><title>savants</title>  <path d="M32 21.51v33.1a4.41 4.41 0 0 0 8.81 0V21.4" stroke-miterlimit="10" stroke-width="2" stroke="#1d1d1b" fill="none"/> <path d="M44.66 19.23c0 1.39-3.68 2.51-8.23 2.51s-8.24-1.12-8.24-2.51 3.69-2.51 8.24-2.51 8.23 1.12 8.23 2.51z" stroke="#1d1e1b" stroke-miterlimit="10" stroke-width="2" fill="none"/> <path fill="none" stroke="#1d1d1b" stroke-miterlimit="10" stroke-width="2px" d="M40.83 47c8.25.88 14.37 4.21 14.37 8.17 0 4.64-8.4 8.41-18.77 8.41s-18.78-3.74-18.78-8.38c0-4 6.13-7.28 14.37-8.17M24.63 41.89h7.39M40.83 41.89h7.33M21.13 60.64l-2.08 7.87M36.43 63.61v4.9M51.59 60.16l2.22 8.35"/> <path fill="none" stroke="#1d1d1b" stroke-miterlimit="10" stroke-width="2px" d="M52.7 41.89h4.35l14.14 26.62H1.66L15.8 41.89h4.35M17.65 54.86L28.19.19M55.2 54.86L44.66.19"/> </symbol><symbol viewBox="0 0 69.88 69.99" id="science"><title>science</title>  <path fill="none" stroke="#1d1d1b" stroke-miterlimit="10" stroke-width="2px" d="M25.23 24.36c0 1.32-4.33 2.39-9.69 2.39s-9.69-1.07-9.69-2.39S10.19 22 15.54 22s9.69 1 9.69 2.36zM30.09 54.48c0 2-6.51 3.59-14.55 3.59S1 56.46 1 54.48s6.51-3.6 14.54-3.6 14.55 1.61 14.55 3.6z"/> <path fill="none" stroke="#1d1d1b" stroke-miterlimit="10" stroke-width="2px" d="M19.93 26.51v14.08a14.55 14.55 0 1 1-8.77 0V26.51M63.56 24.36c0 1.32-4.34 2.39-9.69 2.39s-9.69-1.07-9.69-2.39S48.52 22 53.87 22s9.69 1 9.69 2.36z"/> <ellipse fill="none" stroke="#1d1d1b" stroke-miterlimit="10" stroke-width="2px" cx="53.84" cy="53.62" rx="11" ry="2.74"/> <path fill="none" stroke="#1d1d1b" stroke-miterlimit="10" stroke-width="2px" d="M68.83 64.89L58.25 34.55v-8.04M38.82 64.89l10.67-30.34v-8.04M68.83 64.89c.72 2.07-6.72 4.1-15 4.1s-15.73-2-15-4.1"/> <path fill="none" stroke="#1d1d1b" stroke-miterlimit="10" stroke-width="2px" d="M15.54 54.48V8.24A7.25 7.25 0 0 1 30 8.2a4.68 4.68 0 0 0 9.35 0 7.24 7.24 0 0 1 14.48 0v45.42"/> </symbol><symbol viewBox="0 0 78.11 70.01" id="scienceshumaines"><title>scienceshumaines</title>  <path fill="none" stroke="#1d1d1b" stroke-miterlimit="10" stroke-width="2px" d="M58 39.05c.07.94.11 2.09.11 3.06C58.14 57 49.56 69 39 69S19.84 57 19.84 42.11c0-1 .05-2.07.13-3.08"/> <path fill="none" stroke="#1d1d1b" stroke-miterlimit="10" stroke-width="2px" d="M36.17 40.35v10.13a2.91 2.91 0 0 0 5.81 0V40.35M30.21 57.92h17.73M15 38.1a15.49 15.49 0 0 0-.35 3.39c0 4 1.35 7.21 3 7.21 1 0 1.82-1.08 2.37-2.76M63 38.16a15.62 15.62 0 0 1 .32 3.33c0 4-1.35 7.21-3 7.21-1 0-1.82-1.08-2.37-2.76M39 5.39A4.4 4.4 0 0 1 43.35 1M39 5.39A4.4 4.4 0 0 0 34.57 1M59.47 21.94C59.47 10.38 52.26 1 43.37 1M38.96 5.39l.01 16.55M59.47 21.94a10.25 10.25 0 1 1-20.5 0M46.29 31.75a3 3 0 0 1 2-3.74M55.08 16.59a3 3 0 0 1 3.09-2.92M54.94 20.29a3.74 3.74 0 0 1-3.08 4.29M58.5 26.27a3.73 3.73 0 0 1-4.29-3.08M48.87 17.66a4.8 4.8 0 0 1 3.41-5.87M46.27 18.77a3 3 0 0 1 4.22-.43M51.49 3.87a3 3 0 0 1-2.26 3.6M39.61 25.41a4.08 4.08 0 0 1 5.73-.59M18.46 21.94C18.46 10.38 25.67 1 34.57 1M38.96 5.39l.01 16.55M18.46 21.94a10.26 10.26 0 0 0 20.51 0M31.65 31.76a3 3 0 0 0-2-3.74M22.87 16.59a3 3 0 0 0-3.08-2.92M39 10.32A3.75 3.75 0 0 0 35.15 14M34.32 17.56a3.74 3.74 0 0 0-3.61 3.87M43.62 17.56a3.74 3.74 0 0 1 3.61 3.87M32.59 7.64a3.73 3.73 0 0 0 3.66 3.81M39 10.32A3.74 3.74 0 0 1 42.79 14M45.36 7.64a3.73 3.73 0 0 1-3.67 3.81M23 20.29a3.74 3.74 0 0 0 3.08 4.29M19.42 26.27a3.73 3.73 0 0 0 4.29-3.08M29.07 17.66a4.8 4.8 0 0 0-3.41-5.87M31.67 18.77a3 3 0 0 0-4.23-.43M26.45 3.89a3 3 0 0 0 2.26 3.6M38.34 25.41a4.08 4.08 0 0 0-5.73-.59"/> <path fill="none" stroke="#1d1d1b" stroke-miterlimit="10" stroke-width="2px" d="M69 30.62c0 3-13.52 5.51-30.2 5.51S8.57 33.66 8.57 30.62"/> <path fill="none" stroke="#1d1d1b" stroke-miterlimit="10" stroke-width="2px" d="M59.47 22.22C70.07 24 77.11 27 77.11 30.52c0 5.43-17 9.83-38.06 9.83S1 36 1 30.52c0-3.47 7-6.52 17.46-8.27"/> </symbol><symbol viewBox="0 0 77.43 69.99" id="theatre"><title>theatre</title>  <ellipse fill="none" stroke="#1d1d1b" stroke-miterlimit="10" stroke-width="2px" cx="38.72" cy="34.02" rx="21.01" ry="8.19"/> <path fill="none" stroke="#1d1d1b" stroke-miterlimit="10" stroke-width="2px" d="M28.21 15.82c3.92-2.26 11.8 4.05 17.6 14.1s7.33 20 3.41 22.29-11.8-4.05-17.6-14.1-7.33-20.02-3.41-22.29z"/> <path fill="none" stroke="#1d1d1b" stroke-miterlimit="10" stroke-width="2px" d="M28.21 52.21C24.29 50 25.82 40 31.62 29.92s13.68-16.36 17.6-14.1 2.39 12.25-3.41 22.29-13.68 16.36-17.6 14.1z"/> <path d="M42.45 34a3.73 3.73 0 1 1-3.73-3.73A3.73 3.73 0 0 1 42.45 34z" stroke-width="1.7" stroke="#1d1d1b" stroke-miterlimit="10" fill="none"/> <path fill="#fff" stroke="#1d1d1b" stroke-miterlimit="10" stroke-width="2px" d="M30.86 15.84a2.64 2.64 0 1 1-2.64-2.65 2.64 2.64 0 0 1 2.64 2.65zM35.55 51.92a2.65 2.65 0 1 1-2.65-2.64 2.65 2.65 0 0 1 2.65 2.64zM59.43 29.88a2.64 2.64 0 1 1-2.64-2.64 2.65 2.65 0 0 1 2.64 2.64z"/> <path fill="none" stroke="#1d1d1b" stroke-miterlimit="10" stroke-width="2px" d="M61.1 60.5H16.33"/> <path fill="none" stroke="#1d1d1b" stroke-miterlimit="10" stroke-width="2px" transform="rotate(180 72.805 33.935)" d="M69.18 31.28h7.25v5.31h-7.25z"/> <path fill="none" stroke="#1d1d1b" stroke-miterlimit="10" stroke-width="2px" d="M69.18 31.28c-3.75 0-13.26-18.59-13.26-30.28h20.51v68H60.17c0-9.83 6.51-32.4 9-32.4M67.18 15.08c0 6.37 4.35 16.2 6.1 16.2M68.18 57.61c0-4.51 3.47-21 5.1-21M1 31.28h7.25v5.31H1z"/> <path fill="none" stroke="#1d1d1b" stroke-miterlimit="10" stroke-width="2px" d="M8.25 31.28C12 31.28 21.51 12.69 21.51 1H1v68h16.26c0-9.83-6.51-32.4-9-32.4M10.25 15.08c0 6.37-3.95 16.2-5.7 16.2M9.25 57.61c0-4.51-3.08-21-4.7-21"/> </symbol></svg>