<svg id="Calque_1" data-name="Calque 1" xmlns="http://www.w3.org/2000/svg" viewBox="0 0 39.1 70"><defs>
<style>.billet-cls-1{fill:#1d1d1b}.billet-cls-2{fill:none;stroke:#1d1d1b;stroke-miterlimit:10;stroke-width:2px}</style></defs><path class="billet-cls-1" fill="#1d1d1b" d="M3 13.93a1 1 0 1 1-1-1 1 1 0 0 1 1 1z"/><circle class="billet-cls-1" fill="#1d1d1b" cx="5.51" cy="13.93" r="1"/><circle class="billet-cls-1" fill="#1d1d1b" cx="9.02" cy="13.93" r="1"/><circle class="billet-cls-1" fill="#1d1d1b" cx="12.53" cy="13.93" r="1"/><path class="billet-cls-1" fill="#1d1d1b" d="M17 13.93a1 1 0 1 1-1-1 1 1 0 0 1 1 1z"/><circle class="billet-cls-1" fill="#1d1d1b" cx="19.55" cy="13.93" r="1"/><path class="billet-cls-1" fill="#1d1d1b" d="M24.06 13.93a1 1 0 1 1-1-1 1 1 0 0 1 1 1z"/><circle class="billet-cls-1" fill="#1d1d1b" cx="26.57" cy="13.93" r="1"/><circle class="billet-cls-1" fill="#1d1d1b" cx="30.08" cy="13.93" r="1"/><path class="billet-cls-1" fill="#1d1d1b" d="M34.59 13.93a1 1 0 1 1-1-1 1 1 0 0 1 1 1z"/><circle class="billet-cls-1" fill="#1d1d1b" cx="37.11" cy="13.93" r="1"/><path stroke-width="3px" stroke-miterlimit="10" stroke="#1d1d1b" fill="none" d="M29.07 69a10.11 10.11 0 0 0-19 0H1V1h9a10.11 10.11 0 0 0 9.52 6.71A10.1 10.1 0 0 0 29.07 1h9v68h-9zM25.12 45.2a7.57 7.57 0 1 1 0-13M11.55 40.68h10.48M11.55 36.72h10.48"/><path stroke-width="3px" stroke-miterlimit="10" stroke="#1d1d1b" fill="none" d="M5.51 18.93H33.6v38.33H5.51z"/></svg>
