<svg id="Calque_1" data-name="Calque 1" xmlns="http://www.w3.org/2000/svg" viewBox="0 0 71.97 70.01">
  <defs>
    <style>
      .cls-1{fill:none;stroke:#1d1d1b;stroke-miterlimit:10;stroke-width:2px}
    </style>
  </defs>
  <path fill="none" stroke="#1d1d1b" stroke-miterlimit="10" stroke-width="2px" d="M36 6.74A5.74 5.74 0 0 0 30.24 1H6.59v57.16h23.65A5.74 5.74 0 0 1 36 63.9"/>
  <path fill="none" stroke="#1d1d1b" stroke-miterlimit="10" stroke-width="2px" d="M6.59 6.11H1v57.3h28.39A6.59 6.59 0 0 1 36 70M65.38 6.11H71v57.3H42.58A6.6 6.6 0 0 0 36 70M10.05 6.11h20.43M10.05 10.67h20.43M10.05 15.23h20.43M10.05 19.8h20.43M10.05 24.36h20.43M10.05 28.92h10.22"/>
  <path fill="none" stroke="#1d1d1b" stroke-miterlimit="10" stroke-width="2px" d="M11.1 36.2h18.43v17.23H11.1zM41.48 48.87h20.44M41.48 53.44H51.7M42.54 6.11h18.43v35.77H42.54z"/>
  <path fill="none" stroke="#1d1d1b" stroke-miterlimit="10" stroke-width="2px" d="M36 69.87V6.74A5.75 5.75 0 0 1 41.73 1h23.65v57.16H41.73A5.75 5.75 0 0 0 36 63.9"/>
</svg>