<svg id="Calque_1" data-name="Calque 1" xmlns="http://www.w3.org/2000/svg" viewBox="0 0 70.01 70.01">
  <defs>
    <style>
      .cls-1{fill:none;stroke:#1d1d1b;stroke-miterlimit:10;stroke-width:2px}
    </style>
  </defs>
  <path fill="none" stroke="#1d1d1b" stroke-miterlimit="10" stroke-width="2px" d="M31.61 22.55a3.38 3.38 0 0 1-4.42-5.12L35 10.67a3.38 3.38 0 0 1 4.42 5.12zM34 54.26a3.38 3.38 0 1 1-4.16 5.33l-8.15-6.36a3.38 3.38 0 0 1 4.15-5.33z"/>
  <circle fill="none" stroke="#1d1d1b" stroke-miterlimit="10" stroke-width="2px" cx="17.63" cy="23.23" r="3.65"/>
  <path fill="none" stroke="#1d1d1b" stroke-miterlimit="10" stroke-width="2px" d="M58.1 29.38a3.65 3.65 0 1 1-3.65-3.64 3.65 3.65 0 0 1 3.65 3.64z"/>
  <circle fill="none" stroke="#1d1d1b" stroke-miterlimit="10" stroke-width="2px" cx="35" cy="35" r="34" transform="rotate(-76.91 35.00266284 35.00479554)"/>
  <circle fill="none" stroke="#1d1d1b" stroke-miterlimit="10" stroke-width="2px" cx="35" cy="35" r="29.71"/>
  <path fill="none" stroke="#1d1d1b" stroke-miterlimit="10" stroke-width="2px" d="M51.41 10.22L32.55 35.78M46.07 24.25L30.32 45.36M47.83 39.68v-2.47M47.83 54.6v-2.55M54.05 45.9a6.22 6.22 0 1 1-6.22-6.22 6.22 6.22 0 0 1 6.22 6.22zM52.23 41.5l1.75-1.75M41.68 52.05l1.75-1.75M54.05 45.9h2.47M39.13 45.9h2.48M52.23 50.3l1.75 1.75M41.68 39.75l1.75 1.75M26.89 33.49c-1.05-2.46-2.8-4.08-3.91-3.6s-1.15 2.84-.1 5.3 1 4.84-.1 5.31-2.86-1.14-3.9-3.6-2.8-4.07-3.91-3.6-1.15 2.85-.1 5.31 1 4.84-.1 5.31-2.86-1.14-3.9-3.6"/>
</svg>