<?xml version="1.0" encoding="utf-8"?>
<!-- Generator: Adobe Illustrator 18.0.0, SVG Export Plug-In . SVG Version: 6.00 Build 0)  -->
<!DOCTYPE svg PUBLIC "-//W3C//DTD SVG 1.1//EN" "http://www.w3.org/Graphics/SVG/1.1/DTD/svg11.dtd">
<svg version="1.1" id="Calque_1" xmlns="http://www.w3.org/2000/svg" xmlns:xlink="http://www.w3.org/1999/xlink" x="0px" y="0px"
	 viewBox="0 0 1000 1000" enable-background="new 0 0 1000 1000" xml:space="preserve">
<g>
	<path fill="none" stroke="#1D1D1B" stroke-width="20" stroke-miterlimit="10" d="M142.3,431.2l-55.8,15.5l-49-176.1l55.8-15.5
		L142.3,431.2z M962.5,216l-313.1,87.2l-33-18.9l-41.3-148.4l18.5-33.3l313.1-87.2L962.5,216z M427.2,337l-48.4,13.5l-31.9-18.4
		l-27.2-97.8l17.8-32.2l237.6-66.2l41.3,148.4l-67,18.7 M346.9,332.1l-215.5,60l-27.2-97.8l215.5-60L346.9,332.1z M488.4,694.1v59.1
		 M523.6,373v321h-70.5V373 M551.9,320.6c0,35.1-28.4,63.5-63.5,63.5S425,355.7,425,320.6c0-35,28.4-63.5,63.5-63.5
		S551.9,285.6,551.9,320.6z M719.9,987.8h-463V753.1h463V987.8z"/>
</g>
</svg>