<?xml version="1.0" encoding="utf-8"?>
<!-- Generator: Adobe Illustrator 18.0.0, SVG Export Plug-In . SVG Version: 6.00 Build 0)  -->
<!DOCTYPE svg PUBLIC "-//W3C//DTD SVG 1.1//EN" "http://www.w3.org/Graphics/SVG/1.1/DTD/svg11.dtd">
<svg version="1.1" id="Calque_1" xmlns="http://www.w3.org/2000/svg" xmlns:xlink="http://www.w3.org/1999/xlink" x="0px" y="0px"
	 viewBox="1021 81 79 1000" enable-background="new 1021 81 79 1000" xml:space="preserve">
<g>
	<g>
		<polygon points="1087.9,1081 1029.6,1081 1029.6,1072 1079.5,1072 1079.5,1047 1087.9,1047 		"/>
	</g>
	<g>
		<path d="M1087.9,1034.4v9.6l-58.2-20.6v-10.7l58.2-20.6v9.6l-14.6,5.1v22.5L1087.9,1034.4z M1065.1,1026.5v-16.8l-24.3,8.4
			L1065.1,1026.5z"/>
	</g>
	<g>
		<g>
			<path d="M1036.7,949.5c0,4.7,2.4,9,7.4,9c5.2,0,7.2-3.9,10.6-13.1c2.7-7.5,7.4-16.7,18.1-16.7c11.9,0,16,10,16,20
				c0,12.5-6.7,20-16.2,21.6l-2.5-9.2c6.6-1.2,10.7-5.6,10.7-12.7c0-5.2-2-9.7-7.7-9.7c-6.4,0-8.8,6.5-11.8,13.8
				c-3.8,9.4-7.8,15.4-16.6,15.4c-10.1,0-15.7-8.3-15.7-18.5c0-10.7,5.8-18.3,15-19.7l2.2,8.3C1040,939.2,1036.7,943.7,1036.7,949.5
				"/>
		</g>
		<g>
			<path d="M1087.9,917.8v9.6l-58.2-20.6v-10.7l58.2-20.6v9.6l-14.6,5.1v22.5L1087.9,917.8z M1065.1,909.9v-16.8l-24.3,8.4
				L1065.1,909.9z"/>
		</g>
		<g>
			<polygon points="1087.9,871 1029.6,871 1029.6,862 1079.5,862 1079.5,838.4 1087.9,838.4 			"/>
		</g>
		<g>
			<polygon points="1087.9,833.7 1029.6,833.7 1029.6,824.7 1079.5,824.7 1079.5,801.2 1087.9,801.2 			"/>
		</g>
		<g>
			<polygon points="1087.9,796.6 1029.6,796.6 1029.6,763.8 1037.9,763.8 1037.9,787.6 1054.2,787.6 1054.2,765.9 1062.3,765.9 
				1062.3,787.6 1079.6,787.6 1079.6,762.9 1087.9,762.9 			"/>
		</g>
		<g>
			<path d="M1072.4,696.9c9,0,15.5,6.2,15.5,18.8V736h-58.2v-20.9c0-10.7,6.1-16.8,14.6-16.8c6.8,0,11.5,4.1,13.3,8.8
				C1059.7,700.6,1065.4,696.9,1072.4,696.9 M1053.6,715.1c0-5.7-3.4-8.7-8-8.7c-4.5,0-7.9,3-7.9,8.8v12h15.9V715.1z M1071.1,705.8
				c-5.9,0-9.4,3.8-9.4,11.2v10.2h18.1V716C1079.9,709.2,1076.6,705.8,1071.1,705.8"/>
		</g>
		<g>
			<polygon points="1087.9,687.8 1029.6,687.8 1029.6,678.9 1079.5,678.9 1079.5,653.8 1087.9,653.8 			"/>
		</g>
		<g>
			<path d="M1087.9,640.9v9.6l-58.2-20.6v-10.6l58.2-20.6v9.6l-14.6,5.1v22.5L1087.9,640.9z M1065.1,633v-16.8l-24.3,8.4L1065.1,633
				z"/>
		</g>
		<g>
			<polygon points="1087.9,556.8 1045.4,583.6 1087.9,583.6 1087.9,592.2 1029.6,592.2 1029.6,583.5 1072,556.8 1029.6,556.8 
				1029.6,548.2 1087.9,548.2 			"/>
		</g>
		<g>
			<path d="M1037.6,511.2c0,11.6,9.7,18.4,21.1,18.4c11.2,0,21.2-6.6,21.2-18.3c0-9.2-5.6-14-9.5-15.8l3.9-8.3
				c6.2,3.2,14.3,10.6,14.3,24.1c0,16.3-11.6,27.7-29.9,27.7c-18.1,0-30-11.3-30-27.3c0-13.6,7.7-21.2,14.5-23.9l3.9,8.3
				C1042.2,498,1037.6,503,1037.6,511.2"/>
		</g>
		<g>
			<polygon points="1087.9,443 1062.5,443 1062.5,468.9 1087.9,468.9 1087.9,478.1 1029.6,478.1 1029.6,468.9 1054.2,468.9 
				1054.2,443 1029.6,443 1029.6,433.9 1087.9,433.9 			"/>
		</g>
		<g>
			<polygon points="1087.9,421.8 1029.6,421.8 1029.6,389 1037.9,389 1037.9,412.8 1054.2,412.8 1054.2,391.1 1062.3,391.1 
				1062.3,412.8 1079.6,412.8 1079.6,388.2 1087.9,388.2 			"/>
		</g>
		<g>
			<rect x="1058.7" y="93.6" width="1.5" height="259.2"/>
		</g>
		<g>
			<rect x="1067.1" y="343.4" width="23" height="2.1"/>
		</g>
		<g>
			<path d="M1090.4,327.8c0,4.2-3.4,6.9-8.2,6.9c-4.6,0-8.1-2.7-8.1-6.8c0-2.4,1.1-4.1,2.9-5.1h-2.6v-2.1h11.5l4.1-0.8v2.1l-2.9,0.6
				C1089.3,323.6,1090.4,325.5,1090.4,327.8 M1083.5,322.7h-2.2c-3.3,0.4-5.2,2.4-5.2,5c0,2.9,2.7,4.8,6.1,4.8c3.7,0,6.3-1.9,6.3-5
				C1088.5,325.2,1086.8,323.1,1083.5,322.7"/>
		</g>
		<g>
			<path d="M1076,309.6c0,3,2.6,5.2,6.3,5.2c3.6,0,6.2-2.1,6.2-5.5c0-2.2-1.2-3.6-2.4-4.3l1-1.7c1.7,0.9,3.4,2.8,3.4,6.1
				c0,4.5-3.5,7.4-8.2,7.4c-4.7,0-8.1-2.8-8.1-7.2c0-3.6,2.1-5.4,3.7-6.1l0.9,1.6C1077.4,305.8,1076,307.2,1076,309.6"/>
		</g>
		<g>
			<polygon points="1090.1,296.8 1090.1,298.8 1076.2,298.8 1076.2,301.4 1074.4,301.4 1074.4,298.8 1070.1,298.8 1069.7,296.8 
				1074.4,296.8 1074.4,292.3 1076.2,292.3 1076.2,296.8 			"/>
		</g>
		<g>
			<path d="M1082.9,277.9v11.7c3.4-0.2,5.6-2.2,5.6-5.5c0-1.9-0.9-3.3-2-4l1-1.6c1.8,1.1,2.9,3.3,2.9,5.8c0,4.6-3.3,7.5-8.1,7.5
				c-4.6,0-8.2-2.7-8.2-7.2C1074.1,279.6,1078.3,277.4,1082.9,277.9 M1076,284.4c0,3,2.2,4.8,5.3,5.1v-9.8
				C1078.8,279.8,1076,281.1,1076,284.4"/>
		</g>
		<g>
			<path d="M1090.4,269.1c0,3.3-2.4,5.5-5.8,5.5h-10.2v-2.1h9.9c2.5,0,4.2-1.3,4.2-3.7c0-1.6-1.1-3.2-2.8-4.1h-11.4v-2.1h11.5
				l4.1-0.8v2.1l-2.3,0.4C1089.2,265.1,1090.4,266.8,1090.4,269.1"/>
		</g>
		<g>
			<polygon points="1090.1,255.2 1090.1,257.3 1078.6,257.3 1074.4,258.1 1074.4,256 1077.4,255.4 1073.7,250.2 1076.1,250.2 
				1079.6,255.2 			"/>
		</g>
		<g>
			<rect x="1081" y="237.5" width="1.9" height="9.8"/>
		</g>
		<g>
			<path d="M1076,226.1c0,3,2.6,5.2,6.3,5.2c3.6,0,6.2-2.1,6.2-5.5c0-2.2-1.2-3.6-2.4-4.3l1-1.7c1.7,0.9,3.4,2.8,3.4,6.1
				c0,4.5-3.5,7.4-8.2,7.4c-4.7,0-8.1-2.8-8.1-7.2c0-3.6,2.1-5.4,3.7-6.1l0.9,1.6C1077.4,222.3,1076,223.7,1076,226.1"/>
		</g>
		<g>
			<path d="M1079.9,204.2h10.2v2.1h-9.9c-2.5,0-4.2,1.3-4.2,3.7c0,1.6,1.1,3.3,2.8,4.2h11.4v2.1h-23v-2.1h9.2
				c-1.2-0.9-2.2-2.5-2.2-4.5C1074.1,206.3,1076.5,204.2,1079.9,204.2"/>
		</g>
		<g>
			<path d="M1082.9,186.6v11.7c3.4-0.2,5.6-2.2,5.6-5.5c0-1.9-0.9-3.3-2-4l1-1.6c1.8,1.1,2.9,3.3,2.9,5.8c0,4.6-3.3,7.5-8.1,7.5
				c-4.6,0-8.2-2.7-8.2-7.2C1074.1,188.4,1078.3,186.2,1082.9,186.6 M1076,193.2c0,3,2.2,4.8,5.3,5.1v-9.8
				C1078.8,188.5,1076,189.9,1076,193.2"/>
		</g>
		<g>
			<polygon points="1090.1,180.6 1090.1,182.7 1078.6,182.7 1074.4,183.5 1074.4,181.4 1077.4,180.8 1073.7,175.7 1076.1,175.7 
				1079.6,180.6 			"/>
		</g>
		<g>
			<path d="M1076,166.7c0,3,2.6,5.2,6.3,5.2c3.6,0,6.2-2.1,6.2-5.5c0-2.2-1.2-3.6-2.4-4.3l1-1.7c1.7,0.9,3.4,2.8,3.4,6.1
				c0,4.5-3.5,7.4-8.2,7.4c-4.7,0-8.1-2.8-8.1-7.2c0-3.6,2.1-5.4,3.7-6.1l0.9,1.6C1077.4,162.9,1076,164.3,1076,166.7"/>
		</g>
		<g>
			<path d="M1079.9,144.8h10.2v2.1h-9.9c-2.5,0-4.2,1.3-4.2,3.7c0,1.6,1.1,3.3,2.8,4.2h11.4v2.1h-23v-2.1h9.2
				c-1.2-0.9-2.2-2.5-2.2-4.5C1074.1,147,1076.5,144.8,1079.9,144.8"/>
		</g>
		<g>
			<path d="M1082.9,127.3V139c3.4-0.2,5.6-2.2,5.6-5.5c0-1.8-0.9-3.3-2-4l1-1.6c1.8,1.1,2.9,3.3,2.9,5.8c0,4.6-3.3,7.5-8.1,7.5
				c-4.6,0-8.2-2.7-8.2-7.2C1074.1,129,1078.3,126.8,1082.9,127.3 M1076,133.8c0,3,2.2,4.8,5.3,5.1v-9.8
				C1078.8,129.1,1076,130.5,1076,133.8"/>
		</g>
		<g>
			<path d="M1090.4,117.8c0,3.3-2.4,5.5-5.8,5.5h-10.2v-2.1h9.9c2.5,0,4.2-1.3,4.2-3.7c0-1.6-1.1-3.2-2.8-4.1h-11.4v-2.1h11.5
				l4.1-0.8v2.1l-2.3,0.4C1089.2,113.8,1090.4,115.5,1090.4,117.8"/>
		</g>
		<g>
			<polygon points="1090.1,104 1090.1,106.1 1078.6,106.1 1074.4,106.9 1074.4,104.8 1077.4,104.3 1073.7,99.1 1076.1,99.1 
				1079.6,104 			"/>
		</g>
		<g>
			<rect x="1027.1" y="304" width="22.7" height="2.1"/>
		</g>
		<g>
			<rect x="1027.1" y="343.4" width="22.7" height="2.1"/>
		</g>
		<g>
			<path d="M1050.1,292c0,4.1-3.4,6.8-8.1,6.8c-4.6,0-8-2.6-8-6.7c0-2.4,1.1-4.1,2.9-5.1h-2.6v-2.1h11.4l4.1-0.7v2l-2.9,0.6
				C1049,287.8,1050.1,289.7,1050.1,292 M1043.3,287h-2.2c-3.2,0.4-5.2,2.4-5.2,5c0,2.8,2.7,4.8,6,4.8c3.6,0,6.2-1.9,6.2-5
				C1048.2,289.4,1046.5,287.4,1043.3,287"/>
		</g>
		<g>
			<path d="M1042.1,264.2c4.5,0,8,2.6,8,6.7c0,2.6-1.3,4.3-3.3,5.3l3,0.6v2l-4.1-0.7h-18.6V276h9.8c-1.9-1.1-2.8-2.9-2.8-5
				C1034,266.8,1037.4,264.2,1042.1,264.2 M1042.2,266.3c-3.6,0-6.2,1.9-6.2,5c0,2.4,1.8,4.5,5.2,4.8h1.5c3.4-0.3,5.5-2.4,5.5-5
				C1048.2,268.2,1045.5,266.3,1042.2,266.3"/>
		</g>
		<g>
			<path d="M1042.1,260.1c-4.6,0-8-3-8-7.5c0-4.5,3.5-7.5,8-7.5c4.5,0,8,3,8,7.5C1050.1,257.2,1046.6,260.1,1042.1,260.1
				 M1042.1,247.3c-3.5,0-6.2,2.3-6.2,5.4c0,3.1,2.7,5.4,6.2,5.4c3.5,0,6.2-2.3,6.2-5.4C1048.3,249.6,1045.6,247.3,1042.1,247.3"/>
		</g>
		<g>
			<polygon points="1049.8,238.2 1049.8,240.2 1038.4,240.2 1034.3,241 1034.3,238.9 1037.2,238.4 1033.7,233.3 1036,233.3 
				1039.4,238.2 			"/>
		</g>
		<g>
			<path d="M1050.1,223c0,4.1-3.4,6.8-8.1,6.8c-4.6,0-8-2.6-8-6.7c0-2.4,1.1-4.1,2.9-5.1h-2.6v-2.1h11.4l4.1-0.7v2l-2.9,0.6
				C1049,218.9,1050.1,220.7,1050.1,223 M1043.3,218h-2.2c-3.2,0.4-5.2,2.4-5.2,5c0,2.8,2.7,4.8,6,4.8c3.6,0,6.2-1.9,6.2-5
				C1048.2,220.4,1046.5,218.4,1043.3,218"/>
		</g>
		<g>
			<polygon points="1050.1,206.4 1050.1,208.4 1036.2,208.4 1036.2,210.9 1034.4,210.9 1034.4,208.4 1030.1,208.4 1029.7,206.4 
				1034.4,206.4 1034.4,201.9 1036.2,201.9 1036.2,206.4 			"/>
		</g>
		<g>
			<path d="M1042.3,199.5c-4.6,0-8.2-3-8.2-7.6c0-4.5,3.5-7.6,8.2-7.6c4.6,0,8.2,3,8.2,7.6C1050.4,196.5,1046.9,199.5,1042.3,199.5
				 M1042.3,186.5c-3.6,0-6.3,2.3-6.3,5.5c0,3.1,2.7,5.5,6.3,5.5c3.5,0,6.3-2.3,6.3-5.5C1048.6,188.8,1045.8,186.5,1042.3,186.5"/>
		</g>
		<g>
			<polygon points="1050.1,168.4 1050.1,170.5 1038.6,170.5 1034.4,171.3 1034.4,169.2 1037.4,168.6 1033.7,163.4 1036.1,163.4 
				1039.6,168.4 			"/>
		</g>
		<g>
			<path d="M1042.9,146.5v11.7c3.4-0.2,5.6-2.2,5.6-5.5c0-1.9-0.9-3.3-2-4l1-1.6c1.8,1.1,2.9,3.3,2.9,5.8c0,4.6-3.3,7.5-8.1,7.5
				c-4.6,0-8.2-2.7-8.2-7.2C1034.2,148.2,1038.3,146,1042.9,146.5 M1036,153c0,3,2.2,4.8,5.3,5.1v-9.8
				C1038.8,148.3,1036,149.7,1036,153"/>
		</g>
		<g>
			<path d="M1042.9,324.1v11.7c3.4-0.2,5.6-2.2,5.6-5.5c0-1.8-0.9-3.3-2-4l1-1.6c1.8,1.1,2.9,3.3,2.9,5.8c0,4.6-3.3,7.5-8.1,7.5
				c-4.6,0-8.2-2.7-8.2-7.2C1034.2,325.8,1038.3,323.6,1042.9,324.1 M1036,330.7c0,3,2.2,4.8,5.3,5.1V326
				C1038.8,326,1036,327.3,1036,330.7"/>
		</g>
		<g>
			<path d="M1050.4,125c0,4.1-3.5,6.8-8.1,6.8c-4.8,0-8.2-2.7-8.2-6.9c0-2.2,1-4,2.9-5.1h-9.9v-2.1h18.9l4.1-0.8v2.1l-3.1,0.6
				C1049.1,120.6,1050.4,122.4,1050.4,125 M1042.9,119.8h-1.6c-3.5,0.3-5.3,2.4-5.3,4.9c0,3.1,2.6,5,6.3,5c3.4,0,6.1-1.9,6.1-4.8
				C1048.5,122.2,1046.4,120.1,1042.9,119.8"/>
		</g>
		<g>
			<path d="M1042.9,99.1v11.7c3.4-0.2,5.6-2.2,5.6-5.5c0-1.8-0.9-3.3-2-4l1-1.6c1.8,1.1,2.9,3.3,2.9,5.8c0,4.6-3.3,7.5-8.1,7.5
				c-4.6,0-8.2-2.7-8.2-7.2C1034.2,100.8,1038.3,98.6,1042.9,99.1 M1036,105.6c0,3,2.2,4.8,5.3,5.1V101
				C1038.8,101,1036,102.3,1036,105.6"/>
		</g>
		<g>
			<polygon points="1099.6,365.4 1021.4,365.4 1021.4,352.8 1022.4,352.8 1022.4,364.4 1098.6,364.4 1098.6,352.8 1099.6,352.8 			
				"/>
		</g>
		<g>
			<polygon points="1099.6,93.6 1098.6,93.6 1098.6,82 1022.4,82 1022.4,93.6 1021.4,93.6 1021.4,81 1099.6,81 			"/>
		</g>
		<g>
			<polygon points="1067.1,336 1072.2,338.7 1072.2,336.6 1067.1,333.8 			"/>
		</g>
		<g>
			<rect x="1027.4" y="177.4" width="3.6" height="2"/>
		</g>
		<g>
			<rect x="1034.7" y="177.4" width="15.5" height="2.1"/>
		</g>
		<g>
			<rect x="1027.1" y="304" width="22.7" height="2.1"/>
		</g>
		<g>
			<rect x="1027.1" y="343.4" width="22.7" height="2.1"/>
		</g>
		<g>
			<path d="M1050.1,292c0,4.1-3.4,6.8-8.1,6.8c-4.6,0-8-2.6-8-6.7c0-2.4,1.1-4.1,2.9-5.1h-2.6v-2.1h11.4l4.1-0.7v2l-2.9,0.6
				C1049,287.8,1050.1,289.7,1050.1,292 M1043.3,287h-2.2c-3.2,0.4-5.2,2.4-5.2,5c0,2.8,2.7,4.8,6,4.8c3.6,0,6.2-1.9,6.2-5
				C1048.2,289.4,1046.5,287.4,1043.3,287"/>
		</g>
		<g>
			<path d="M1042.1,264.2c4.5,0,8,2.6,8,6.7c0,2.6-1.3,4.3-3.3,5.3l3,0.6v2l-4.1-0.7h-18.6V276h9.8c-1.9-1.1-2.8-2.9-2.8-5
				C1034,266.8,1037.4,264.2,1042.1,264.2 M1042.2,266.3c-3.6,0-6.2,1.9-6.2,5c0,2.4,1.8,4.5,5.2,4.8h1.5c3.4-0.3,5.5-2.4,5.5-5
				C1048.2,268.2,1045.5,266.3,1042.2,266.3"/>
		</g>
		<g>
			<path d="M1042.1,260.1c-4.6,0-8-3-8-7.5c0-4.5,3.5-7.5,8-7.5c4.5,0,8,3,8,7.5C1050.1,257.2,1046.6,260.1,1042.1,260.1
				 M1042.1,247.3c-3.5,0-6.2,2.3-6.2,5.4c0,3.1,2.7,5.4,6.2,5.4c3.5,0,6.2-2.3,6.2-5.4C1048.3,249.6,1045.6,247.3,1042.1,247.3"/>
		</g>
		<g>
			<polygon points="1049.8,238.2 1049.8,240.2 1038.4,240.2 1034.3,241 1034.3,238.9 1037.2,238.4 1033.7,233.3 1036,233.3 
				1039.4,238.2 			"/>
		</g>
		<g>
			<path d="M1050.1,223c0,4.1-3.4,6.8-8.1,6.8c-4.6,0-8-2.6-8-6.7c0-2.4,1.1-4.1,2.9-5.1h-2.6v-2.1h11.4l4.1-0.7v2l-2.9,0.6
				C1049,218.9,1050.1,220.7,1050.1,223 M1043.3,218h-2.2c-3.2,0.4-5.2,2.4-5.2,5c0,2.8,2.7,4.8,6,4.8c3.6,0,6.2-1.9,6.2-5
				C1048.2,220.4,1046.5,218.4,1043.3,218"/>
		</g>
		<g>
			<polygon points="1050.1,206.4 1050.1,208.4 1036.2,208.4 1036.2,210.9 1034.4,210.9 1034.4,208.4 1030.1,208.4 1029.7,206.4 
				1034.4,206.4 1034.4,201.9 1036.2,201.9 1036.2,206.4 			"/>
		</g>
		<g>
			<path d="M1042.3,199.5c-4.6,0-8.2-3-8.2-7.6c0-4.5,3.5-7.6,8.2-7.6c4.6,0,8.2,3,8.2,7.6C1050.4,196.5,1046.9,199.5,1042.3,199.5
				 M1042.3,186.5c-3.6,0-6.3,2.3-6.3,5.5c0,3.1,2.7,5.5,6.3,5.5c3.5,0,6.3-2.3,6.3-5.5C1048.6,188.8,1045.8,186.5,1042.3,186.5"/>
		</g>
		<g>
			<polygon points="1050.1,168.4 1050.1,170.5 1038.6,170.5 1034.4,171.3 1034.4,169.2 1037.4,168.6 1033.7,163.4 1036.1,163.4 
				1039.6,168.4 			"/>
		</g>
		<g>
			<path d="M1042.9,146.5v11.7c3.4-0.2,5.6-2.2,5.6-5.5c0-1.9-0.9-3.3-2-4l1-1.6c1.8,1.1,2.9,3.3,2.9,5.8c0,4.6-3.3,7.5-8.1,7.5
				c-4.6,0-8.2-2.7-8.2-7.2C1034.2,148.2,1038.3,146,1042.9,146.5 M1036,153c0,3,2.2,4.8,5.3,5.1v-9.8
				C1038.8,148.3,1036,149.7,1036,153"/>
		</g>
		<g>
			<path d="M1042.9,324.1v11.7c3.4-0.2,5.6-2.2,5.6-5.5c0-1.8-0.9-3.3-2-4l1-1.6c1.8,1.1,2.9,3.3,2.9,5.8c0,4.6-3.3,7.5-8.1,7.5
				c-4.6,0-8.2-2.7-8.2-7.2C1034.2,325.8,1038.3,323.6,1042.9,324.1 M1036,330.7c0,3,2.2,4.8,5.3,5.1V326
				C1038.8,326,1036,327.3,1036,330.7"/>
		</g>
		<g>
			<path d="M1050.4,125c0,4.1-3.5,6.8-8.1,6.8c-4.8,0-8.2-2.7-8.2-6.9c0-2.2,1-4,2.9-5.1h-9.9v-2.1h18.9l4.1-0.8v2.1l-3.1,0.6
				C1049.1,120.6,1050.4,122.4,1050.4,125 M1042.9,119.8h-1.6c-3.5,0.3-5.3,2.4-5.3,4.9c0,3.1,2.6,5,6.3,5c3.4,0,6.1-1.9,6.1-4.8
				C1048.5,122.2,1046.4,120.1,1042.9,119.8"/>
		</g>
		<g>
			<path d="M1042.9,99.1v11.7c3.4-0.2,5.6-2.2,5.6-5.5c0-1.8-0.9-3.3-2-4l1-1.6c1.8,1.1,2.9,3.3,2.9,5.8c0,4.6-3.3,7.5-8.1,7.5
				c-4.6,0-8.2-2.7-8.2-7.2C1034.2,100.8,1038.3,98.6,1042.9,99.1 M1036,105.6c0,3,2.2,4.8,5.3,5.1V101
				C1038.8,101,1036,102.3,1036,105.6"/>
		</g>
		<g>
			<rect x="1027.4" y="177.4" width="3.6" height="2"/>
		</g>
		<g>
			<rect x="1034.7" y="177.4" width="15.5" height="2.1"/>
		</g>
	</g>
</g>
</svg>
