<?xml version="1.0" encoding="utf-8"?>
<!-- Generator: Adobe Illustrator 18.0.0, SVG Export Plug-In . SVG Version: 6.00 Build 0)  -->
<!DOCTYPE svg PUBLIC "-//W3C//DTD SVG 1.1//EN" "http://www.w3.org/Graphics/SVG/1.1/DTD/svg11.dtd">
<svg version="1.1" id="Calque_1" xmlns="http://www.w3.org/2000/svg" xmlns:xlink="http://www.w3.org/1999/xlink" x="0px" y="0px"
	 viewBox="741.1 459.4 258.9 81.1" enable-background="new 741.1 459.4 258.9 81.1" xml:space="preserve">
<title>Plan de travail 3</title>
<path d="M772.3,474.7c-1.7,0-2.9,0.9-2.9,2.6c0,1.6,1.2,2.1,3.8,3.1c2.4,0.9,4.5,2.1,4.5,4.9c0,3.2-2.6,4.3-5.3,4.3
	c-3.5,0-5.5-2-5.9-4.5l2-0.6c0.4,2.1,1.8,3.3,4,3.3c1.5,0,3.1-0.6,3.1-2.5c0-1.9-1.8-2.7-3.7-3.4c-2.9-1.1-4.6-2.1-4.6-4.6
	c0-2.7,2.1-4.3,5-4.3c2.9,0,4.9,1.6,5.3,4.1l-1.8,0.6C775.4,475.7,774,474.7,772.3,474.7z"/>
<path d="M788.8,474.9c-3.1,0-5.3,2.7-5.3,6.4c0,3.7,2.2,6.3,5.6,6.3c2.3,0,3.7-1.2,4.4-2.5l1.7,1c-0.9,1.7-2.9,3.5-6.2,3.5
	c-4.6,0-7.5-3.6-7.5-8.4c0-4.8,2.9-8.3,7.3-8.3c3.7,0,5.5,2.2,6.2,3.7l-1.6,0.9C792.7,476.3,791.3,474.9,788.8,474.9z"/>
<path d="M829.2,478.9v10.4h-2.2v-10.2c0-2.6-1.3-4.3-3.8-4.3c-1.6,0-3.3,1.1-4.2,2.8v11.7h-2.1v-11.8l-0.8-4.2h2.1l0.4,2.4
	c0.9-1.4,2.6-2.7,5-2.7C827.1,472.9,829.2,475.4,829.2,478.9z"/>
<path d="M847.8,481.9h-12c0.2,3.5,2.2,5.8,5.6,5.8c1.9,0,3.3-0.9,4.1-2.1l1.7,1.1c-1.1,1.8-3.4,2.9-5.9,2.9c-4.7,0-7.6-3.4-7.6-8.3
	c0-4.7,2.8-8.4,7.4-8.4C846.1,473,848.3,477.2,847.8,481.9z M841.1,474.8c-3.1,0-4.9,2.3-5.3,5.4h10
	C845.9,477.7,844.5,474.8,841.1,474.8L841.1,474.8z"/>
<path d="M867.6,489.6c-4.2,0-7-3.6-7-8.3c0-4.9,2.7-8.4,7-8.4c2.2,0,4.1,1,5.2,2.9v-10.1h2.1V485l0.8,4.2h-2.1l-0.6-3.1
	C872.1,488.3,870.3,489.6,867.6,489.6z M872.9,481.9v-1.6c-0.3-3.5-2.4-5.4-5-5.4c-3.1,0-5.1,2.7-5.1,6.4c0,3.5,2,6.2,4.9,6.2
	C870.5,487.6,872.6,485.5,872.9,481.9z"/>
<path d="M893.6,481.9h-12c0.2,3.5,2.2,5.8,5.6,5.8c1.9,0,3.3-0.9,4.1-2.1l1.7,1.1c-1.1,1.8-3.4,2.9-5.9,2.9c-4.7,0-7.6-3.4-7.6-8.3
	c0-4.7,2.8-8.4,7.4-8.4C891.9,473,894.1,477.2,893.6,481.9z M887,474.8c-3.1,0-4.9,2.3-5.3,5.4h10
	C891.7,477.7,890.3,474.8,887,474.8z"/>
<path d="M902.8,474.7c-1.7,0-2.9,0.9-2.9,2.6c0,1.6,1.2,2.1,3.8,3.1c2.4,0.9,4.5,2.1,4.5,4.9c0,3.2-2.6,4.3-5.3,4.3
	c-3.5,0-5.5-2-5.9-4.5l2-0.6c0.4,2.1,1.8,3.3,4,3.3c1.5,0,3.1-0.6,3.1-2.5c0-1.9-1.8-2.7-3.7-3.4c-2.9-1.1-4.6-2.1-4.6-4.6
	c0-2.7,2.1-4.3,5-4.3c2.9,0,4.9,1.6,5.3,4.1l-1.8,0.6C905.9,475.7,904.5,474.7,902.8,474.7z"/>
<path d="M928.6,489.6c-4.3,0-7-3.5-7-8.4c0-4.7,2.7-8.3,7-8.3c2.5,0,4.2,1.2,5.3,3v-2.7h2.1V485l0.8,4.2h-2.1l-0.6-3
	C932.9,488.4,931,489.6,928.6,489.6z M933.8,482.5v-2.2c-0.4-3.3-2.5-5.3-5.1-5.3c-2.9,0-4.9,2.8-4.9,6.2c0,3.8,2,6.4,5.1,6.4
	C931.3,487.6,933.4,485.8,933.8,482.5z"/>
<path d="M943.9,489.3h-2.1v-11.8l-0.8-4.2h2.1l0.6,3l5.3-3.7v2.4l-5.1,3.5L943.9,489.3z"/>
<path d="M956.5,489.3h-2.1v-14.2h-2.6v-1.8h2.6v-4.5l2.1-0.4v4.8h4.6v1.8h-4.6L956.5,489.3z"/>
<path d="M968.9,474.7c-1.7,0-2.9,0.9-2.9,2.6c0,1.6,1.2,2.1,3.8,3.1c2.4,0.9,4.5,2.1,4.5,4.9c0,3.2-2.6,4.3-5.3,4.3
	c-3.5,0-5.5-2-5.9-4.5l2-0.6c0.4,2.1,1.8,3.3,4,3.3c1.5,0,3.1-0.6,3.1-2.5c0-1.9-1.8-2.7-3.7-3.4c-2.9-1.1-4.6-2.1-4.6-4.6
	c0-2.7,2.1-4.3,5-4.3c2.9,0,4.9,1.6,5.3,4.1l-1.8,0.6C972,475.7,970.6,474.7,968.9,474.7z"/>
<path d="M780.7,523.4h-12c0.2,3.5,2.2,5.8,5.6,5.8c1.9,0,3.3-0.9,4.1-2.1l1.7,1.1c-1.1,1.8-3.4,2.9-5.9,2.9c-4.7,0-7.6-3.4-7.6-8.3
	c0-4.7,2.8-8.4,7.4-8.4C779,514.4,781.2,518.6,780.7,523.4z M774,516.3c-3.1,0-4.9,2.3-5.3,5.4h10
	C778.8,519.2,777.4,516.3,774,516.3z"/>
<path d="M787.5,530.7h-2.1v-14.2h-2.6v-1.8h2.6v-4.5l2.1-0.4v4.8h4.5v1.8h-4.5L787.5,530.7z"/>
<path d="M807.6,531c-4.2,0-7-3.6-7-8.3c0-4.9,2.7-8.4,7-8.4c2.2,0,4.1,1,5.2,2.9v-10.1h2.1v19.3l0.8,4.2h-2.1l-0.6-3.1
	C812.1,529.7,810.3,531,807.6,531z M812.9,523.4v-1.6c-0.3-3.5-2.4-5.4-5-5.4c-3.1,0-5.1,2.7-5.1,6.4c0,3.5,2,6.2,4.9,6.2
	C810.5,529.1,812.6,526.9,812.9,523.4z"/>
<path d="M833,523.4h-12c0.2,3.5,2.2,5.8,5.6,5.8c1.9,0,3.3-0.9,4.1-2.1l1.7,1.1c-1.1,1.8-3.4,2.9-5.9,2.9c-4.7,0-7.6-3.4-7.6-8.3
	c0-4.7,2.8-8.4,7.4-8.4C831.3,514.4,833.5,518.6,833,523.4z M826.3,516.3c-3.1,0-4.9,2.3-5.3,5.4h10
	C831.1,519.2,829.7,516.3,826.3,516.3z"/>
<path d="M841.6,516.1c-1.7,0-2.9,0.9-2.9,2.6c0,1.6,1.2,2.1,3.8,3.1c2.4,0.9,4.5,2.1,4.5,4.9c0,3.2-2.6,4.3-5.3,4.3
	c-3.5,0-5.5-2-5.9-4.5l2-0.6c0.4,2.1,1.8,3.3,4,3.3c1.5,0,3.1-0.6,3.1-2.5c0-1.9-1.8-2.7-3.7-3.4c-2.9-1.1-4.6-2.1-4.6-4.6
	c0-2.7,2.1-4.3,5-4.3c2.9,0,4.9,1.6,5.3,4.1L845,519C844.6,517.2,843.3,516.1,841.6,516.1z"/>
<path d="M863.5,516.1c-1.7,0-2.9,0.9-2.9,2.6c0,1.6,1.2,2.1,3.8,3.1c2.4,0.9,4.5,2.1,4.5,4.9c0,3.2-2.6,4.3-5.3,4.3
	c-3.5,0-5.5-2-5.9-4.5l2-0.6c0.4,2.1,1.8,3.3,4,3.3c1.5,0,3.1-0.6,3.1-2.5c0-1.9-1.8-2.7-3.7-3.4c-2.9-1.1-4.6-2.1-4.6-4.6
	c0-2.7,2.1-4.3,5-4.3c2.9,0,4.9,1.6,5.3,4.1l-1.8,0.6C866.5,517.2,865.2,516.1,863.5,516.1z"/>
<path d="M879.9,516.3c-3.1,0-5.3,2.7-5.3,6.4c0,3.7,2.2,6.3,5.6,6.3c2.3,0,3.7-1.2,4.4-2.5l1.7,1c-0.9,1.7-2.9,3.5-6.2,3.5
	c-4.6,0-7.5-3.6-7.5-8.4c0-4.8,2.9-8.3,7.3-8.3c3.7,0,5.5,2.2,6.2,3.7l-1.6,0.9C883.8,517.8,882.4,516.3,879.9,516.3z"/>
<path d="M910.1,523.4h-12c0.2,3.5,2.2,5.8,5.6,5.8c1.9,0,3.3-0.9,4.1-2.1l1.7,1.1c-1.1,1.8-3.4,2.9-5.9,2.9c-4.7,0-7.6-3.4-7.6-8.3
	c0-4.7,2.8-8.4,7.4-8.4C908.3,514.4,910.5,518.6,910.1,523.4z M903.4,516.3c-3.1,0-4.9,2.3-5.3,5.4h10
	C908.1,519.2,906.8,516.3,903.4,516.3L903.4,516.3z"/>
<path d="M926.4,520.3v10.4h-2.2v-10.2c0-2.6-1.3-4.3-3.8-4.3c-1.6,0-3.3,1.1-4.2,2.8v11.7h-2.1v-11.8l-0.8-4.2h2.1l0.4,2.4
	c0.9-1.4,2.6-2.7,5-2.7C924.2,514.4,926.4,516.8,926.4,520.3z"/>
<path d="M937.6,516.3c-3.1,0-5.3,2.7-5.3,6.4c0,3.7,2.2,6.3,5.6,6.3c2.3,0,3.7-1.2,4.4-2.5l1.7,1c-0.9,1.7-2.9,3.5-6.2,3.5
	c-4.6,0-7.5-3.6-7.5-8.4c0-4.8,2.9-8.3,7.3-8.3c3.7,0,5.5,2.2,6.2,3.7l-1.6,0.9C941.5,517.8,940.1,516.3,937.6,516.3z"/>
<path d="M960.4,523.4h-12c0.2,3.5,2.2,5.8,5.6,5.8c1.9,0,3.3-0.9,4.1-2.1l1.7,1.1c-1.1,1.8-3.4,2.9-5.9,2.9c-4.7,0-7.6-3.4-7.6-8.3
	c0-4.7,2.8-8.4,7.4-8.4C958.7,514.4,960.9,518.6,960.4,523.4z M953.7,516.3c-3.1,0-4.9,2.3-5.3,5.4h10
	C958.5,519.2,957.1,516.3,953.7,516.3L953.7,516.3z"/>
<path d="M968.9,516.1c-1.7,0-2.9,0.9-2.9,2.6c0,1.6,1.2,2.1,3.8,3.1c2.4,0.9,4.5,2.1,4.5,4.9c0,3.2-2.6,4.3-5.3,4.3
	c-3.5,0-5.5-2-5.9-4.5l2-0.6c0.4,2.1,1.8,3.3,4,3.3c1.5,0,3.1-0.6,3.1-2.5c0-1.9-1.8-2.7-3.7-3.4c-2.9-1.1-4.6-2.1-4.6-4.6
	c0-2.7,2.1-4.3,5-4.3c2.9,0,4.9,1.6,5.3,4.1l-1.8,0.6C972,517.2,970.6,516.1,968.9,516.1z"/>
<polygon points="805.5,471.1 807.9,471.1 803.6,465.8 801.1,465.8 "/>
<path d="M805.5,473c-4.6,0-7.4,3.7-7.4,8.4c0,4.9,2.9,8.3,7.6,8.3c2.5,0,4.8-1.2,5.9-2.9l-1.7-1.1c-0.8,1.2-2.2,2.1-4.1,2.1
	c-3.4,0-5.4-2.3-5.6-5.8h12C812.7,477.2,810.5,473,805.5,473z M800.3,480.2c0.4-3.1,2.2-5.4,5.3-5.4c3.4,0,4.8,2.9,4.8,5.4H800.3z"
	/>
<rect x="759.8" y="499.3" width="221.4" height="1.6"/>
<path d="M748.4,530.2v-23.6c0-4.2-2.3-5.8-5-6.6c2.7-0.8,5-2.4,5-6.6v-23.6c0-6.1,2.7-8.7,9.2-8.7h2.2v-1.6h-2.2
	c-7.3,0-10.8,3.4-10.8,10.3v23.6c0,3.7-2,4.8-5.7,5.5v2.3c3.7,0.7,5.7,1.8,5.7,5.5v23.6c0,7,3.5,10.4,10.8,10.4h2.2v-1.6h-2.2
	C751.2,538.9,748.4,536.3,748.4,530.2z"/>
<path d="M994.3,493.4v-23.6c0-7-3.5-10.3-10.8-10.3h-2.2v1.6h2.2c6.4,0,9.2,2.6,9.2,8.7v23.6c0,4.2,2.3,5.8,5,6.6
	c-2.7,0.8-5,2.4-5,6.6v23.6c0,6.1-2.7,8.7-9.2,8.7h-2.2v1.6h2.2c7.3,0,10.8-3.4,10.8-10.4v-23.6c0-3.7,2-4.8,5.7-5.5v-2.3
	C996.3,498.2,994.3,497.1,994.3,493.4z"/>
<rect x="889.9" y="507.2" width="2.1" height="3.7"/>
<rect x="889.9" y="514.7" width="2.1" height="16"/>
</svg>
