<?xml version="1.0" encoding="utf-8"?>
<!-- Generator: Adobe Illustrator 18.0.0, SVG Export Plug-In . SVG Version: 6.00 Build 0)  -->
<!DOCTYPE svg PUBLIC "-//W3C//DTD SVG 1.1//EN" "http://www.w3.org/Graphics/SVG/1.1/DTD/svg11.dtd">
<svg version="1.1" id="Calque_1" xmlns="http://www.w3.org/2000/svg" xmlns:xlink="http://www.w3.org/1999/xlink" x="0px" y="0px"
	 viewBox="459 0 82 1000" enable-background="new 459 0 82 1000" xml:space="preserve">
<g>
	<title>Plan de travail 3</title>
	<path id="_Tracé_transparent_" d="M522.3,990.7v-26h8.6v35.3h-60.4v-9.3H522.3z"/>
	<path id="_Tracé_transparent_2" d="M530.9,917.6l-15.2,5.3v23.3l15.2,5.3v10L470.5,940V929l60.4-21.4V917.6z M507.2,943.2v-17.4
		l-25.2,8.7L507.2,943.2z"/>
	<path id="_Tracé_transparent_3" d="M530.9,838.7v12l-23.1,22.4h23v9h-60.4v-19.4c0-6.3,1.6-11.2,4.8-14.6
		c3.2-3.4,7.5-5.1,12.8-5.1c5.5,0,9.7,1.7,12.7,5.1c3,3.4,4.4,8.2,4.4,14.5v1.2L530.9,838.7z M478.9,862.7v10.5h18.8v-10.4
		c0-3.4-0.9-6-2.6-7.8s-4.1-2.7-7-2.7c-2.8,0-5.1,0.9-6.7,2.7C479.8,856.7,478.9,859.3,478.9,862.7L478.9,862.7z"/>
	<path id="_Tracé_transparent_4" d="M522.4,823v-25.6h8.5v34.9h-60.4v-34h8.5V823h16.9v-22.5h8.5V823H522.4z"/>
	<path id="_Tracé_transparent_5" d="M470.5,786.7v-9.3h60.4v9.3H470.5z"/>
	<path id="_Tracé_transparent_6" d="M470.5,728.1v-8.9h60.4v9l-44,27.8h44v8.9h-60.4v-9l44-27.8L470.5,728.1z"/>
	<path id="_Tracé_transparent_7" d="M522.4,697.3v-25.6h8.5v34.9h-60.4v-34h8.5v24.7h16.9v-22.5h8.5v22.5H522.4z"/>
	<path id="_Tracé_transparent_8" d="M499.5,612.4c1.1-3.3,3-5.9,5.7-7.8c2.7-1.8,5.9-2.8,9.6-2.8c4.8,0,8.7,1.7,11.7,5
		c2.9,3.3,4.4,8.2,4.4,14.5v21h-60.4v-21.7c0-5.4,1.4-9.7,4.2-12.8s6.5-4.7,11-4.7c3.3,0,6.2,0.9,8.6,2.6
		C496.7,607.6,498.4,609.7,499.5,612.4z M478.8,620.8v12.4h16.5v-12.5c0-2.9-0.8-5.1-2.3-6.7c-1.5-1.6-3.5-2.4-6-2.4
		c-2.4,0-4.4,0.8-5.9,2.4C479.6,615.6,478.8,617.8,478.8,620.8z M522.6,621.6c0-3.5-0.8-6.1-2.4-7.9c-1.6-1.8-3.8-2.7-6.7-2.7
		c-3.1,0-5.5,1-7.2,3s-2.5,4.8-2.5,8.6v10.6h18.8V621.6z"/>
	<path id="_Tracé_transparent_9" d="M522.3,583.1v-26h8.6v35.3h-60.4v-9.3H522.3z"/>
	<path id="_Tracé_transparent_10" d="M530.9,510l-15.2,5.3v23.3l15.2,5.3v10l-60.4-21.4v-11.1l60.4-21.4V510z M507.2,535.6v-17.4
		l-25.2,8.7L507.2,535.6z"/>
	<path id="_Tracé_transparent_11" d="M470.5,456.6v-8.9h60.4v9l-44,27.8h44v8.9h-60.4v-9l44-27.8H470.5z"/>
	<path id="_Tracé_transparent_12" d="M488.7,393.5c-2.8,1-5.2,2.9-7.1,5.6c-1.9,2.7-2.8,6-2.8,10.1c0,5.8,2.1,10.4,6.3,13.9
		s9.4,5.2,15.6,5.2c6.1,0,11.3-1.7,15.6-5.1c4.3-3.4,6.4-8,6.4-13.9c0-4.3-1-7.8-3-10.5c-2-2.7-4.3-4.7-6.9-5.9l4.1-8.6
		c4,2,7.4,5.1,10.4,9.3c3,4.2,4.4,9.4,4.4,15.8c0,8.5-2.8,15.4-8.5,20.8c-5.6,5.3-13.2,8-22.5,8c-9.3,0-16.9-2.6-22.6-7.9
		c-5.7-5.3-8.6-12.1-8.6-20.4c0-6.5,1.5-11.9,4.4-16.1c3-4.2,6.5-7.1,10.6-8.7L488.7,393.5z"/>
	<path id="_Tracé_transparent_13" d="M470.5,338.8v-9.5h60.4v9.5h-26.3v26.9h26.3v9.5h-60.4v-9.5h25.5v-26.9H470.5z"/>
	<path id="_Tracé_transparent_14" d="M522.2,307.4v-25.6h8.5v34.9h-60.4v-34h8.5v24.7h16.9v-22.5h8.5v22.5H522.2z"/>
	<path d="M474.7,227.7c0,1.7,0.9,2.9,2.6,2.9c1.6,0,2.1-1.2,3.1-3.8c0.9-2.4,2.1-4.5,4.9-4.5c3.2,0,4.3,2.6,4.3,5.3
		c0,3.5-2,5.5-4.5,5.9l-0.6-2c2.1-0.4,3.3-1.8,3.3-4c0-1.5-0.6-3.1-2.5-3.1c-1.9,0-2.7,1.8-3.4,3.7c-1.1,2.9-2.1,4.6-4.6,4.6
		c-2.7,0-4.3-2.1-4.3-5c0-2.9,1.6-4.9,4.1-5.3l0.6,1.8C475.7,224.6,474.7,226,474.7,227.7z"/>
	<path d="M474.9,211.2c0,3.1,2.7,5.3,6.4,5.3c3.7,0,6.3-2.2,6.3-5.6c0-2.3-1.2-3.7-2.5-4.4l1-1.7c1.7,0.9,3.5,2.9,3.5,6.2
		c0,4.6-3.6,7.5-8.4,7.5c-4.8,0-8.3-2.9-8.3-7.3c0-3.7,2.2-5.5,3.7-6.2l0.9,1.6C476.3,207.3,474.9,208.7,474.9,211.2z"/>
	<path d="M478.9,170.8h10.4v2.2h-10.2c-2.6,0-4.3,1.3-4.3,3.8c0,1.6,1.1,3.3,2.8,4.2h11.7v2.1h-11.8l-4.2,0.8v-2.1l2.4-0.4
		c-1.4-0.9-2.7-2.6-2.7-5C472.9,172.9,475.4,170.8,478.9,170.8z"/>
	<path d="M481.9,152.2v12c3.5-0.2,5.8-2.2,5.8-5.6c0-1.9-0.9-3.3-2.1-4.1l1.1-1.7c1.8,1.1,2.9,3.4,2.9,5.9c0,4.7-3.4,7.6-8.3,7.6
		c-4.7,0-8.4-2.8-8.4-7.4C473,153.9,477.2,151.7,481.9,152.2z M474.8,158.9c0,3.1,2.3,4.9,5.4,5.3v-10
		C477.7,154.1,474.8,155.5,474.8,158.9L474.8,158.9z"/>
	<path d="M489.6,132.4c0,4.2-3.6,7-8.3,7c-4.9,0-8.4-2.7-8.4-7c0-2.2,1-4.1,2.9-5.2h-10.1V125H485l4.2-0.8v2.1l-3.1,0.6
		C488.3,127.9,489.6,129.7,489.6,132.4z M481.9,127.1h-1.6c-3.5,0.3-5.4,2.4-5.4,5c0,3.1,2.7,5.1,6.4,5.1c3.5,0,6.2-2,6.2-4.9
		C487.6,129.5,485.5,127.4,481.9,127.1z"/>
	<path d="M481.9,106.4v12c3.5-0.2,5.8-2.2,5.8-5.6c0-1.9-0.9-3.3-2.1-4.1l1.1-1.7c1.8,1.1,2.9,3.4,2.9,5.9c0,4.7-3.4,7.6-8.3,7.6
		c-4.7,0-8.4-2.8-8.4-7.4C473,108.1,477.2,105.9,481.9,106.4z M474.8,113c0,3.1,2.3,4.9,5.4,5.3v-10
		C477.7,108.3,474.8,109.7,474.8,113z"/>
	<path d="M474.7,97.2c0,1.7,0.9,2.9,2.6,2.9c1.6,0,2.1-1.2,3.1-3.8c0.9-2.4,2.1-4.5,4.9-4.5c3.2,0,4.3,2.6,4.3,5.3
		c0,3.5-2,5.5-4.5,5.9l-0.6-2c2.1-0.4,3.3-1.8,3.3-4c0-1.5-0.6-3.1-2.5-3.1c-1.9,0-2.7,1.8-3.4,3.7c-1.1,2.9-2.1,4.6-4.6,4.6
		c-2.7,0-4.3-2.1-4.3-5c0-2.9,1.6-4.9,4.1-5.3l0.6,1.8C475.7,94.1,474.7,95.5,474.7,97.2z"/>
	<path d="M489.6,71.4c0,4.3-3.5,7-8.4,7c-4.7,0-8.3-2.7-8.3-7c0-2.5,1.2-4.2,3-5.3h-2.7V64H485l4.2-0.8v2.1l-3,0.6
		C488.4,67.1,489.6,69,489.6,71.4z M482.5,66.2h-2.2c-3.3,0.4-5.3,2.5-5.3,5.1c0,2.9,2.8,4.9,6.2,4.9c3.8,0,6.4-2,6.4-5.1
		C487.6,68.7,485.8,66.6,482.5,66.2z"/>
	<path d="M489.3,56.1v2.1h-11.8l-4.2,0.8v-2.1l3-0.6l-3.7-5.3h2.4l3.5,5.1L489.3,56.1z"/>
	<path d="M489.3,43.5v2.1h-14.2v2.6h-1.8v-2.6h-4.5l-0.4-2.1h4.8V39h1.8v4.6L489.3,43.5z"/>
	<path d="M474.7,31.1c0,1.7,0.9,2.9,2.6,2.9c1.6,0,2.1-1.2,3.1-3.8c0.9-2.4,2.1-4.5,4.9-4.5c3.2,0,4.3,2.6,4.3,5.3
		c0,3.5-2,5.5-4.5,5.9l-0.6-2c2.1-0.4,3.3-1.8,3.3-4c0-1.5-0.6-3.1-2.5-3.1c-1.9,0-2.7,1.8-3.4,3.7c-1.1,2.9-2.1,4.6-4.6,4.6
		c-2.7,0-4.3-2.1-4.3-5c0-2.9,1.6-4.9,4.1-5.3l0.6,1.8C475.7,28,474.7,29.4,474.7,31.1z"/>
	<path d="M523.4,219.3v12c3.5-0.2,5.8-2.2,5.8-5.6c0-1.9-0.9-3.3-2.1-4.1l1.1-1.7c1.8,1.1,2.9,3.4,2.9,5.9c0,4.7-3.4,7.6-8.3,7.6
		c-4.7,0-8.4-2.8-8.4-7.4C514.4,221,518.6,218.8,523.4,219.3z M516.3,226c0,3.1,2.3,4.9,5.4,5.3v-10
		C519.2,221.2,516.3,222.6,516.3,226z"/>
	<path d="M530.7,212.5v2.1h-14.2v2.6h-1.8v-2.6h-4.5l-0.4-2.1h4.8V208h1.8v4.5L530.7,212.5z"/>
	<path d="M531,192.4c0,4.2-3.6,7-8.3,7c-4.9,0-8.4-2.7-8.4-7c0-2.2,1-4.1,2.9-5.2h-10.1v-2.1h19.3l4.2-0.8v2.1l-3.1,0.6
		C529.7,187.9,531,189.7,531,192.4z M523.4,187.1h-1.6c-3.5,0.3-5.4,2.4-5.4,5c0,3.1,2.7,5.1,6.4,5.1c3.5,0,6.2-2,6.2-4.9
		C529.1,189.5,526.9,187.4,523.4,187.1z"/>
	<path d="M523.4,167v12c3.5-0.2,5.8-2.2,5.8-5.6c0-1.9-0.9-3.3-2.1-4.1l1.1-1.7c1.8,1.1,2.9,3.4,2.9,5.9c0,4.7-3.4,7.6-8.3,7.6
		c-4.7,0-8.4-2.8-8.4-7.4C514.4,168.7,518.6,166.5,523.4,167z M516.3,173.7c0,3.1,2.3,4.9,5.4,5.3v-10
		C519.2,168.9,516.3,170.3,516.3,173.7z"/>
	<path d="M516.1,158.4c0,1.7,0.9,2.9,2.6,2.9c1.6,0,2.1-1.2,3.1-3.8c0.9-2.4,2.1-4.5,4.9-4.5c3.2,0,4.3,2.6,4.3,5.3
		c0,3.5-2,5.5-4.5,5.9l-0.6-2c2.1-0.4,3.3-1.8,3.3-4c0-1.5-0.6-3.1-2.5-3.1c-1.9,0-2.7,1.8-3.4,3.7c-1.1,2.9-2.1,4.6-4.6,4.6
		c-2.7,0-4.3-2.1-4.3-5c0-2.9,1.6-4.9,4.1-5.3l0.6,1.8C517.2,155.4,516.1,156.7,516.1,158.4z"/>
	<path d="M516.1,136.5c0,1.7,0.9,2.9,2.6,2.9c1.6,0,2.1-1.2,3.1-3.8c0.9-2.4,2.1-4.5,4.9-4.5c3.2,0,4.3,2.6,4.3,5.3
		c0,3.5-2,5.5-4.5,5.9l-0.6-2c2.1-0.4,3.3-1.8,3.3-4c0-1.5-0.6-3.1-2.5-3.1c-1.9,0-2.7,1.8-3.4,3.7c-1.1,2.9-2.1,4.6-4.6,4.6
		c-2.7,0-4.3-2.1-4.3-5c0-2.9,1.6-4.9,4.1-5.3l0.6,1.8C517.2,133.5,516.1,134.8,516.1,136.5z"/>
	<path d="M516.3,120.1c0,3.1,2.7,5.3,6.4,5.3c3.7,0,6.3-2.2,6.3-5.6c0-2.3-1.2-3.7-2.5-4.4l1-1.7c1.7,0.9,3.5,2.9,3.5,6.2
		c0,4.6-3.6,7.5-8.4,7.5c-4.8,0-8.3-2.9-8.3-7.3c0-3.7,2.2-5.5,3.7-6.2l0.9,1.6C517.8,116.2,516.3,117.6,516.3,120.1z"/>
	<path d="M523.4,89.9v12c3.5-0.2,5.8-2.2,5.8-5.6c0-1.9-0.9-3.3-2.1-4.1l1.1-1.7c1.8,1.1,2.9,3.4,2.9,5.9c0,4.7-3.4,7.6-8.3,7.6
		c-4.7,0-8.4-2.8-8.4-7.4C514.4,91.7,518.6,89.5,523.4,89.9z M516.3,96.6c0,3.1,2.3,4.9,5.4,5.3v-10
		C519.2,91.9,516.3,93.2,516.3,96.6L516.3,96.6z"/>
	<path d="M520.3,73.6h10.4v2.2h-10.2c-2.6,0-4.3,1.3-4.3,3.8c0,1.6,1.1,3.3,2.8,4.2h11.7v2.1h-11.8l-4.2,0.8v-2.1l2.4-0.4
		c-1.4-0.9-2.7-2.6-2.7-5C514.4,75.8,516.8,73.6,520.3,73.6z"/>
	<path d="M516.3,62.4c0,3.1,2.7,5.3,6.4,5.3c3.7,0,6.3-2.2,6.3-5.6c0-2.3-1.2-3.7-2.5-4.4l1-1.7c1.7,0.9,3.5,2.9,3.5,6.2
		c0,4.6-3.6,7.5-8.4,7.5c-4.8,0-8.3-2.9-8.3-7.3c0-3.7,2.2-5.5,3.7-6.2l0.9,1.6C517.8,58.5,516.3,59.9,516.3,62.4z"/>
	<path d="M523.4,39.6v12c3.5-0.2,5.8-2.2,5.8-5.6c0-1.9-0.9-3.3-2.1-4.1l1.1-1.7c1.8,1.1,2.9,3.4,2.9,5.9c0,4.7-3.4,7.6-8.3,7.6
		c-4.7,0-8.4-2.8-8.4-7.4C514.4,41.3,518.6,39.1,523.4,39.6z M516.3,46.3c0,3.1,2.3,4.9,5.4,5.3v-10
		C519.2,41.5,516.3,42.9,516.3,46.3L516.3,46.3z"/>
	<path d="M516.1,31.1c0,1.7,0.9,2.9,2.6,2.9c1.6,0,2.1-1.2,3.1-3.8c0.9-2.4,2.1-4.5,4.9-4.5c3.2,0,4.3,2.6,4.3,5.3
		c0,3.5-2,5.5-4.5,5.9l-0.6-2c2.1-0.4,3.3-1.8,3.3-4c0-1.5-0.6-3.1-2.5-3.1c-1.9,0-2.7,1.8-3.4,3.7c-1.1,2.9-2.1,4.6-4.6,4.6
		c-2.7,0-4.3-2.1-4.3-5c0-2.9,1.6-4.9,4.1-5.3l0.6,1.8C517.2,28,516.1,29.4,516.1,31.1z"/>
	<polygon points="471.1,194.5 471.1,192.1 465.8,196.4 465.8,198.9 	"/>
	<path d="M473,194.5c0,4.6,3.7,7.4,8.4,7.4c4.9,0,8.3-2.9,8.3-7.6c0-2.5-1.2-4.8-2.9-5.9l-1.1,1.7c1.2,0.8,2.1,2.2,2.1,4.1
		c0,3.4-2.3,5.4-5.8,5.6v-12C477.2,187.3,473,189.5,473,194.5z M480.2,199.7c-3.1-0.4-5.4-2.2-5.4-5.3c0-3.4,2.9-4.8,5.4-4.8V199.7z
		"/>
	<rect x="499.3" y="18.8" width="1.6" height="221.4"/>
	<path d="M530.2,251.6h-23.6c-4.2,0-5.8,2.3-6.6,5c-0.8-2.7-2.4-5-6.6-5h-23.6c-6.1,0-8.7-2.7-8.7-9.2v-2.2h-1.6v2.2
		c0,7.3,3.4,10.8,10.3,10.8h23.6c3.7,0,4.8,2,5.5,5.7h2.3c0.7-3.7,1.8-5.7,5.5-5.7h23.6c7,0,10.4-3.5,10.4-10.8v-2.2h-1.6v2.2
		C538.9,248.8,536.3,251.6,530.2,251.6z"/>
	<path d="M493.4,5.7h-23.6c-7,0-10.3,3.5-10.3,10.8v2.2h1.6v-2.2c0-6.4,2.6-9.2,8.7-9.2h23.6c4.2,0,5.8-2.3,6.6-5
		c0.8,2.7,2.4,5,6.6,5h23.6c6.1,0,8.7,2.7,8.7,9.2v2.2h1.6v-2.2c0-7.3-3.4-10.8-10.4-10.8h-23.6c-3.7,0-4.8-2-5.5-5.7l-2.3,0
		C498.2,3.7,497.1,5.7,493.4,5.7z"/>
	<rect x="507.2" y="107.9" width="3.7" height="2.1"/>
	<rect x="514.7" y="107.9" width="16" height="2.1"/>
</g>
</svg>
