<svg id="Calque_1" data-name="Calque 1" xmlns="http://www.w3.org/2000/svg" viewBox="0 0 7982.78 647.79"><defs><style>.cls-1{fill:#1d1d1b;}</style></defs><title>Plan de travail 3</title><path id="_Tracé_transparent_" data-name="&lt;Tracé transparent&gt;" class="cls-1" d="M74.45,501.63H281.93v68.94H0V88.05H74.45Z"/><path id="_Tracé_transparent_2" data-name="&lt;Tracé transparent&gt;" class="cls-1" d="M658,570.57,616,449.25H429.88l-42,121.32h-80L478.82,88.05h88.23L738,570.57ZM453.32,381.69H592.55L522.94,180.42Z"/><path id="_Tracé_transparent_3" data-name="&lt;Tracé transparent&gt;" class="cls-1" d="M1287.36,570.57h-95.81L1013,386.53v184H941.33V88.05h155.1q75.81,0,116.49,38.6t40.67,102q0,65.49-40.33,101T1097.8,365.15h-9.64Zm-190.93-415H1013V305.87h83.41q40.66,0,62.38-21t21.71-55.49q0-33.77-21.71-53.77T1096.43,155.61Z"/><path id="_Tracé_transparent_4" data-name="&lt;Tracé transparent&gt;" class="cls-1" d="M1412.82,502.32h204v68.25H1338.37V88.05H1610V156.3H1412.82V291.4h179.91V359H1412.82Z"/><path id="_Tracé_transparent_5" data-name="&lt;Tracé transparent&gt;" class="cls-1" d="M1702.6,88.05h74.45V570.57H1702.6Z"/><path id="_Tracé_transparent_6" data-name="&lt;Tracé transparent&gt;" class="cls-1" d="M2170.63,88.05h71V570.57h-71.68L1948,219V570.57h-71V88.05h71.68l222,351.55Z"/><path id="_Tracé_transparent_7" data-name="&lt;Tracé transparent&gt;" class="cls-1" d="M2416,502.32h204v68.25H2341.57V88.05h271.58V156.3H2416V291.4h179.9V359H2416Z"/><path id="_Tracé_transparent_8" data-name="&lt;Tracé transparent&gt;" class="cls-1" d="M3094.28,319.66q40,13.09,62,45.84t22.06,76.86q0,57.9-40,93t-115.8,35.16h-167.5V88.05h173q64.77,0,102,33.43t37.23,87.89q0,40-20.68,68.93T3094.28,319.66Zm-66.86-164.75h-99.26V286.58h100q34.44,0,53.42-18.27t18.95-47.92q0-28.93-18.95-47.21T3027.42,154.91Zm-6.89,349.48q41.35,0,63.06-18.95T3105.3,432q0-37.22-23.77-57.56t-68.6-20.34h-84.77V504.39Z"/><path id="_Tracé_transparent_9" data-name="&lt;Tracé transparent&gt;" class="cls-1" d="M3327.94,501.63h207.48v68.94H3253.5V88.05h74.44Z"/><path id="_Tracé_transparent_10" data-name="&lt;Tracé transparent&gt;" class="cls-1" d="M3911.54,570.57l-42-121.32H3683.38l-42.06,121.32h-80l171-482.52h88.22l171,482.52ZM3706.81,381.69h139.25l-69.62-201.27Z"/><path id="_Tracé_transparent_11" data-name="&lt;Tracé transparent&gt;" class="cls-1" d="M4338.21,88.05h71V570.57h-71.69L4115.57,219V570.57h-71V88.05h71.69L4338.21,439.6Z"/><path id="_Tracé_transparent_12" data-name="&lt;Tracé transparent&gt;" class="cls-1" d="M4841.4,233.49Q4829,199.72,4797,177t-80.31-22.75q-69.63,0-111,50.66t-41.36,124.43q0,73.07,41,124.42T4716,505.08q51,0,83.74-23.77t47.22-54.81l68.93,32.4q-24.15,47.57-74.1,83.06T4716,577.46q-102,0-165.79-67.56T4486.41,330q0-111.65,63.08-180.25t163-68.58q77.86,0,128.21,35.5t69.61,84.44Z"/><path id="_Tracé_transparent_13" data-name="&lt;Tracé transparent&gt;" class="cls-1" d="M5278.4,88.05h75.82V570.57H5278.4V360.33H5064V570.57h-75.82V88.05H5064V291.4H5278.4Z"/><path id="_Tracé_transparent_14" data-name="&lt;Tracé transparent&gt;" class="cls-1" d="M5528.61,500.9h204v68.24H5454.17V86.63h271.59v68.24H5528.61V290h179.92v67.55H5528.61Z"/><path class="cls-1" d="M6165.49,121.89c-13.3,0-23,7.44-23,20.74,0,12.52,9.45,16.37,30.7,24.55,19.17,7.17,36.05,16.62,36.05,39.4,0,25.31-21,34.27-42.19,34.27-27.63,0-43.76-16.13-47.34-36.32l15.62-4.87c2.8,16.37,14,26.6,31.72,26.6,12,0,25.07-4.61,25.07-19.68,0-15.35-14.6-21.49-29.43-27.39-23.27-8.94-37.08-17.12-37.08-36.83,0-21.73,16.88-34.52,39.63-34.52,23,0,39.4,13,42.22,32.47l-14.32,4.61C6190.05,130.08,6179,121.89,6165.49,121.89Z"/><path class="cls-1" d="M6297,123.43c-24.83,0-42.22,21.24-42.22,51.43,0,29.16,17.39,50.38,44.5,50.38,18.18,0,29.44-9.72,34.79-20l13.82,7.95c-7.17,13.54-23,27.62-49.63,27.62-36.56,0-60.1-28.65-60.1-66.77,0-38.37,23-66.24,58.57-66.24,29.43,0,44,17.39,49.38,29.91L6333,145.19C6327.88,135,6316.63,123.43,6297,123.43Z"/><path class="cls-1" d="M6619.68,155.42V238.3h-17.39V157.19c0-20.46-10.75-34.52-30.19-34.52-13,0-26.33,8.7-33.76,22.52V238.3h-17.13V144.16l-6.14-33.76H6532l3.58,18.93c6.89-11.53,21-21.49,39.63-21.49C6602.29,107.84,6619.68,127.52,6619.68,155.42Z"/><path class="cls-1" d="M6768,179.46h-95.67c1.53,27.63,17.64,46,44.75,46,15.11,0,26.6-7.17,33-16.38l13.3,8.43c-8.69,14.33-26.87,23.54-47.06,23.54-37.35,0-60.88-27.12-60.88-66,0-37.86,22-67,58.83-67C6753.93,108.08,6771.84,141.85,6768,179.46Zm-53.48-56.54c-24.55,0-39.12,18.17-41.95,43h80.08C6752.67,145.94,6741.66,122.92,6714.54,122.92Z"/><path class="cls-1" d="M6925.88,240.85c-33.76,0-55.52-28.65-55.52-66.26,0-38.88,21.76-66.75,56-66.75,17.9,0,32.74,7.91,41.68,23.53V50.54h17.15v154l6.14,33.77h-16.88l-4.61-25.07C6961.7,230.11,6947.1,240.85,6925.88,240.85Zm42.2-61.15V166.91c-2.29-28.13-19.44-43.21-39.64-43.21-25.07,0-40.93,21.49-40.93,51.4,0,27.63,15.86,49.89,39.4,49.89C6948.64,225,6965.79,207.84,6968.08,179.7Z"/><path class="cls-1" d="M7133.81,179.46h-95.67c1.53,27.63,17.63,46,44.75,46,15.1,0,26.6-7.17,33-16.38l13.3,8.43c-8.69,14.33-26.87,23.54-47.06,23.54-37.35,0-60.88-27.12-60.88-66,0-37.86,22-67,58.83-67C7119.72,108.08,7137.63,141.85,7133.81,179.46Zm-53.48-56.54c-24.56,0-39.12,18.17-41.95,43h80.08C7118.46,145.94,7107.45,122.92,7080.33,122.92Z"/><path class="cls-1" d="M7206.91,121.89c-13.3,0-23,7.44-23,20.74,0,12.52,9.48,16.37,30.69,24.55,19.2,7.17,36.09,16.62,36.09,39.4,0,25.31-21,34.27-42.22,34.27-27.63,0-43.73-16.13-47.31-36.32l15.59-4.87c2.82,16.37,14.08,26.6,31.72,26.6,12,0,25.06-4.61,25.06-19.68,0-15.35-14.56-21.49-29.4-27.39-23.29-8.94-37.1-17.12-37.1-36.83,0-21.73,16.88-34.52,39.66-34.52,23,0,39.39,13,42.19,32.47l-14.32,4.61C7231.47,130.08,7220.48,121.89,7206.91,121.89Z"/><path class="cls-1" d="M7412.89,240.85c-34.27,0-56-27.89-56-66.77,0-37.59,21.73-66.24,55.49-66.24,19.71,0,33.53,9.21,41.95,23.77V110.4h17.16v94.13l6.13,33.77h-16.88l-4.6-23.81C7447.44,231.64,7432.09,240.85,7412.89,240.85Zm41.44-56.54V166.4c-3.07-26.6-19.95-42.7-40.92-42.7-23.54,0-39.4,22.24-39.4,49.87,0,29.94,15.86,51.42,40.93,51.42C7434.65,225,7451.26,210.91,7454.33,184.31Z"/><path class="cls-1" d="M7535.14,238.3H7518V144.16l-6.14-33.76h16.88l4.6,24,42.22-29.67v19.44l-40.41,28.14Z"/><path class="cls-1" d="M7635.38,238.3H7619V125h-21V110.4h21V74.83l16.37-3.07V110.4h36.33V125h-36.33Z"/><path class="cls-1" d="M7734.85,121.89c-13.3,0-23,7.44-23,20.74,0,12.52,9.48,16.37,30.69,24.55,19.2,7.17,36.08,16.62,36.08,39.4,0,25.31-21,34.27-42.22,34.27-27.62,0-43.72-16.13-47.31-36.32l15.59-4.87c2.83,16.37,14.09,26.6,31.72,26.6,12,0,25.07-4.61,25.07-19.68,0-15.35-14.57-21.49-29.4-27.39-23.29-8.94-37.11-17.12-37.11-36.83,0-21.73,16.89-34.52,39.67-34.52,23,0,39.39,13,42.19,32.47l-14.33,4.61C7759.41,130.08,7748.42,121.89,7734.85,121.89Z"/><path class="cls-1" d="M6232.24,510.33h-95.67c1.54,27.62,17.67,46,44.78,46,15.08,0,26.61-7.16,33-16.37l13.3,8.43c-8.7,14.32-26.85,23.53-47.07,23.53-37.34,0-60.88-27.11-60.88-66,0-37.86,22-67,58.84-67C6218.19,439,6236.09,472.71,6232.24,510.33Zm-53.45-56.55c-24.55,0-39.15,18.18-41.95,43h80.06C6216.9,476.81,6205.91,453.78,6178.79,453.78Z"/><path class="cls-1" d="M6286.18,569.16H6269.8V455.83h-21V441.26h21V405.69l16.38-3.07v38.64h36.32v14.57h-36.32Z"/><path class="cls-1" d="M6447.19,571.72c-33.76,0-55.52-28.65-55.52-66.26,0-38.89,21.76-66.75,56-66.75,17.91,0,32.75,7.91,41.69,23.53V381.41h17.15v154l6.14,33.76h-16.89l-4.6-25.07C6483,561,6468.41,571.72,6447.19,571.72Zm42.2-61.15V497.78c-2.29-28.14-19.44-43.22-39.64-43.22-25.07,0-40.93,21.49-40.93,51.41,0,27.62,15.86,49.89,39.4,49.89C6470,555.86,6487.1,538.71,6489.39,510.57Z"/><path class="cls-1" d="M6650,510.33h-95.67c1.54,27.62,17.64,46,44.75,46,15.11,0,26.61-7.16,33-16.37l13.31,8.43c-8.7,14.32-26.88,23.53-47.07,23.53-37.35,0-60.88-27.11-60.88-66,0-37.86,22-67,58.83-67C6635.92,439,6653.82,472.71,6650,510.33Zm-53.48-56.55c-24.55,0-39.12,18.18-42,43h80.08C6634.65,476.81,6623.64,453.78,6596.52,453.78Z"/><path class="cls-1" d="M6718,452.76c-13.3,0-23,7.43-23,20.73,0,12.52,9.47,16.37,30.69,24.56,19.2,7.16,36.08,16.61,36.08,39.39,0,25.31-21,34.28-42.22,34.28-27.62,0-43.72-16.13-47.31-36.32l15.59-4.88c2.83,16.37,14.09,26.61,31.72,26.61,12,0,25.07-4.61,25.07-19.69,0-15.34-14.57-21.48-29.4-27.38-23.29-8.94-37.11-17.13-37.11-36.84,0-21.72,16.89-34.51,39.67-34.51,23,0,39.39,13,42.19,32.47l-14.33,4.6C6742.54,461,6731.56,452.76,6718,452.76Z"/><path class="cls-1" d="M6892.74,452.76c-13.3,0-23,7.43-23,20.73,0,12.52,9.47,16.37,30.69,24.56,19.2,7.16,36.08,16.61,36.08,39.39,0,25.31-21,34.28-42.22,34.28-27.62,0-43.73-16.13-47.31-36.32l15.59-4.88c2.83,16.37,14.09,26.61,31.72,26.61,12,0,25.07-4.61,25.07-19.69,0-15.34-14.57-21.48-29.4-27.38-23.29-8.94-37.11-17.13-37.11-36.84,0-21.72,16.89-34.51,39.67-34.51,23,0,39.39,13,42.19,32.47l-14.33,4.6C6917.29,461,6906.31,452.76,6892.74,452.76Z"/><path class="cls-1" d="M7024.19,454.3c-24.8,0-42.19,21.24-42.19,51.42,0,29.17,17.39,50.38,44.51,50.38,18.14,0,29.4-9.72,34.78-20l13.82,7.94c-7.16,13.55-23,27.63-49.63,27.63-36.59,0-60.12-28.65-60.12-66.78,0-38.37,23-66.23,58.59-66.23,29.4,0,44,17.39,49.35,29.91l-13,7.43C7055.16,465.82,7043.9,454.3,7024.19,454.3Z"/><path class="cls-1" d="M7264.86,510.33h-95.67c1.53,27.62,17.66,46,44.78,46,15.07,0,26.6-7.16,33-16.37l13.3,8.43c-8.7,14.32-26.84,23.53-47.07,23.53-37.34,0-60.88-27.11-60.88-66,0-37.86,22-67,58.84-67C7250.8,439,7268.71,472.71,7264.86,510.33Zm-53.45-56.55c-24.56,0-39.15,18.18-41.95,43h80.05C7249.51,476.81,7238.52,453.78,7211.41,453.78Z"/><path class="cls-1" d="M7395.28,486.28v82.88h-17.39v-81.1c0-20.46-10.74-34.52-30.18-34.52-13.06,0-26.36,8.7-33.77,22.51v93.11h-17.15V475l-6.14-33.77h16.88l3.58,18.93c6.92-11.52,21-21.48,39.67-21.48C7377.89,438.71,7395.28,458.39,7395.28,486.28Z"/><path class="cls-1" d="M7484.76,454.3c-24.8,0-42.19,21.24-42.19,51.42,0,29.17,17.39,50.38,44.51,50.38,18.14,0,29.4-9.72,34.78-20l13.82,7.94c-7.17,13.55-23,27.63-49.63,27.63-36.59,0-60.12-28.65-60.12-66.78,0-38.37,23-66.23,58.59-66.23,29.4,0,44,17.39,49.35,29.91l-13,7.43C7515.73,465.82,7504.47,454.3,7484.76,454.3Z"/><path class="cls-1" d="M7666.86,510.33h-95.67c1.54,27.62,17.67,46,44.78,46,15.08,0,26.6-7.16,33-16.37l13.31,8.43c-8.7,14.32-26.85,23.53-47.07,23.53-37.35,0-60.88-27.11-60.88-66,0-37.86,22-67,58.83-67C7652.81,439,7670.71,472.71,7666.86,510.33Zm-53.45-56.55c-24.55,0-39.15,18.18-41.95,43h80.05C7651.51,476.81,7640.53,453.78,7613.41,453.78Z"/><path class="cls-1" d="M7734.88,452.76c-13.31,0-23,7.43-23,20.73,0,12.52,9.46,16.37,30.7,24.56,19.17,7.16,36.05,16.61,36.05,39.39,0,25.31-21,34.28-42.19,34.28-27.63,0-43.75-16.13-47.34-36.32l15.62-4.88c2.8,16.37,14.06,26.61,31.72,26.61,12,0,25.07-4.61,25.07-19.69,0-15.34-14.6-21.48-29.43-27.38-23.27-8.94-37.08-17.13-37.08-36.84,0-21.72,16.88-34.51,39.64-34.51,23,0,39.39,13,42.22,32.47l-14.33,4.6C7759.43,461,7748.42,452.76,7734.88,452.76Z"/><polygon class="cls-1" points="6430.47 93.25 6449.4 93.25 6415.28 50.54 6395.4 50.54 6430.47 93.25"/><path class="cls-1" d="M6430.45,108.08c-36.84,0-58.84,29.16-58.84,67,0,38.88,23.54,66,60.88,66,20.2,0,38.37-9.21,47.07-23.54l-13.3-8.43c-6.41,9.21-17.91,16.38-33,16.38-27.12,0-43.22-18.42-44.76-46h95.67C6488,141.85,6470.08,108.08,6430.45,108.08Zm-41.71,57.81c2.82-24.8,17.39-43,41.95-43,27.11,0,38.12,23,38.12,43Z"/><rect class="cls-1" x="6065.46" y="318.06" width="1767.61" height="13.09"/><path class="cls-1" d="M5974.67,565.16V376.59c0-33.85-18.49-46.48-40-52.7,21.47-6.2,40-18.82,40-52.69V82.62c0-48.73,21.85-69.53,73.06-69.53h17.73V0h-17.73c-58,0-86.15,27-86.15,82.62V271.2c0,29.54-16.13,38.19-45.83,43.51v18.36c29.7,5.34,45.83,14,45.83,43.52V565.16c0,55.61,28.18,82.63,86.15,82.63h17.73V634.7h-17.73C5996.52,634.7,5974.67,613.9,5974.67,565.16Z"/><path class="cls-1" d="M7937,271.2V82.62C7937,27,7908.78,0,7850.81,0h-17.74V13.09h17.74c51.21,0,73.06,20.8,73.06,69.53V271.2c0,33.87,18.48,46.49,40,52.69-21.48,6.22-40,18.85-40,52.7V565.16c0,48.74-21.85,69.54-73.06,69.54h-17.74v13.09h17.74c58,0,86.15-27,86.15-82.63V376.59c0-29.54,16.12-38.18,45.82-43.52V314.71C7953.08,309.39,7937,300.75,7937,271.2Z"/><rect class="cls-1" x="7104.24" y="381.41" width="16.88" height="29.93"/><rect class="cls-1" x="7103.97" y="441.26" width="17.15" height="127.9"/></svg>