<?xml version="1.0" encoding="utf-8"?>
<!-- Generator: Adobe Illustrator 18.0.0, SVG Export Plug-In . SVG Version: 6.00 Build 0)  -->
<!DOCTYPE svg PUBLIC "-//W3C//DTD SVG 1.1//EN" "http://www.w3.org/Graphics/SVG/1.1/DTD/svg11.dtd">
<svg version="1.1" id="Calque_1" xmlns="http://www.w3.org/2000/svg" xmlns:xlink="http://www.w3.org/1999/xlink" x="0px" y="0px"
	 viewBox="0 913 1000 87" enable-background="new 0 913 1000 87" xml:space="preserve">
<title>Plan de travail 3</title>
<g>
	<g>
		<polygon points="0,998.5 0,914.4 13,914.4 13,986.5 49.1,986.5 49.1,998.5 		"/>
	</g>
	<g>
		<path d="M67.3,998.5H53.3l29.8-84.1h15.4l29.8,84.1h-13.9l-7.3-21.1H74.6L67.3,998.5z M78.7,965.6h24.3l-12.1-35.1L78.7,965.6z"/>
	</g>
	<g>
		<path d="M189.8,924.6c-6.8,0-13,3.5-13,10.7c0,7.4,5.6,10.3,18.9,15.4c10.8,4,24.1,10.7,24.1,26.1c0,17.2-14.4,23.1-28.8,23.1
			c-18,0-28.8-9.7-31.2-23.4l13.2-3.6c1.7,9.5,8,15.4,18.4,15.4c7.6,0,14-2.9,14-11.2c0-9.2-9.4-12.7-19.9-17.1
			c-13.6-5.5-22.2-11.3-22.2-23.9c0-14.6,12-22.7,26.7-22.7c15.5,0,26.4,8.4,28.5,21.6l-12,3.2C204.6,929.4,198.1,924.6,189.8,924.6
			"/>
	</g>
	<g>
		<path d="M235.5,998.5h-13.9l29.8-84.1h15.4l29.8,84.1h-13.9l-7.3-21.1h-32.4L235.5,998.5z M246.9,965.6h24.3L259,930.5
			L246.9,965.6z"/>
	</g>
	<g>
		<polygon points="303.1,998.5 303.1,914.4 316.1,914.4 316.1,986.5 350.1,986.5 350.1,998.5 		"/>
	</g>
	<g>
		<polygon points="356.9,998.5 356.9,914.4 369.9,914.4 369.9,986.5 403.9,986.5 403.9,998.5 		"/>
	</g>
	<g>
		<polygon points="410.5,998.5 410.5,914.4 457.9,914.4 457.9,926.3 423.5,926.3 423.5,949.8 454.9,949.8 454.9,961.6 423.5,961.6 
			423.5,986.6 459.1,986.6 459.1,998.5 		"/>
	</g>
	<g>
		<path d="M554.3,976.1c0,13-8.9,22.3-27.1,22.3H498v-84.1h30.1c15.4,0,24.3,8.8,24.3,21.1c0,9.8-5.9,16.6-12.7,19.2
			C549.1,957.9,554.3,966,554.3,976.1 M528.2,949c8.3,0,12.6-4.9,12.6-11.5c0-6.5-4.3-11.4-12.7-11.4h-17.3V949H528.2z M541.6,974.3
			c0-8.5-5.5-13.6-16.1-13.6h-14.8v26.2h16.1C536.6,986.9,541.6,982.3,541.6,974.3"/>
	</g>
	<g>
		<polygon points="567.5,998.5 567.5,914.4 580.4,914.4 580.4,986.5 616.6,986.5 616.6,998.5 		"/>
	</g>
	<g>
		<path d="M635.2,998.5h-13.9l29.8-84.1h15.4l29.8,84.1h-13.9l-7.3-21.1h-32.4L635.2,998.5z M646.6,965.6h24.3l-12.1-35.1
			L646.6,965.6z"/>
	</g>
	<g>
		<polygon points="756.6,998.5 717.9,937.2 717.9,998.5 705.5,998.5 705.5,914.4 718,914.4 756.7,975.7 756.7,914.4 769,914.4 
			769,998.5 		"/>
	</g>
	<g>
		<path d="M822.4,925.9c-16.7,0-26.5,14.1-26.5,30.5c0,16.1,9.5,30.6,26.4,30.6c13.2,0,20.2-8,22.8-13.7l12,5.6
			c-4.6,9-15.3,20.7-34.8,20.7c-23.5,0-40-16.7-40-43.1c0-26.1,16.3-43.4,39.4-43.4c19.7,0,30.6,11.2,34.5,20.9l-12,5.6
			C841.5,932.5,834.3,925.9,822.4,925.9"/>
	</g>
	<g>
		<polygon points="920.8,998.5 920.8,961.8 883.5,961.8 883.5,998.5 870.2,998.5 870.2,914.4 883.5,914.4 883.5,949.8 920.8,949.8 
			920.8,914.4 934,914.4 934,998.5 		"/>
	</g>
	<g>
		<polygon points="951.5,998.5 951.5,914.4 998.8,914.4 998.8,926.3 964.5,926.3 964.5,949.8 995.8,949.8 995.8,961.6 964.5,961.6 
			964.5,986.6 1000,986.6 1000,998.5 		"/>
	</g>
</g>
</svg>
