<?xml version="1.0" encoding="utf-8"?>
<!-- Generator: Adobe Illustrator 18.0.0, SVG Export Plug-In . SVG Version: 6.00 Build 0)  -->
<!DOCTYPE svg PUBLIC "-//W3C//DTD SVG 1.1//EN" "http://www.w3.org/Graphics/SVG/1.1/DTD/svg11.dtd">
<svg xmlns="http://www.w3.org/2000/svg" viewBox="0 0 1000 1000">
  <path fill="none" stroke="#000" stroke-width="13" stroke-miterlimit="10" d="M500.1 588.2s120.4-217.9 162-364.5c3.7-13.7 5.4-27.9 5.3-42C672.1 89.3 601 10.7 508.8 6S337.9 72.4 333.2 164.7c-.3 5.6-.3 11.3 0 16.9.2 14.9 2.1 29.6 5.7 44 32.8 143.2 161.2 362.6 161.2 362.6z"/>
  <path fill="none" stroke="#000" stroke-width="13" stroke-miterlimit="10" d="M438.2 181.6c-.2-34.2 27.3-62.1 61.5-62.3s62.1 27.3 62.3 61.5-27.3 62.1-61.5 62.3h-.4c-34.1.1-61.8-27.4-61.9-61.5zM709.7 985.6H290.3V688.3l40.5-100.1h338.4l40.5 100.1zM291.1 688.3h417.8"/>
  <path fill="none" stroke="#000" stroke-width="13" stroke-miterlimit="10" d="M346.6 742.2h307.2v70.6H346.6zM449 986.8V869.7h102.4v117.1M346.6 812.7v-70.5M449 742.2v70.5M551.4 742.2v70.5M653.8 742.2v70.5"/>
</svg>
