<svg id="Calque_1" data-name="Calque 1" xmlns="http://www.w3.org/2000/svg" viewBox="0 0 49.02 69.99">
  <defs>
    <style>
      .cls-1{fill:none;stroke:#1d1d1b;stroke-miterlimit:10;stroke-width:2px}.cls-2{fill:#1d1d1b}
    </style>
  </defs>
  <path fill="none" stroke="#1d1d1b" stroke-miterlimit="10" stroke-width="2px" d="M17.67 2.57C22.36.57 26.41.4 28 2.52c2.37 3.14-1.6 10.13-8.87 15.61S4.05 25.5 1.69 22.36c-1.55-2-.4-5.72 2.58-9.54"/>
  <path fill="none" stroke="#1d1d1b" stroke-miterlimit="10" stroke-width="2px" d="M6.11 18.1C2.94 14 4 7.88 8.44 4.43s10.64-2.92 13.82 1.18"/>
  <path fill="none" stroke="#1d1d1b" stroke-miterlimit="10" stroke-width="2px" d="M22.18 5.56c1.33 1.75-1.22 5.92-5.7 9.32S7.29 19.62 6 17.87"/>
  <path fill="#1d1d1b" d="M9.75 14.42a1 1 0 1 1-1.12-.85 1 1 0 0 1 1.12.85zM15.53 12.13a1 1 0 1 1-1.13-.85 1 1 0 0 1 1.13.85zM19.65 7.19a1 1 0 1 1-1.12-.86 1 1 0 0 1 1.12.86z"/>
  <path fill="none" stroke="#1d1d1b" stroke-miterlimit="10" stroke-width="2px" d="M16.7 19.82a19.53 19.53 0 0 1 7.36 12.92M19.93 17.5a30.5 30.5 0 0 1 15 22.39M23.36 14.45a44.08 44.08 0 0 1 21.79 55.19"/>
  <circle fill="none" stroke="#1d1d1b" stroke-miterlimit="10" stroke-width="2px" cx="20.04" cy="50.61" r="18.31"/>
  <circle fill="none" stroke="#1d1d1b" stroke-miterlimit="10" stroke-width="2px" cx="14.84" cy="45.24" r="2.79"/>
  <path fill="none" stroke="#1d1d1b" stroke-miterlimit="10" stroke-width="2px" d="M27.67 39.89a2.33 2.33 0 1 1-2.32-2.32 2.32 2.32 0 0 1 2.32 2.32zM16.76 61.32A2.33 2.33 0 1 1 14.44 59a2.32 2.32 0 0 1 2.32 2.32zM31.69 56.87a5.83 5.83 0 1 1-5.83-5.82 5.82 5.82 0 0 1 5.83 5.82zM2.33 55.27a4 4 0 0 1 3.62 7"/>
  <path fill="#1d1d1b" d="M17 37.66a1 1 0 1 1-1-1 1 1 0 0 1 1 1z"/>
  <circle fill="#1d1d1b" cx="28.63" cy="47.38" r="1"/>
  <circle fill="#1d1d1b" cx="20.04" cy="65.46" r="1"/>
  <circle fill="#1d1d1b" cx="8.38" cy="51.55" r="1"/>
</svg>