<svg id="Calque_1" data-name="Calque 1" xmlns="http://www.w3.org/2000/svg" viewBox="0 0 78.11 70.01">
  <defs>
    <style>
      .cls-1{fill:none;stroke:#1d1d1b;stroke-miterlimit:10;stroke-width:2px}
    </style>
  </defs>
  <path fill="none" stroke="#1d1d1b" stroke-miterlimit="10" stroke-width="2px" d="M58 39.05c.07.94.11 2.09.11 3.06C58.14 57 49.56 69 39 69S19.84 57 19.84 42.11c0-1 .05-2.07.13-3.08"/>
  <path fill="none" stroke="#1d1d1b" stroke-miterlimit="10" stroke-width="2px" d="M36.17 40.35v10.13a2.91 2.91 0 0 0 5.81 0V40.35M30.21 57.92h17.73M15 38.1a15.49 15.49 0 0 0-.35 3.39c0 4 1.35 7.21 3 7.21 1 0 1.82-1.08 2.37-2.76M63 38.16a15.62 15.62 0 0 1 .32 3.33c0 4-1.35 7.21-3 7.21-1 0-1.82-1.08-2.37-2.76M39 5.39A4.4 4.4 0 0 1 43.35 1M39 5.39A4.4 4.4 0 0 0 34.57 1M59.47 21.94C59.47 10.38 52.26 1 43.37 1M38.96 5.39l.01 16.55M59.47 21.94a10.25 10.25 0 1 1-20.5 0M46.29 31.75a3 3 0 0 1 2-3.74M55.08 16.59a3 3 0 0 1 3.09-2.92M54.94 20.29a3.74 3.74 0 0 1-3.08 4.29M58.5 26.27a3.73 3.73 0 0 1-4.29-3.08M48.87 17.66a4.8 4.8 0 0 1 3.41-5.87M46.27 18.77a3 3 0 0 1 4.22-.43M51.49 3.87a3 3 0 0 1-2.26 3.6M39.61 25.41a4.08 4.08 0 0 1 5.73-.59M18.46 21.94C18.46 10.38 25.67 1 34.57 1M38.96 5.39l.01 16.55M18.46 21.94a10.26 10.26 0 0 0 20.51 0M31.65 31.76a3 3 0 0 0-2-3.74M22.87 16.59a3 3 0 0 0-3.08-2.92M39 10.32A3.75 3.75 0 0 0 35.15 14M34.32 17.56a3.74 3.74 0 0 0-3.61 3.87M43.62 17.56a3.74 3.74 0 0 1 3.61 3.87M32.59 7.64a3.73 3.73 0 0 0 3.66 3.81M39 10.32A3.74 3.74 0 0 1 42.79 14M45.36 7.64a3.73 3.73 0 0 1-3.67 3.81M23 20.29a3.74 3.74 0 0 0 3.08 4.29M19.42 26.27a3.73 3.73 0 0 0 4.29-3.08M29.07 17.66a4.8 4.8 0 0 0-3.41-5.87M31.67 18.77a3 3 0 0 0-4.23-.43M26.45 3.89a3 3 0 0 0 2.26 3.6M38.34 25.41a4.08 4.08 0 0 0-5.73-.59"/>
  <path fill="none" stroke="#1d1d1b" stroke-miterlimit="10" stroke-width="2px" d="M69 30.62c0 3-13.52 5.51-30.2 5.51S8.57 33.66 8.57 30.62"/>
  <path fill="none" stroke="#1d1d1b" stroke-miterlimit="10" stroke-width="2px" d="M59.47 22.22C70.07 24 77.11 27 77.11 30.52c0 5.43-17 9.83-38.06 9.83S1 36 1 30.52c0-3.47 7-6.52 17.46-8.27"/>
</svg>