<svg id="Calque_1" data-name="Calque 1" xmlns="http://www.w3.org/2000/svg" viewBox="0 0 77.43 69.99">
  <defs>
    <style>
      .cls-1,.cls-3{fill:none;stroke:#1d1e1b;stroke-width:2px;stroke-miterlimit:10}.cls-3{stroke:#1d1d1b;fill:#fff;stroke-width:1.85px}
    </style>
  </defs>
  <ellipse fill="none" stroke="#1d1d1b" stroke-miterlimit="10" stroke-width="2px" cx="38.72" cy="34.02" rx="21.01" ry="8.19"/>
  <path fill="none" stroke="#1d1d1b" stroke-miterlimit="10" stroke-width="2px" d="M28.21 15.82c3.92-2.26 11.8 4.05 17.6 14.1s7.33 20 3.41 22.29-11.8-4.05-17.6-14.1-7.33-20.02-3.41-22.29z"/>
  <path fill="none" stroke="#1d1d1b" stroke-miterlimit="10" stroke-width="2px" d="M28.21 52.21C24.29 50 25.82 40 31.62 29.92s13.68-16.36 17.6-14.1 2.39 12.25-3.41 22.29-13.68 16.36-17.6 14.1z"/>
  <path d="M42.45 34a3.73 3.73 0 1 1-3.73-3.73A3.73 3.73 0 0 1 42.45 34z" stroke-width="1.7" stroke="#1d1d1b" stroke-miterlimit="10" fill="none"/>
  <path fill="#fff" stroke="#1d1d1b" stroke-miterlimit="10" stroke-width="2px" d="M30.86 15.84a2.64 2.64 0 1 1-2.64-2.65 2.64 2.64 0 0 1 2.64 2.65zM35.55 51.92a2.65 2.65 0 1 1-2.65-2.64 2.65 2.65 0 0 1 2.65 2.64zM59.43 29.88a2.64 2.64 0 1 1-2.64-2.64 2.65 2.65 0 0 1 2.64 2.64z"/>
  <path fill="none" stroke="#1d1d1b" stroke-miterlimit="10" stroke-width="2px" d="M61.1 60.5H16.33"/>
  <path fill="none" stroke="#1d1d1b" stroke-miterlimit="10" stroke-width="2px" transform="rotate(180 72.805 33.935)" d="M69.18 31.28h7.25v5.31h-7.25z"/>
  <path fill="none" stroke="#1d1d1b" stroke-miterlimit="10" stroke-width="2px" d="M69.18 31.28c-3.75 0-13.26-18.59-13.26-30.28h20.51v68H60.17c0-9.83 6.51-32.4 9-32.4M67.18 15.08c0 6.37 4.35 16.2 6.1 16.2M68.18 57.61c0-4.51 3.47-21 5.1-21M1 31.28h7.25v5.31H1z"/>
  <path fill="none" stroke="#1d1d1b" stroke-miterlimit="10" stroke-width="2px" d="M8.25 31.28C12 31.28 21.51 12.69 21.51 1H1v68h16.26c0-9.83-6.51-32.4-9-32.4M10.25 15.08c0 6.37-3.95 16.2-5.7 16.2M9.25 57.61c0-4.51-3.08-21-4.7-21"/>
</svg>